<svg xmlns="http://www.w3.org/2000/svg" xmlns:xlink="http://www.w3.org/1999/xlink" width="500" zoomAndPan="magnify" viewBox="0 0 375 374.999991" height="500" preserveAspectRatio="xMidYMid meet" version="1.0"><defs><clipPath id="f186b3f0e1"><path d="M 152 309 L 223 309 L 223 337.5 L 152 337.5 Z M 152 309 " clip-rule="nonzero"/></clipPath><clipPath id="57a3fba1ee"><path d="M 51.136719 37.5 L 324.136719 37.5 L 324.136719 297 L 51.136719 297 Z M 51.136719 37.5 " clip-rule="nonzero"/></clipPath></defs><g clip-path="url(#f186b3f0e1)"><path fill="#231f20" d="M 221.953125 311.378906 C 221.28125 310.410156 219.945312 309.742188 219.09375 309.863281 L 156.359375 310.226562 C 156.359375 310.226562 154.113281 310.832031 153.503906 311.804688 C 152.894531 312.777344 152.773438 313.992188 153.261719 315.023438 C 159.21875 328.6875 172.773438 337.492188 187.667969 337.492188 C 202.804688 337.492188 216.359375 328.503906 222.253906 314.597656 C 222.679688 313.503906 222.558594 312.292969 221.953125 311.378906 Z M 221.953125 311.378906 " fill-opacity="1" fill-rule="nonzero"/></g><g clip-path="url(#57a3fba1ee)"><path fill="#231f20" d="M 321.703125 277.738281 L 283.226562 245.675781 L 283.226562 160.234375 C 283.226562 116.9375 254.167969 80.320312 214.535156 68.660156 C 214.71875 67.382812 214.960938 66.109375 214.960938 64.773438 C 214.960938 49.714844 202.742188 37.507812 187.667969 37.507812 C 172.589844 37.507812 160.371094 49.714844 160.371094 64.773438 C 160.371094 66.109375 160.617188 67.382812 160.796875 68.660156 C 121.164062 80.320312 92.109375 116.875 92.109375 160.234375 L 92.109375 245.675781 L 53.566406 277.738281 C 51.988281 279.011719 51.136719 280.957031 51.136719 282.960938 L 51.136719 289.761719 C 51.136719 293.527344 54.175781 296.5625 57.945312 296.5625 L 317.328125 296.5625 C 321.097656 296.5625 324.136719 293.527344 324.136719 289.761719 L 324.136719 282.960938 C 324.136719 280.957031 323.222656 279.011719 321.703125 277.738281 Z M 174.109375 65.867188 C 174.109375 65.503906 173.988281 65.136719 173.988281 64.773438 C 173.988281 57.242188 180.128906 51.109375 187.667969 51.109375 C 195.203125 51.109375 201.285156 57.242188 201.285156 64.773438 C 201.285156 65.136719 201.222656 65.503906 201.160156 65.867188 C 196.722656 65.257812 192.226562 64.773438 187.605469 64.773438 C 182.984375 64.773438 178.546875 65.199219 174.109375 65.867188 Z M 174.109375 65.867188 " fill-opacity="1" fill-rule="nonzero"/></g></svg>