<svg xmlns="http://www.w3.org/2000/svg" xmlns:xlink="http://www.w3.org/1999/xlink" width="30" zoomAndPan="magnify" viewBox="0 0 375 374.999991" height="30" preserveAspectRatio="xMidYMid meet" version="1.0"><defs><clipPath id="80ae2b252d"><path d="M 37.5 48.1875 L 337.5 48.1875 L 337.5 327.1875 L 37.5 327.1875 Z M 37.5 48.1875 " clip-rule="nonzero"/></clipPath></defs><g clip-path="url(#80ae2b252d)"><path fill="white" d="M 43.710938 199.777344 L 80.589844 199.777344 C 83.945312 199.777344 86.683594 202.519531 86.683594 205.878906 L 86.683594 321.042969 C 86.683594 324.402344 83.945312 327.144531 80.589844 327.144531 L 43.710938 327.144531 C 40.351562 327.144531 37.617188 324.402344 37.617188 321.042969 L 37.617188 205.878906 C 37.617188 202.519531 40.351562 199.777344 43.710938 199.777344 Z M 62.148438 130.835938 C 67.511719 130.835938 72.382812 132.9375 75.988281 136.363281 L 125.996094 108.71875 C 125.742188 107.441406 125.609375 106.125 125.609375 104.773438 C 125.609375 93.65625 134.613281 84.640625 145.714844 84.640625 C 156.230469 84.640625 164.855469 92.722656 165.746094 103.015625 L 211.890625 113.308594 C 215.371094 107.3125 221.855469 103.28125 229.28125 103.28125 C 234.085938 103.28125 238.496094 104.96875 241.957031 107.785156 L 293.5 73.792969 C 293.007812 72.046875 292.742188 70.207031 292.742188 68.304688 C 292.742188 57.1875 301.746094 48.171875 312.851562 48.171875 C 323.953125 48.171875 332.957031 57.1875 332.957031 68.304688 C 332.957031 79.425781 323.953125 88.4375 312.851562 88.4375 C 308.046875 88.4375 303.636719 86.75 300.175781 83.9375 L 248.632812 117.925781 C 249.125 119.671875 249.390625 121.511719 249.390625 123.414062 C 249.390625 134.535156 240.386719 143.546875 229.28125 143.546875 C 218.769531 143.546875 210.144531 135.46875 209.253906 125.171875 L 163.109375 114.878906 C 159.628906 120.875 153.140625 124.90625 145.714844 124.90625 C 140.355469 124.90625 135.484375 122.804688 131.878906 119.378906 L 81.871094 147.023438 C 82.121094 148.300781 82.257812 149.617188 82.257812 150.96875 C 82.257812 162.085938 73.253906 171.101562 62.152344 171.101562 C 51.046875 171.101562 42.042969 162.085938 42.042969 150.96875 C 42.042969 139.847656 51.046875 130.835938 62.148438 130.835938 Z M 294.410156 117.113281 C 291.054688 117.113281 288.316406 119.855469 288.316406 123.214844 L 288.316406 321.042969 C 288.316406 324.402344 291.054688 327.144531 294.410156 327.144531 L 331.289062 327.144531 C 334.648438 327.144531 337.382812 324.402344 337.382812 321.042969 L 337.382812 123.214844 C 337.382812 119.855469 334.648438 117.113281 331.289062 117.113281 Z M 210.84375 172.222656 C 223.136719 172.222656 235.429688 172.222656 247.722656 172.222656 C 251.078125 172.222656 253.816406 174.964844 253.816406 178.324219 C 253.816406 225.898438 253.816406 273.46875 253.816406 321.042969 C 253.816406 324.402344 251.078125 327.140625 247.722656 327.140625 C 235.429688 327.140625 223.136719 327.140625 210.84375 327.140625 C 207.488281 327.140625 204.75 324.402344 204.75 321.042969 C 204.75 273.46875 204.75 225.898438 204.75 178.324219 C 204.75 174.964844 207.488281 172.222656 210.84375 172.222656 Z M 127.277344 153.585938 C 123.921875 153.585938 121.183594 156.324219 121.183594 159.6875 C 121.183594 213.472656 121.183594 267.257812 121.183594 321.042969 C 121.183594 324.402344 123.921875 327.144531 127.277344 327.144531 C 139.570312 327.144531 151.863281 327.144531 164.15625 327.144531 C 167.511719 327.144531 170.25 324.402344 170.25 321.042969 C 170.25 267.257812 170.25 213.472656 170.25 159.6875 C 170.25 156.324219 167.511719 153.585938 164.15625 153.585938 C 151.863281 153.585938 139.570312 153.585938 127.277344 153.585938 Z M 127.277344 153.585938 " fill-opacity="1" fill-rule="evenodd"/></g></svg>