<svg xmlns="http://www.w3.org/2000/svg" xmlns:xlink="http://www.w3.org/1999/xlink" width="30" zoomAndPan="magnify" viewBox="0 0 375 374.999991" height="30" preserveAspectRatio="xMidYMid meet" version="1.0"><defs><clipPath id="dc44a19305"><path d="M 38 72 L 337 72 L 337 140 L 38 140 Z M 38 72 " clip-rule="nonzero"/></clipPath><clipPath id="954611821d"><path d="M 38 235 L 337 235 L 337 303 L 38 303 Z M 38 235 " clip-rule="nonzero"/></clipPath></defs><path fill="white" d="M 326.605469 176.785156 L 268.320312 176.785156 C 263.902344 163.355469 251.25 153.65625 236.355469 153.65625 C 221.464844 153.65625 208.839844 163.386719 204.390625 176.785156 L 48.394531 176.785156 C 42.8125 176.785156 38.273438 181.320312 38.273438 186.902344 C 38.273438 192.484375 42.8125 197.019531 48.394531 197.019531 L 204.152344 197.019531 C 208.332031 210.839844 221.195312 220.957031 236.355469 220.957031 C 251.546875 220.957031 264.378906 210.867188 268.558594 197.019531 L 326.578125 197.019531 C 332.160156 197.019531 336.695312 192.484375 336.695312 186.902344 C 336.695312 181.320312 332.1875 176.785156 326.605469 176.785156 Z M 236.355469 200.722656 C 228.953125 200.722656 222.957031 194.691406 222.957031 187.320312 C 222.957031 179.917969 228.984375 173.921875 236.355469 173.921875 C 243.757812 173.921875 249.757812 179.949219 249.757812 187.320312 C 249.785156 194.691406 243.757812 200.722656 236.355469 200.722656 Z M 236.355469 200.722656 " fill-opacity="1" fill-rule="nonzero"/><g clip-path="url(#dc44a19305)"><path fill="white" d="M 48.394531 115.304688 L 106.410156 115.304688 C 110.589844 129.125 123.453125 139.242188 138.613281 139.242188 C 153.804688 139.242188 166.636719 129.152344 170.816406 115.304688 L 326.578125 115.304688 C 332.160156 115.304688 336.695312 110.769531 336.695312 105.1875 C 336.695312 99.605469 332.160156 95.070312 326.578125 95.070312 L 170.609375 95.070312 C 166.191406 81.640625 153.535156 71.941406 138.644531 71.941406 C 123.75 71.941406 111.125 81.667969 106.679688 95.070312 L 48.394531 95.070312 C 42.8125 95.070312 38.273438 99.578125 38.273438 105.1875 C 38.273438 110.769531 42.8125 115.304688 48.394531 115.304688 Z M 138.644531 92.175781 C 146.046875 92.175781 152.042969 98.203125 152.042969 105.574219 C 152.042969 112.949219 146.015625 118.976562 138.644531 118.976562 C 131.242188 118.976562 125.242188 112.949219 125.242188 105.574219 C 125.242188 98.203125 131.242188 92.175781 138.644531 92.175781 Z M 138.644531 92.175781 " fill-opacity="1" fill-rule="nonzero"/></g><g clip-path="url(#954611821d)"><path fill="white" d="M 326.605469 259.308594 L 219.582031 259.308594 C 215.285156 245.667969 202.511719 235.757812 187.5 235.757812 C 172.457031 235.757812 159.714844 245.667969 155.417969 259.308594 L 48.394531 259.308594 C 42.8125 259.308594 38.273438 263.84375 38.273438 269.425781 C 38.273438 275.003906 42.8125 279.542969 48.394531 279.542969 L 155.386719 279.542969 C 159.683594 293.179688 172.457031 303.089844 187.46875 303.089844 C 202.511719 303.089844 215.253906 293.179688 219.554688 279.542969 L 326.546875 279.542969 C 332.128906 279.542969 336.664062 275.003906 336.664062 269.425781 C 336.664062 263.84375 332.1875 259.308594 326.605469 259.308594 Z M 187.5 282.824219 C 180.097656 282.824219 174.097656 276.796875 174.097656 269.425781 C 174.097656 262.050781 180.128906 256.023438 187.5 256.023438 C 194.902344 256.023438 200.898438 262.050781 200.898438 269.425781 C 200.898438 276.796875 194.902344 282.824219 187.5 282.824219 Z M 187.5 282.824219 " fill-opacity="1" fill-rule="nonzero"/></g></svg>