<svg xmlns="http://www.w3.org/2000/svg" xmlns:xlink="http://www.w3.org/1999/xlink" width="20" zoomAndPan="magnify" viewBox="0 0 375 374.999991" height="20" preserveAspectRatio="xMidYMid meet" version="1.0"><defs><clipPath id="363903ca6f"><path d="M 37.5 37.5 L 337.5 37.5 L 337.5 337.5 L 37.5 337.5 Z M 37.5 37.5 " clip-rule="nonzero"/></clipPath></defs><g clip-path="url(#363903ca6f)"><path fill="#000000" d="M 170.832031 37.5 C 97.3125 37.5 37.5 97.3125 37.5 170.832031 C 37.5 244.355469 97.3125 304.167969 170.832031 304.167969 C 175.511719 304.167969 180.101562 303.832031 184.65625 303.363281 L 188.453125 299.566406 L 202.5625 285.460938 C 201.28125 283.082031 199.949219 280.734375 198.914062 278.210938 C 189.925781 280.566406 180.554688 281.945312 170.832031 281.945312 C 109.566406 281.945312 59.722656 232.101562 59.722656 170.832031 C 59.722656 109.566406 109.566406 59.722656 170.832031 59.722656 C 232.101562 59.722656 281.945312 109.566406 281.945312 170.832031 C 281.945312 171.132812 281.902344 171.402344 281.902344 171.703125 C 289.625 172.800781 296.988281 175.042969 303.796875 178.253906 C 303.941406 175.789062 304.167969 173.332031 304.167969 170.832031 C 304.167969 97.3125 244.355469 37.5 170.832031 37.5 Z M 232.269531 93.683594 L 211.261719 114.691406 L 226.976562 130.402344 L 247.980469 109.398438 Z M 170.832031 115.277344 C 140.28125 115.277344 115.277344 140.28125 115.277344 170.832031 C 115.277344 201.382812 140.28125 226.390625 170.832031 226.390625 C 201.382812 226.390625 226.390625 201.382812 226.390625 170.832031 C 226.390625 140.28125 201.382812 115.277344 170.832031 115.277344 Z M 170.832031 137.5 C 189.375 137.5 204.167969 152.292969 204.167969 170.832031 C 204.167969 189.375 189.375 204.167969 170.832031 204.167969 C 152.292969 204.167969 137.5 189.375 137.5 170.832031 C 137.5 152.292969 152.292969 137.5 170.832031 137.5 Z M 170.832031 159.722656 C 170.105469 159.722656 169.382812 159.792969 168.664062 159.9375 C 167.949219 160.078125 167.253906 160.289062 166.582031 160.566406 C 165.90625 160.847656 165.265625 161.1875 164.660156 161.59375 C 164.054688 162 163.492188 162.460938 162.976562 162.976562 C 162.460938 163.492188 162 164.054688 161.59375 164.660156 C 161.1875 165.265625 160.847656 165.90625 160.566406 166.582031 C 160.289062 167.253906 160.078125 167.949219 159.9375 168.664062 C 159.792969 169.382812 159.722656 170.105469 159.722656 170.832031 C 159.722656 171.5625 159.792969 172.285156 159.9375 173 C 160.078125 173.714844 160.289062 174.410156 160.566406 175.085938 C 160.847656 175.757812 161.1875 176.398438 161.59375 177.007812 C 162 177.613281 162.460938 178.175781 162.976562 178.691406 C 163.492188 179.207031 164.054688 179.667969 164.660156 180.070312 C 165.265625 180.476562 165.90625 180.820312 166.582031 181.097656 C 167.253906 181.378906 167.949219 181.589844 168.664062 181.730469 C 169.382812 181.875 170.105469 181.945312 170.832031 181.945312 C 171.5625 181.945312 172.285156 181.875 173 181.730469 C 173.714844 181.589844 174.410156 181.378906 175.085938 181.097656 C 175.757812 180.820312 176.398438 180.476562 177.007812 180.070312 C 177.613281 179.667969 178.175781 179.207031 178.691406 178.691406 C 179.207031 178.175781 179.667969 177.613281 180.070312 177.007812 C 180.476562 176.398438 180.820312 175.757812 181.097656 175.085938 C 181.378906 174.410156 181.589844 173.714844 181.730469 173 C 181.875 172.285156 181.945312 171.5625 181.945312 170.832031 C 181.945312 170.105469 181.875 169.382812 181.730469 168.664062 C 181.589844 167.949219 181.378906 167.253906 181.097656 166.582031 C 180.820312 165.90625 180.476562 165.265625 180.070312 164.660156 C 179.667969 164.054688 179.207031 163.492188 178.691406 162.976562 C 178.175781 162.460938 177.613281 162 177.007812 161.59375 C 176.398438 161.1875 175.757812 160.847656 175.085938 160.566406 C 174.410156 160.289062 173.714844 160.078125 173 159.9375 C 172.285156 159.792969 171.5625 159.722656 170.832031 159.722656 Z M 270.832031 193.078125 C 266.410156 193.078125 261.988281 194.414062 258.246094 197.113281 L 251.519531 201.976562 L 243.335938 203.296875 L 243.316406 203.296875 C 234.222656 204.78125 226.984375 212.003906 225.519531 221.136719 L 224.195312 229.296875 L 219.335938 236.023438 C 213.933594 243.511719 213.949219 253.710938 219.335938 261.199219 L 224.195312 267.945312 L 225.519531 276.128906 C 226.261719 280.671875 228.425781 284.757812 231.554688 287.890625 L 204.167969 315.277344 L 226.390625 315.277344 L 226.390625 337.5 L 261.9375 301.953125 C 267.625 304.558594 274.042969 304.554688 279.730469 301.953125 L 315.277344 337.5 L 315.277344 315.277344 L 337.5 315.277344 L 310.113281 287.890625 C 313.246094 284.765625 315.429688 280.691406 316.167969 276.128906 L 316.167969 276.105469 L 317.492188 267.945312 L 322.332031 261.21875 C 327.734375 253.734375 327.714844 243.511719 322.332031 236.023438 L 317.492188 229.296875 L 316.144531 221.117188 L 316.144531 221.09375 C 314.667969 212.007812 307.472656 204.769531 298.351562 203.296875 L 290.167969 201.976562 L 283.421875 197.113281 C 279.675781 194.421875 275.257812 193.078125 270.832031 193.078125 Z M 114.691406 211.261719 L 93.683594 232.269531 L 109.398438 247.980469 L 130.402344 226.976562 Z M 270.832031 215.429688 L 281.421875 223.070312 L 294.3125 225.152344 L 296.375 238.042969 L 304.015625 248.609375 L 296.375 259.203125 L 294.3125 272.09375 L 281.421875 274.152344 L 270.832031 281.8125 L 260.265625 274.152344 L 247.375 272.09375 L 245.289062 259.203125 L 237.652344 248.609375 L 245.289062 238.042969 L 247.375 225.152344 L 260.265625 223.070312 Z M 270.832031 215.429688 " fill-opacity="1" fill-rule="nonzero"/></g></svg>