<svg xmlns="http://www.w3.org/2000/svg" xmlns:xlink="http://www.w3.org/1999/xlink" width="25" zoomAndPan="magnify" viewBox="0 0 375 374.999991" height="25" preserveAspectRatio="xMidYMid meet" version="1.0"><defs><clipPath id="8aede2dffa"><path d="M 37.5 80.625 L 266 80.625 L 266 238 L 37.5 238 Z M 37.5 80.625 " clip-rule="nonzero"/></clipPath><clipPath id="54166ef998"><path d="M 266 195 L 328 195 L 328 294.375 L 266 294.375 Z M 266 195 " clip-rule="nonzero"/></clipPath><clipPath id="b0c636c80c"><path d="M 320 217 L 337.5 217 L 337.5 268 L 320 268 Z M 320 217 " clip-rule="nonzero"/></clipPath></defs><g clip-path="url(#8aede2dffa)"><path fill="white" d="M 171.65625 237.726562 L 56.269531 237.726562 C 49.152344 237.726562 46.207031 231.878906 43.847656 227.183594 C 43.609375 226.707031 43.371094 226.234375 43.121094 225.757812 L 37.886719 215.625 C 37.636719 215.144531 37.507812 214.609375 37.507812 214.074219 L 37.507812 116.933594 C 37.507812 108.101562 44.703125 100.90625 53.535156 100.90625 L 76.273438 100.90625 L 80.5625 92.609375 C 80.808594 92.132812 81.046875 91.660156 81.285156 91.183594 C 83.644531 86.488281 86.589844 80.636719 93.707031 80.636719 L 209.097656 80.636719 C 216.21875 80.636719 219.164062 86.488281 221.523438 91.183594 C 221.761719 91.660156 222 92.132812 222.242188 92.609375 L 226.53125 100.90625 L 249.269531 100.90625 C 258.105469 100.90625 265.296875 108.101562 265.296875 116.933594 L 265.296875 201.4375 C 265.296875 210.273438 258.105469 217.464844 249.269531 217.464844 L 189.09375 217.464844 L 184.804688 225.765625 C 184.5625 226.238281 184.324219 226.714844 184.078125 227.191406 C 181.71875 231.886719 178.773438 237.726562 171.65625 237.726562 Z M 44.292969 213.246094 L 49.152344 222.644531 C 49.410156 223.136719 49.660156 223.632812 49.90625 224.128906 C 52.289062 228.867188 53.609375 230.941406 56.269531 230.941406 L 171.664062 230.941406 C 174.320312 230.941406 175.644531 228.867188 178.027344 224.128906 C 178.277344 223.632812 178.527344 223.136719 178.78125 222.644531 L 184.011719 212.511719 C 184.597656 211.386719 185.757812 210.671875 187.023438 210.671875 L 249.269531 210.671875 C 254.367188 210.671875 258.511719 206.527344 258.511719 201.429688 L 258.511719 116.933594 C 258.511719 111.839844 254.367188 107.691406 249.269531 107.691406 L 224.46875 107.691406 C 223.199219 107.691406 222.039062 106.988281 221.457031 105.855469 L 216.222656 95.722656 C 215.964844 95.226562 215.714844 94.734375 215.472656 94.238281 C 213.089844 89.5 211.765625 87.425781 209.105469 87.425781 L 93.707031 87.425781 C 91.046875 87.425781 89.726562 89.5 87.34375 94.238281 C 87.089844 94.734375 86.839844 95.226562 86.589844 95.722656 L 81.359375 105.855469 C 80.773438 106.980469 79.613281 107.691406 78.34375 107.691406 L 53.535156 107.691406 C 48.441406 107.691406 44.292969 111.839844 44.292969 116.933594 Z M 44.292969 213.246094 " fill-opacity="1" fill-rule="nonzero"/></g><path fill="white" d="M 65.953125 131.59375 L 57.472656 131.59375 C 54.433594 131.59375 51.957031 129.117188 51.957031 126.074219 L 51.957031 117.59375 C 51.957031 114.554688 54.433594 112.082031 57.472656 112.082031 L 65.953125 112.082031 C 68.996094 112.082031 71.464844 114.554688 71.464844 117.59375 L 71.464844 126.074219 C 71.464844 129.117188 68.996094 131.59375 65.953125 131.59375 Z M 58.742188 124.808594 L 64.679688 124.808594 L 64.679688 118.871094 L 58.742188 118.871094 Z M 65.953125 118.871094 Z M 65.953125 118.871094 " fill-opacity="1" fill-rule="nonzero"/><path fill="white" d="M 117.207031 131.59375 L 108.726562 131.59375 C 105.683594 131.59375 103.214844 129.117188 103.214844 126.074219 L 103.214844 117.59375 C 103.214844 114.554688 105.683594 112.082031 108.726562 112.082031 L 117.207031 112.082031 C 120.246094 112.082031 122.714844 114.554688 122.714844 117.59375 L 122.714844 126.074219 C 122.714844 129.117188 120.246094 131.59375 117.207031 131.59375 Z M 109.992188 124.808594 L 115.929688 124.808594 L 115.929688 118.871094 L 109.992188 118.871094 Z M 117.207031 118.871094 Z M 117.207031 118.871094 " fill-opacity="1" fill-rule="nonzero"/><path fill="white" d="M 142.828125 131.59375 L 134.347656 131.59375 C 131.308594 131.59375 128.832031 129.117188 128.832031 126.074219 L 128.832031 117.59375 C 128.832031 114.554688 131.308594 112.082031 134.347656 112.082031 L 142.828125 112.082031 C 145.871094 112.082031 148.339844 114.554688 148.339844 117.59375 L 148.339844 126.074219 C 148.347656 129.117188 145.871094 131.59375 142.828125 131.59375 Z M 135.625 124.808594 L 141.5625 124.808594 L 141.5625 118.871094 L 135.625 118.871094 Z M 142.828125 118.871094 Z M 142.828125 118.871094 " fill-opacity="1" fill-rule="nonzero"/><path fill="white" d="M 168.460938 131.59375 L 159.976562 131.59375 C 156.9375 131.59375 154.46875 129.117188 154.46875 126.074219 L 154.46875 117.59375 C 154.46875 114.554688 156.9375 112.082031 159.976562 112.082031 L 168.460938 112.082031 C 171.5 112.082031 173.976562 114.554688 173.976562 117.59375 L 173.976562 126.074219 C 173.96875 129.117188 171.5 131.59375 168.460938 131.59375 Z M 161.246094 124.808594 L 167.183594 124.808594 L 167.183594 118.871094 L 161.246094 118.871094 Z M 168.460938 118.871094 Z M 168.460938 118.871094 " fill-opacity="1" fill-rule="nonzero"/><path fill="white" d="M 194.082031 131.59375 L 185.601562 131.59375 C 182.558594 131.59375 180.082031 129.117188 180.082031 126.074219 L 180.082031 117.59375 C 180.082031 114.554688 182.558594 112.082031 185.601562 112.082031 L 194.082031 112.082031 C 197.121094 112.082031 199.597656 114.554688 199.597656 117.59375 L 199.597656 126.074219 C 199.597656 129.117188 197.121094 131.59375 194.082031 131.59375 Z M 186.875 124.808594 L 192.8125 124.808594 L 192.8125 118.871094 L 186.875 118.871094 Z M 194.082031 118.871094 Z M 194.082031 118.871094 " fill-opacity="1" fill-rule="nonzero"/><path fill="white" d="M 219.710938 131.59375 L 211.230469 131.59375 C 208.191406 131.59375 205.71875 129.117188 205.71875 126.074219 L 205.71875 117.59375 C 205.71875 114.554688 208.191406 112.082031 211.230469 112.082031 L 219.710938 112.082031 C 222.75 112.082031 225.230469 114.554688 225.230469 117.59375 L 225.230469 126.074219 C 225.222656 129.117188 222.75 131.59375 219.710938 131.59375 Z M 212.5 124.808594 L 218.4375 124.808594 L 218.4375 118.871094 L 212.5 118.871094 Z M 219.710938 118.871094 Z M 219.710938 118.871094 " fill-opacity="1" fill-rule="nonzero"/><path fill="white" d="M 245.335938 131.59375 L 236.851562 131.59375 C 233.8125 131.59375 231.34375 129.117188 231.34375 126.074219 L 231.34375 117.59375 C 231.34375 114.554688 233.8125 112.082031 236.851562 112.082031 L 245.335938 112.082031 C 248.375 112.082031 250.84375 114.554688 250.84375 117.59375 L 250.84375 126.074219 C 250.851562 129.117188 248.375 131.59375 245.335938 131.59375 Z M 238.128906 124.808594 L 244.066406 124.808594 L 244.066406 118.871094 L 238.128906 118.871094 Z M 245.335938 118.871094 Z M 245.335938 118.871094 " fill-opacity="1" fill-rule="nonzero"/><path fill="white" d="M 91.578125 156.488281 L 83.09375 156.488281 C 80.054688 156.488281 77.585938 154.011719 77.585938 150.972656 L 77.585938 142.492188 C 77.585938 139.449219 80.054688 136.980469 83.09375 136.980469 L 91.578125 136.980469 C 94.617188 136.980469 97.09375 139.449219 97.09375 142.492188 L 97.09375 150.972656 C 97.09375 154.011719 94.617188 156.488281 91.578125 156.488281 Z M 84.371094 149.703125 L 90.308594 149.703125 L 90.308594 143.765625 L 84.371094 143.765625 Z M 91.578125 143.765625 Z M 91.578125 143.765625 " fill-opacity="1" fill-rule="nonzero"/><path fill="white" d="M 117.207031 156.488281 L 108.726562 156.488281 C 105.683594 156.488281 103.214844 154.011719 103.214844 150.972656 L 103.214844 142.492188 C 103.214844 139.449219 105.683594 136.980469 108.726562 136.980469 L 117.207031 136.980469 C 120.246094 136.980469 122.714844 139.449219 122.714844 142.492188 L 122.714844 150.972656 C 122.714844 154.011719 120.246094 156.488281 117.207031 156.488281 Z M 109.992188 149.703125 L 115.929688 149.703125 L 115.929688 143.765625 L 109.992188 143.765625 Z M 117.207031 143.765625 Z M 117.207031 143.765625 " fill-opacity="1" fill-rule="nonzero"/><path fill="white" d="M 142.828125 156.488281 L 134.347656 156.488281 C 131.308594 156.488281 128.832031 154.011719 128.832031 150.972656 L 128.832031 142.492188 C 128.832031 139.449219 131.308594 136.980469 134.347656 136.980469 L 142.828125 136.980469 C 145.871094 136.980469 148.339844 139.449219 148.339844 142.492188 L 148.339844 150.972656 C 148.347656 154.011719 145.871094 156.488281 142.828125 156.488281 Z M 135.625 149.703125 L 141.5625 149.703125 L 141.5625 143.765625 L 135.625 143.765625 Z M 142.828125 143.765625 Z M 142.828125 143.765625 " fill-opacity="1" fill-rule="nonzero"/><path fill="white" d="M 168.460938 156.488281 L 159.976562 156.488281 C 156.9375 156.488281 154.46875 154.011719 154.46875 150.972656 L 154.46875 142.492188 C 154.46875 139.449219 156.9375 136.980469 159.976562 136.980469 L 168.460938 136.980469 C 171.5 136.980469 173.976562 139.449219 173.976562 142.492188 L 173.976562 150.972656 C 173.96875 154.011719 171.5 156.488281 168.460938 156.488281 Z M 161.246094 149.703125 L 167.183594 149.703125 L 167.183594 143.765625 L 161.246094 143.765625 Z M 168.460938 143.765625 Z M 168.460938 143.765625 " fill-opacity="1" fill-rule="nonzero"/><path fill="white" d="M 194.082031 156.488281 L 185.601562 156.488281 C 182.558594 156.488281 180.082031 154.011719 180.082031 150.972656 L 180.082031 142.492188 C 180.082031 139.449219 182.558594 136.980469 185.601562 136.980469 L 194.082031 136.980469 C 197.121094 136.980469 199.597656 139.449219 199.597656 142.492188 L 199.597656 150.972656 C 199.597656 154.011719 197.121094 156.488281 194.082031 156.488281 Z M 186.875 149.703125 L 192.8125 149.703125 L 192.8125 143.765625 L 186.875 143.765625 Z M 194.082031 143.765625 Z M 194.082031 143.765625 " fill-opacity="1" fill-rule="nonzero"/><path fill="white" d="M 219.710938 156.488281 L 211.230469 156.488281 C 208.191406 156.488281 205.71875 154.011719 205.71875 150.972656 L 205.71875 142.492188 C 205.71875 139.449219 208.191406 136.980469 211.230469 136.980469 L 219.710938 136.980469 C 222.75 136.980469 225.230469 139.449219 225.230469 142.492188 L 225.230469 150.972656 C 225.222656 154.011719 222.75 156.488281 219.710938 156.488281 Z M 212.5 149.703125 L 218.4375 149.703125 L 218.4375 143.765625 L 212.5 143.765625 Z M 219.710938 143.765625 Z M 219.710938 143.765625 " fill-opacity="1" fill-rule="nonzero"/><path fill="white" d="M 65.953125 181.386719 L 57.472656 181.386719 C 54.433594 181.386719 51.957031 178.910156 51.957031 175.871094 L 51.957031 142.492188 C 51.957031 139.449219 54.433594 136.980469 57.472656 136.980469 L 65.953125 136.980469 C 68.996094 136.980469 71.464844 139.449219 71.464844 142.492188 L 71.464844 175.871094 C 71.464844 178.917969 68.996094 181.386719 65.953125 181.386719 Z M 58.742188 174.601562 L 64.679688 174.601562 L 64.679688 143.765625 L 58.742188 143.765625 Z M 58.742188 174.601562 " fill-opacity="1" fill-rule="nonzero"/><path fill="white" d="M 91.578125 181.386719 L 83.09375 181.386719 C 80.054688 181.386719 77.585938 178.910156 77.585938 175.871094 L 77.585938 167.386719 C 77.585938 164.347656 80.054688 161.878906 83.09375 161.878906 L 91.578125 161.878906 C 94.617188 161.878906 97.09375 164.347656 97.09375 167.386719 L 97.09375 175.871094 C 97.09375 178.917969 94.617188 181.386719 91.578125 181.386719 Z M 84.371094 174.601562 L 90.308594 174.601562 L 90.308594 168.664062 L 84.371094 168.664062 Z M 91.578125 168.664062 Z M 91.578125 168.664062 " fill-opacity="1" fill-rule="nonzero"/><path fill="white" d="M 117.207031 181.386719 L 108.726562 181.386719 C 105.683594 181.386719 103.214844 178.910156 103.214844 175.871094 L 103.214844 167.386719 C 103.214844 164.347656 105.683594 161.878906 108.726562 161.878906 L 117.207031 161.878906 C 120.246094 161.878906 122.714844 164.347656 122.714844 167.386719 L 122.714844 175.871094 C 122.714844 178.917969 120.246094 181.386719 117.207031 181.386719 Z M 109.992188 174.601562 L 115.929688 174.601562 L 115.929688 168.664062 L 109.992188 168.664062 Z M 117.207031 168.664062 Z M 117.207031 168.664062 " fill-opacity="1" fill-rule="nonzero"/><path fill="white" d="M 142.828125 181.386719 L 134.347656 181.386719 C 131.308594 181.386719 128.832031 178.910156 128.832031 175.871094 L 128.832031 167.386719 C 128.832031 164.347656 131.308594 161.878906 134.347656 161.878906 L 142.828125 161.878906 C 145.871094 161.878906 148.339844 164.347656 148.339844 167.386719 L 148.339844 175.871094 C 148.347656 178.917969 145.871094 181.386719 142.828125 181.386719 Z M 135.625 174.601562 L 141.5625 174.601562 L 141.5625 168.664062 L 135.625 168.664062 Z M 142.828125 168.664062 Z M 142.828125 168.664062 " fill-opacity="1" fill-rule="nonzero"/><path fill="white" d="M 168.460938 181.386719 L 159.976562 181.386719 C 156.9375 181.386719 154.46875 178.910156 154.46875 175.871094 L 154.46875 167.386719 C 154.46875 164.347656 156.9375 161.878906 159.976562 161.878906 L 168.460938 161.878906 C 171.5 161.878906 173.976562 164.347656 173.976562 167.386719 L 173.976562 175.871094 C 173.96875 178.917969 171.5 181.386719 168.460938 181.386719 Z M 161.246094 174.601562 L 167.183594 174.601562 L 167.183594 168.664062 L 161.246094 168.664062 Z M 168.460938 168.664062 Z M 168.460938 168.664062 " fill-opacity="1" fill-rule="nonzero"/><path fill="white" d="M 194.082031 181.386719 L 185.601562 181.386719 C 182.558594 181.386719 180.082031 178.910156 180.082031 175.871094 L 180.082031 167.386719 C 180.082031 164.347656 182.558594 161.878906 185.601562 161.878906 L 194.082031 161.878906 C 197.121094 161.878906 199.597656 164.347656 199.597656 167.386719 L 199.597656 175.871094 C 199.597656 178.917969 197.121094 181.386719 194.082031 181.386719 Z M 186.875 174.601562 L 192.8125 174.601562 L 192.8125 168.664062 L 186.875 168.664062 Z M 194.082031 168.664062 Z M 194.082031 168.664062 " fill-opacity="1" fill-rule="nonzero"/><path fill="white" d="M 245.335938 181.386719 L 211.230469 181.386719 C 208.191406 181.386719 205.71875 178.910156 205.71875 175.871094 L 205.71875 167.386719 C 205.71875 164.347656 208.191406 161.878906 211.230469 161.878906 L 231.34375 161.878906 L 231.34375 142.492188 C 231.34375 139.449219 233.8125 136.980469 236.851562 136.980469 L 245.335938 136.980469 C 248.375 136.980469 250.84375 139.449219 250.84375 142.492188 L 250.84375 175.871094 C 250.851562 178.917969 248.375 181.386719 245.335938 181.386719 Z M 212.5 174.601562 L 244.058594 174.601562 L 244.058594 143.765625 L 238.121094 143.765625 L 238.121094 165.269531 C 238.121094 167.144531 236.601562 168.664062 234.730469 168.664062 L 212.5 168.664062 Z M 212.5 174.601562 " fill-opacity="1" fill-rule="nonzero"/><path fill="white" d="M 65.953125 206.28125 L 57.472656 206.28125 C 54.433594 206.28125 51.957031 203.8125 51.957031 200.773438 L 51.957031 192.289062 C 51.957031 189.25 54.433594 186.773438 57.472656 186.773438 L 65.953125 186.773438 C 68.996094 186.773438 71.464844 189.242188 71.464844 192.289062 L 71.464844 200.773438 C 71.464844 203.8125 68.996094 206.28125 65.953125 206.28125 Z M 58.742188 199.496094 L 64.679688 199.496094 L 64.679688 193.558594 L 58.742188 193.558594 Z M 65.953125 193.566406 Z M 65.953125 193.566406 " fill-opacity="1" fill-rule="nonzero"/><path fill="white" d="M 91.578125 206.28125 L 83.09375 206.28125 C 80.054688 206.28125 77.585938 203.8125 77.585938 200.773438 L 77.585938 192.289062 C 77.585938 189.25 80.054688 186.773438 83.09375 186.773438 L 91.578125 186.773438 C 94.617188 186.773438 97.09375 189.242188 97.09375 192.289062 L 97.09375 200.773438 C 97.09375 203.8125 94.617188 206.28125 91.578125 206.28125 Z M 84.371094 199.496094 L 90.308594 199.496094 L 90.308594 193.558594 L 84.371094 193.558594 Z M 91.578125 193.566406 Z M 91.578125 193.566406 " fill-opacity="1" fill-rule="nonzero"/><path fill="white" d="M 194.082031 206.28125 L 108.726562 206.28125 C 105.683594 206.28125 103.214844 203.8125 103.214844 200.773438 L 103.214844 192.289062 C 103.214844 189.25 105.683594 186.773438 108.726562 186.773438 L 194.082031 186.773438 C 197.121094 186.773438 199.597656 189.242188 199.597656 192.289062 L 199.597656 200.773438 C 199.597656 203.8125 197.121094 206.28125 194.082031 206.28125 Z M 109.992188 199.496094 L 192.804688 199.496094 L 192.804688 193.558594 L 109.992188 193.558594 Z M 194.082031 193.566406 Z M 194.082031 193.566406 " fill-opacity="1" fill-rule="nonzero"/><path fill="white" d="M 219.710938 206.28125 L 211.230469 206.28125 C 208.191406 206.28125 205.71875 203.8125 205.71875 200.773438 L 205.71875 192.289062 C 205.71875 189.25 208.191406 186.773438 211.230469 186.773438 L 219.710938 186.773438 C 222.75 186.773438 225.230469 189.242188 225.230469 192.289062 L 225.230469 200.773438 C 225.222656 203.8125 222.75 206.28125 219.710938 206.28125 Z M 212.5 199.496094 L 218.4375 199.496094 L 218.4375 193.558594 L 212.5 193.558594 Z M 219.710938 193.566406 Z M 219.710938 193.566406 " fill-opacity="1" fill-rule="nonzero"/><path fill="white" d="M 245.335938 206.28125 L 236.851562 206.28125 C 233.8125 206.28125 231.34375 203.8125 231.34375 200.773438 L 231.34375 192.289062 C 231.34375 189.25 233.8125 186.773438 236.851562 186.773438 L 245.335938 186.773438 C 248.375 186.773438 250.84375 189.242188 250.84375 192.289062 L 250.84375 200.773438 C 250.851562 203.8125 248.375 206.28125 245.335938 206.28125 Z M 238.128906 199.496094 L 244.066406 199.496094 L 244.066406 193.558594 L 238.128906 193.558594 Z M 245.335938 193.566406 Z M 245.335938 193.566406 " fill-opacity="1" fill-rule="nonzero"/><path fill="white" d="M 150.042969 107.6875 L 78.339844 107.6875 C 76.464844 107.6875 74.945312 106.167969 74.945312 104.292969 C 74.945312 102.421875 76.464844 100.902344 78.339844 100.902344 L 150.042969 100.902344 C 151.914062 100.902344 153.4375 102.421875 153.4375 104.292969 C 153.4375 106.167969 151.914062 107.6875 150.042969 107.6875 Z M 150.042969 107.6875 " fill-opacity="1" fill-rule="nonzero"/><path fill="white" d="M 187.023438 217.464844 L 115.328125 217.464844 C 113.453125 217.464844 111.933594 215.945312 111.933594 214.074219 C 111.933594 212.199219 113.453125 210.679688 115.328125 210.679688 L 187.023438 210.679688 C 188.898438 210.679688 190.417969 212.199219 190.417969 214.074219 C 190.417969 215.945312 188.898438 217.464844 187.023438 217.464844 Z M 187.023438 217.464844 " fill-opacity="1" fill-rule="nonzero"/><g clip-path="url(#54166ef998)"><path fill="white" d="M 296.621094 294.414062 C 279.855469 294.414062 266.214844 280.777344 266.214844 264.007812 L 266.214844 216.480469 C 266.214844 204.714844 275.789062 195.148438 287.546875 195.148438 C 290.722656 195.148438 293.308594 197.734375 293.308594 200.910156 L 293.308594 214.875 C 293.308594 216.746094 291.789062 218.265625 289.917969 218.265625 C 288.042969 218.265625 286.523438 216.746094 286.523438 214.875 L 286.523438 201.96875 C 278.976562 202.496094 273 208.808594 273 216.480469 L 273 264.007812 C 273 277.03125 283.59375 287.628906 296.621094 287.628906 C 309.644531 287.628906 320.234375 277.039062 320.234375 264.007812 L 320.234375 216.480469 C 320.234375 208.800781 314.257812 202.496094 306.710938 201.96875 L 306.710938 214.875 C 306.710938 216.746094 305.191406 218.265625 303.320312 218.265625 C 301.445312 218.265625 299.925781 216.746094 299.925781 214.875 L 299.925781 200.910156 C 299.925781 197.734375 302.511719 195.148438 305.6875 195.148438 C 317.453125 195.148438 327.019531 204.722656 327.019531 216.480469 L 327.019531 264.007812 C 327.019531 280.777344 313.382812 294.414062 296.621094 294.414062 Z M 296.621094 294.414062 " fill-opacity="1" fill-rule="nonzero"/></g><path fill="white" d="M 322.269531 275.851562 C 321.109375 275.851562 319.984375 275.257812 319.351562 274.1875 C 314.601562 266.199219 305.898438 261.242188 296.621094 261.242188 C 287.34375 261.242188 278.640625 266.199219 273.890625 274.1875 C 272.933594 275.800781 270.847656 276.332031 269.242188 275.367188 C 267.632812 274.410156 267.101562 272.328125 268.058594 270.71875 C 274.023438 260.691406 284.96875 254.453125 296.628906 254.453125 C 308.285156 254.453125 319.230469 260.683594 325.195312 270.71875 C 326.152344 272.328125 325.625 274.410156 324.015625 275.367188 C 323.457031 275.695312 322.863281 275.851562 322.269531 275.851562 Z M 322.269531 275.851562 " fill-opacity="1" fill-rule="nonzero"/><path fill="white" d="M 296.621094 244.390625 C 290.222656 244.390625 285.015625 239.1875 285.015625 232.789062 L 285.015625 219.601562 C 285.015625 213.203125 290.222656 208 296.621094 208 C 303.019531 208 308.226562 213.203125 308.226562 219.601562 L 308.226562 232.789062 C 308.226562 239.1875 303.019531 244.390625 296.621094 244.390625 Z M 296.621094 214.785156 C 293.960938 214.785156 291.804688 216.949219 291.804688 219.601562 L 291.804688 232.789062 C 291.804688 235.449219 293.96875 237.605469 296.621094 237.605469 C 299.273438 237.605469 301.4375 235.449219 301.4375 232.789062 L 301.4375 219.601562 C 301.4375 216.949219 299.273438 214.785156 296.621094 214.785156 Z M 296.621094 214.785156 " fill-opacity="1" fill-rule="nonzero"/><g clip-path="url(#b0c636c80c)"><path fill="white" d="M 325.726562 267.402344 L 323.628906 267.402344 C 321.753906 267.402344 320.234375 265.882812 320.234375 264.007812 C 320.234375 262.136719 321.753906 260.617188 323.628906 260.617188 L 325.726562 260.617188 C 328.4375 260.617188 330.652344 258.402344 330.652344 255.691406 L 330.652344 228.894531 C 330.652344 226.179688 328.4375 223.964844 325.726562 223.964844 L 323.628906 223.964844 C 321.753906 223.964844 320.234375 222.445312 320.234375 220.574219 C 320.234375 218.699219 321.753906 217.179688 323.628906 217.179688 L 325.726562 217.179688 C 332.183594 217.179688 337.4375 222.433594 337.4375 228.894531 L 337.4375 255.691406 C 337.4375 262.148438 332.183594 267.402344 325.726562 267.402344 Z M 325.726562 267.402344 " fill-opacity="1" fill-rule="nonzero"/></g><path fill="white" d="M 269.605469 267.402344 L 267.511719 267.402344 C 261.050781 267.402344 255.796875 262.148438 255.796875 255.691406 L 255.796875 228.894531 C 255.796875 222.433594 261.050781 217.179688 267.511719 217.179688 L 269.605469 217.179688 C 271.480469 217.179688 273 218.699219 273 220.574219 C 273 222.445312 271.480469 223.964844 269.605469 223.964844 L 267.511719 223.964844 C 264.796875 223.964844 262.582031 226.179688 262.582031 228.894531 L 262.582031 255.691406 C 262.582031 258.402344 264.796875 260.617188 267.511719 260.617188 L 269.605469 260.617188 C 271.480469 260.617188 273 262.136719 273 264.007812 C 273 265.882812 271.480469 267.402344 269.605469 267.402344 Z M 269.605469 267.402344 " fill-opacity="1" fill-rule="nonzero"/><path fill="white" d="M 296.621094 261.246094 C 294.75 261.246094 293.226562 259.726562 293.226562 257.855469 L 293.226562 241 C 293.226562 239.125 294.75 237.605469 296.621094 237.605469 C 298.492188 237.605469 300.015625 239.125 300.015625 241 L 300.015625 257.855469 C 300.015625 259.726562 298.492188 261.246094 296.621094 261.246094 Z M 296.621094 261.246094 " fill-opacity="1" fill-rule="nonzero"/></svg>