<svg xmlns="http://www.w3.org/2000/svg" xmlns:xlink="http://www.w3.org/1999/xlink" width="20" zoomAndPan="magnify" viewBox="0 0 375 374.999991" height="20" preserveAspectRatio="xMidYMid meet" version="1.0"><defs><clipPath id="5d11571b8f"><path d="M 37.5 250 L 337.5 250 L 337.5 337.5 L 37.5 337.5 Z M 37.5 250 " clip-rule="nonzero"/></clipPath><clipPath id="63b84a1292"><path d="M 124 37.5 L 251 37.5 L 251 280 L 124 280 Z M 124 37.5 " clip-rule="nonzero"/></clipPath></defs><g clip-path="url(#5d11571b8f)"><path fill="white" d="M 332.660156 250.402344 L 293.953125 250.402344 C 293.632812 250.402344 293.320312 250.433594 293.007812 250.496094 C 292.695312 250.558594 292.394531 250.648438 292.101562 250.773438 C 291.804688 250.894531 291.527344 251.042969 291.261719 251.21875 C 291 251.394531 290.753906 251.597656 290.53125 251.820312 C 290.304688 252.046875 290.105469 252.289062 289.929688 252.554688 C 289.75 252.816406 289.601562 253.097656 289.480469 253.390625 C 289.359375 253.683594 289.269531 253.984375 289.207031 254.296875 C 289.144531 254.609375 289.113281 254.925781 289.113281 255.242188 L 289.113281 289.113281 L 85.886719 289.113281 L 85.886719 255.242188 C 85.886719 254.925781 85.855469 254.609375 85.792969 254.296875 C 85.730469 253.984375 85.640625 253.683594 85.519531 253.390625 C 85.398438 253.097656 85.25 252.816406 85.070312 252.554688 C 84.894531 252.289062 84.695312 252.046875 84.46875 251.820312 C 84.246094 251.597656 84 251.394531 83.738281 251.21875 C 83.472656 251.042969 83.195312 250.894531 82.898438 250.773438 C 82.605469 250.648438 82.304688 250.558594 81.992188 250.496094 C 81.679688 250.433594 81.367188 250.402344 81.046875 250.402344 L 42.339844 250.402344 C 42.019531 250.402344 41.707031 250.433594 41.394531 250.496094 C 41.082031 250.558594 40.78125 250.648438 40.488281 250.773438 C 40.195312 250.894531 39.914062 251.042969 39.652344 251.21875 C 39.386719 251.394531 39.140625 251.597656 38.917969 251.820312 C 38.691406 252.046875 38.492188 252.289062 38.316406 252.554688 C 38.140625 252.816406 37.988281 253.097656 37.867188 253.390625 C 37.746094 253.683594 37.65625 253.984375 37.59375 254.296875 C 37.53125 254.609375 37.5 254.925781 37.5 255.242188 L 37.5 332.660156 C 37.5 332.980469 37.53125 333.292969 37.59375 333.605469 C 37.65625 333.917969 37.746094 334.21875 37.867188 334.511719 C 37.988281 334.804688 38.140625 335.085938 38.316406 335.347656 C 38.492188 335.613281 38.691406 335.859375 38.917969 336.082031 C 39.140625 336.308594 39.386719 336.507812 39.652344 336.683594 C 39.914062 336.859375 40.195312 337.011719 40.488281 337.132812 C 40.78125 337.253906 41.082031 337.34375 41.394531 337.40625 C 41.707031 337.46875 42.019531 337.5 42.339844 337.5 L 332.660156 337.5 C 332.980469 337.5 333.292969 337.46875 333.605469 337.40625 C 333.917969 337.34375 334.21875 337.253906 334.511719 337.132812 C 334.804688 337.011719 335.085938 336.859375 335.347656 336.683594 C 335.613281 336.507812 335.859375 336.308594 336.082031 336.082031 C 336.308594 335.859375 336.507812 335.613281 336.683594 335.347656 C 336.859375 335.085938 337.011719 334.804688 337.132812 334.511719 C 337.253906 334.21875 337.34375 333.917969 337.40625 333.605469 C 337.46875 333.292969 337.5 332.980469 337.5 332.660156 L 337.5 255.242188 C 337.5 254.925781 337.46875 254.609375 337.40625 254.296875 C 337.34375 253.984375 337.253906 253.683594 337.132812 253.390625 C 337.011719 253.097656 336.859375 252.816406 336.683594 252.554688 C 336.507812 252.289062 336.308594 252.046875 336.082031 251.820312 C 335.859375 251.597656 335.613281 251.394531 335.347656 251.21875 C 335.085938 251.042969 334.804688 250.894531 334.511719 250.773438 C 334.21875 250.648438 333.917969 250.558594 333.605469 250.496094 C 333.292969 250.433594 332.980469 250.402344 332.660156 250.402344 Z M 332.660156 250.402344 " fill-opacity="1" fill-rule="nonzero"/></g><g clip-path="url(#63b84a1292)"><path fill="white" d="M 183.628906 277.5 C 183.855469 277.800781 184.109375 278.070312 184.398438 278.3125 C 184.6875 278.550781 185 278.757812 185.335938 278.925781 C 185.671875 279.09375 186.023438 279.21875 186.386719 279.304688 C 186.753906 279.390625 187.125 279.433594 187.5 279.433594 C 187.875 279.433594 188.246094 279.390625 188.613281 279.304688 C 188.976562 279.21875 189.328125 279.09375 189.664062 278.925781 C 190 278.757812 190.3125 278.550781 190.601562 278.3125 C 190.890625 278.070312 191.144531 277.800781 191.371094 277.5 L 249.433594 200.082031 C 249.703125 199.71875 249.917969 199.328125 250.078125 198.90625 C 250.238281 198.484375 250.339844 198.050781 250.375 197.601562 C 250.414062 197.152344 250.390625 196.707031 250.304688 196.265625 C 250.21875 195.824219 250.074219 195.402344 249.871094 195 C 249.671875 194.601562 249.417969 194.238281 249.117188 193.90625 C 248.816406 193.578125 248.472656 193.296875 248.09375 193.0625 C 247.714844 192.828125 247.308594 192.648438 246.878906 192.523438 C 246.449219 192.402344 246.011719 192.339844 245.566406 192.339844 L 231.046875 192.339844 L 231.046875 42.339844 C 231.046875 42.019531 231.015625 41.707031 230.957031 41.394531 C 230.894531 41.082031 230.800781 40.78125 230.679688 40.488281 C 230.558594 40.195312 230.410156 39.914062 230.234375 39.652344 C 230.054688 39.386719 229.855469 39.140625 229.632812 38.917969 C 229.40625 38.691406 229.160156 38.492188 228.898438 38.316406 C 228.632812 38.140625 228.355469 37.988281 228.0625 37.867188 C 227.769531 37.746094 227.464844 37.65625 227.152344 37.59375 C 226.84375 37.53125 226.527344 37.5 226.210938 37.5 L 148.789062 37.5 C 148.472656 37.5 148.15625 37.53125 147.847656 37.59375 C 147.535156 37.65625 147.230469 37.746094 146.9375 37.867188 C 146.644531 37.988281 146.367188 38.140625 146.101562 38.316406 C 145.839844 38.492188 145.59375 38.691406 145.367188 38.917969 C 145.144531 39.140625 144.945312 39.386719 144.765625 39.652344 C 144.589844 39.914062 144.441406 40.195312 144.320312 40.488281 C 144.199219 40.78125 144.105469 41.082031 144.042969 41.394531 C 143.984375 41.707031 143.953125 42.019531 143.953125 42.339844 L 143.953125 192.339844 L 129.433594 192.339844 C 128.988281 192.339844 128.550781 192.402344 128.121094 192.523438 C 127.691406 192.648438 127.285156 192.828125 126.90625 193.0625 C 126.527344 193.296875 126.183594 193.578125 125.882812 193.90625 C 125.582031 194.238281 125.332031 194.601562 125.128906 195 C 124.925781 195.402344 124.78125 195.824219 124.695312 196.265625 C 124.609375 196.707031 124.585938 197.152344 124.625 197.601562 C 124.660156 198.050781 124.761719 198.484375 124.921875 198.90625 C 125.082031 199.328125 125.296875 199.71875 125.566406 200.082031 Z M 183.628906 277.5 " fill-opacity="1" fill-rule="nonzero"/></g></svg>