<svg xmlns="http://www.w3.org/2000/svg" xmlns:xlink="http://www.w3.org/1999/xlink" width="25" zoomAndPan="magnify" viewBox="0 0 375 374.999991" height="25" preserveAspectRatio="xMidYMid meet" version="1.0"><defs><clipPath id="aa8cd2aa52"><path d="M 237 328 L 247 328 L 247 337.5 L 237 337.5 Z M 237 328 " clip-rule="nonzero"/></clipPath><clipPath id="99f283f56e"><path d="M 49.875 37.5 L 180 37.5 L 180 166 L 49.875 166 Z M 49.875 37.5 " clip-rule="nonzero"/></clipPath><clipPath id="bd6760ad78"><path d="M 128 328 L 138 328 L 138 337.5 L 128 337.5 Z M 128 328 " clip-rule="nonzero"/></clipPath><clipPath id="2278818cfb"><path d="M 195 37.5 L 325.125 37.5 L 325.125 166 L 195 166 Z M 195 37.5 " clip-rule="nonzero"/></clipPath></defs><path fill="#ffffff" d="M 165.5 100.304688 L 99.347656 149.945312 L 77.386719 120.679688 L 143.542969 71.039062 L 165.5 100.304688 " fill-opacity="1" fill-rule="nonzero"/><path fill="#231f20" d="M 165.5 100.304688 L 165.007812 99.640625 L 99.515625 148.785156 L 78.546875 120.84375 L 143.378906 72.199219 L 164.839844 100.800781 L 165.5 100.304688 L 165.007812 99.640625 L 165.5 100.304688 L 166.164062 99.808594 L 144.207031 70.539062 C 144.074219 70.367188 143.878906 70.25 143.660156 70.21875 C 143.445312 70.1875 143.222656 70.246094 143.046875 70.375 L 76.890625 120.019531 C 76.523438 120.292969 76.449219 120.8125 76.722656 121.179688 L 98.6875 150.445312 C 98.816406 150.617188 99.019531 150.738281 99.230469 150.765625 C 99.449219 150.796875 99.671875 150.738281 99.847656 150.609375 L 166 100.96875 C 166.179688 100.835938 166.292969 100.640625 166.324219 100.421875 C 166.355469 100.203125 166.296875 99.980469 166.164062 99.808594 L 165.5 100.304688 " fill-opacity="1" fill-rule="nonzero"/><path fill="#231f20" d="M 259.390625 296.605469 C 247.878906 305.246094 231.546875 302.914062 222.910156 291.40625 C 214.273438 279.894531 216.597656 263.5625 228.113281 254.921875 C 239.625 246.285156 255.957031 248.613281 264.59375 260.125 C 273.230469 271.632812 270.902344 287.96875 259.390625 296.605469 Z M 252.597656 224.128906 L 247.277344 228.171875 C 237.824219 233.332031 229.632812 236.730469 210.996094 211.894531 L 143.941406 122.53125 L 126.71875 135.453125 L 193.777344 224.816406 C 212.414062 249.652344 206.859375 256.570312 199.261719 264.199219 L 193.894531 268.179688 C 190.257812 270.910156 190.042969 275.5625 192.777344 279.199219 L 233.59375 333.597656 L 304.3125 280.53125 L 263.496094 226.132812 C 260.761719 222.492188 256.238281 221.398438 252.597656 224.128906 " fill-opacity="1" fill-rule="nonzero"/><path fill="#231f20" d="M 259.390625 296.605469 L 258.894531 295.941406 C 254.351562 299.351562 249.042969 300.996094 243.769531 300.996094 C 236.097656 300.992188 228.53125 297.515625 223.570312 290.90625 C 220.164062 286.367188 218.523438 281.054688 218.523438 275.785156 C 218.523438 268.113281 222 260.542969 228.609375 255.585938 C 233.152344 252.175781 238.460938 250.535156 243.730469 250.535156 C 251.402344 250.539062 258.972656 254.015625 263.929688 260.625 C 267.335938 265.164062 268.980469 270.476562 268.980469 275.746094 C 268.980469 283.417969 265.5 290.984375 258.894531 295.941406 L 259.390625 296.605469 L 259.890625 297.269531 C 266.925781 291.988281 270.640625 283.914062 270.640625 275.746094 C 270.640625 270.132812 268.886719 264.464844 265.253906 259.628906 C 259.972656 252.59375 251.898438 248.878906 243.730469 248.878906 C 238.117188 248.878906 232.449219 250.632812 227.613281 254.261719 C 220.578125 259.542969 216.863281 267.617188 216.863281 275.785156 C 216.863281 281.398438 218.617188 287.066406 222.246094 291.90625 C 227.527344 298.9375 235.601562 302.652344 243.769531 302.652344 C 249.386719 302.652344 255.054688 300.898438 259.890625 297.269531 Z M 252.597656 224.128906 L 252.09375 223.472656 L 246.777344 227.511719 L 247.277344 228.171875 L 246.878906 227.445312 C 245.09375 228.417969 243.371094 229.316406 241.652344 229.964844 C 239.933594 230.613281 238.21875 231.011719 236.40625 231.011719 C 233.457031 231.007812 230.1875 229.964844 226.164062 226.976562 C 222.144531 223.988281 217.410156 219.058594 211.660156 211.398438 L 144.605469 122.035156 C 144.472656 121.863281 144.273438 121.742188 144.058594 121.714844 C 143.84375 121.679688 143.617188 121.738281 143.445312 121.871094 L 126.222656 134.792969 C 125.855469 135.070312 125.78125 135.585938 126.054688 135.953125 L 193.113281 225.3125 C 197.746094 231.488281 200.859375 236.527344 202.804688 240.710938 C 204.753906 244.894531 205.53125 248.203125 205.53125 250.941406 C 205.527344 253.679688 204.765625 255.863281 203.53125 257.878906 C 202.296875 259.886719 200.570312 261.710938 198.675781 263.613281 L 199.261719 264.199219 L 198.769531 263.53125 L 193.402344 267.511719 L 193.398438 267.515625 C 191.1875 269.164062 190.082031 271.539062 190.09375 273.96875 C 190.09375 275.9375 190.792969 277.941406 192.113281 279.699219 L 232.929688 334.09375 C 233.0625 334.269531 233.257812 334.386719 233.476562 334.417969 C 233.691406 334.449219 233.917969 334.390625 234.089844 334.261719 L 304.8125 281.195312 C 304.984375 281.0625 305.101562 280.867188 305.132812 280.648438 C 305.164062 280.425781 305.109375 280.210938 304.976562 280.03125 L 264.15625 225.636719 C 262.335938 223.207031 259.722656 221.773438 256.996094 221.773438 C 255.320312 221.773438 253.621094 222.324219 252.097656 223.46875 L 252.09375 223.472656 L 252.597656 224.128906 L 253.09375 224.792969 C 254.347656 223.851562 255.679688 223.433594 256.996094 223.433594 C 259.132812 223.433594 261.273438 224.554688 262.832031 226.632812 L 303.152344 280.367188 L 233.757812 332.433594 L 193.4375 278.703125 C 192.308594 277.203125 191.75 275.542969 191.75 273.96875 C 191.757812 272.027344 192.582031 270.210938 194.394531 268.84375 L 194.390625 268.84375 L 199.757812 264.863281 L 199.851562 264.785156 C 201.761719 262.863281 203.582031 260.960938 204.945312 258.746094 C 206.308594 256.535156 207.191406 253.996094 207.1875 250.941406 C 207.183594 247.886719 206.324219 244.339844 204.308594 240.011719 C 202.292969 235.675781 199.117188 230.554688 194.441406 224.320312 L 127.878906 135.621094 L 143.773438 123.695312 L 210.335938 212.390625 C 216.144531 220.128906 220.957031 225.171875 225.171875 228.304688 C 229.382812 231.441406 233.042969 232.671875 236.40625 232.667969 C 238.464844 232.667969 240.390625 232.210938 242.238281 231.515625 C 244.089844 230.820312 245.871094 229.882812 247.671875 228.898438 L 247.78125 228.832031 L 253.097656 224.789062 L 253.09375 224.792969 L 252.597656 224.128906 " fill-opacity="1" fill-rule="nonzero"/><path fill="#ffffff" d="M 248.183594 220.050781 L 244.476562 222.828125 L 246.984375 226.171875 L 250.6875 223.390625 L 248.183594 220.050781 " fill-opacity="1" fill-rule="nonzero"/><path fill="#231f20" d="M 248.183594 220.050781 L 247.6875 219.386719 L 243.976562 222.167969 C 243.613281 222.441406 243.539062 222.960938 243.8125 223.328125 L 246.320312 226.671875 C 246.449219 226.84375 246.648438 226.960938 246.863281 226.992188 C 247.082031 227.023438 247.304688 226.964844 247.480469 226.835938 L 251.1875 224.054688 C 251.363281 223.925781 251.480469 223.722656 251.507812 223.507812 C 251.539062 223.292969 251.480469 223.070312 251.351562 222.894531 L 248.847656 219.550781 C 248.714844 219.378906 248.515625 219.261719 248.296875 219.230469 C 248.085938 219.199219 247.859375 219.257812 247.6875 219.386719 L 248.183594 220.050781 L 247.519531 220.546875 L 249.527344 223.226562 L 247.148438 225.011719 L 245.636719 222.996094 L 248.679688 220.714844 L 248.183594 220.050781 L 247.519531 220.546875 L 248.183594 220.050781 " fill-opacity="1" fill-rule="nonzero"/><path fill="#ffffff" d="M 250.496094 221.492188 L 245.214844 225.457031 L 247.722656 228.796875 L 253.003906 224.832031 L 250.496094 221.492188 " fill-opacity="1" fill-rule="nonzero"/><path fill="#231f20" d="M 250.496094 221.492188 L 250 220.828125 L 244.714844 224.792969 C 244.351562 225.066406 244.277344 225.585938 244.550781 225.953125 L 247.058594 229.292969 C 247.332031 229.660156 247.851562 229.730469 248.21875 229.460938 L 253.5 225.496094 C 253.675781 225.363281 253.792969 225.167969 253.824219 224.949219 C 253.855469 224.730469 253.796875 224.511719 253.664062 224.335938 L 251.15625 220.992188 C 251.027344 220.820312 250.828125 220.703125 250.613281 220.667969 C 250.398438 220.640625 250.171875 220.699219 250 220.828125 L 250.496094 221.492188 L 249.832031 221.992188 L 251.839844 224.667969 L 247.886719 227.636719 L 246.375 225.621094 L 250.992188 222.15625 L 250.496094 221.492188 L 249.832031 221.992188 L 250.496094 221.492188 " fill-opacity="1" fill-rule="nonzero"/><path fill="#ffffff" d="M 194.253906 260.515625 L 190.546875 263.296875 L 193.054688 266.640625 L 196.761719 263.859375 L 194.253906 260.515625 " fill-opacity="1" fill-rule="nonzero"/><path fill="#231f20" d="M 194.253906 260.515625 L 193.753906 259.855469 L 190.046875 262.636719 C 189.871094 262.765625 189.753906 262.964844 189.722656 263.183594 C 189.695312 263.398438 189.753906 263.621094 189.882812 263.796875 L 192.390625 267.140625 C 192.519531 267.3125 192.722656 267.429688 192.9375 267.460938 C 193.152344 267.492188 193.375 267.433594 193.550781 267.304688 L 197.253906 264.523438 C 197.625 264.246094 197.695312 263.726562 197.421875 263.359375 L 194.917969 260.019531 C 194.785156 259.847656 194.585938 259.730469 194.371094 259.699219 C 194.152344 259.664062 193.929688 259.722656 193.753906 259.855469 L 194.253906 260.515625 L 193.589844 261.015625 L 195.597656 263.695312 L 193.21875 265.476562 L 191.707031 263.46875 L 194.753906 261.179688 L 194.253906 260.515625 L 193.589844 261.015625 L 194.253906 260.515625 " fill-opacity="1" fill-rule="nonzero"/><path fill="#ffffff" d="M 196.566406 261.960938 L 191.285156 265.921875 L 193.789062 269.265625 L 199.074219 265.300781 L 196.566406 261.960938 " fill-opacity="1" fill-rule="nonzero"/><path fill="#231f20" d="M 196.566406 261.960938 L 196.066406 261.296875 L 190.789062 265.261719 C 190.613281 265.390625 190.492188 265.589844 190.464844 265.804688 C 190.433594 266.023438 190.492188 266.246094 190.621094 266.421875 L 193.128906 269.761719 C 193.40625 270.128906 193.921875 270.203125 194.289062 269.929688 L 199.570312 265.964844 C 199.75 265.832031 199.863281 265.636719 199.894531 265.417969 C 199.925781 265.199219 199.871094 264.980469 199.738281 264.804688 L 197.230469 261.460938 C 196.953125 261.097656 196.433594 261.023438 196.066406 261.296875 L 196.566406 261.960938 L 195.902344 262.460938 L 197.914062 265.136719 L 193.957031 268.101562 L 192.445312 266.089844 L 197.066406 262.625 L 196.566406 261.960938 L 195.902344 262.460938 L 196.566406 261.960938 " fill-opacity="1" fill-rule="nonzero"/><path fill="#ffffff" d="M 240.722656 336.648438 L 245.773438 332.859375 L 243.261719 329.519531 L 238.21875 333.304688 L 240.722656 336.648438 " fill-opacity="1" fill-rule="nonzero"/><g clip-path="url(#aa8cd2aa52)"><path fill="#231f20" d="M 240.722656 336.648438 L 241.222656 337.3125 L 246.269531 333.523438 C 246.445312 333.390625 246.5625 333.195312 246.59375 332.976562 C 246.625 332.757812 246.570312 332.539062 246.4375 332.363281 L 243.925781 329.023438 C 243.652344 328.65625 243.132812 328.582031 242.765625 328.855469 L 237.71875 332.644531 C 237.351562 332.917969 237.277344 333.4375 237.554688 333.804688 L 240.058594 337.148438 C 240.191406 337.324219 240.386719 337.4375 240.605469 337.472656 C 240.828125 337.5 241.042969 337.445312 241.222656 337.3125 L 240.722656 336.648438 L 241.386719 336.152344 L 239.375 333.472656 L 243.097656 330.679688 L 244.609375 332.695312 L 240.226562 335.988281 L 240.722656 336.648438 L 241.386719 336.152344 L 240.722656 336.648438 " fill-opacity="1" fill-rule="nonzero"/></g><path fill="#ffffff" d="M 238.121094 335.421875 L 245.320312 330.023438 L 242.808594 326.679688 L 235.621094 332.078125 L 238.121094 335.421875 " fill-opacity="1" fill-rule="nonzero"/><path fill="#231f20" d="M 238.121094 335.421875 L 238.621094 336.085938 L 245.816406 330.6875 C 245.992188 330.554688 246.109375 330.359375 246.136719 330.140625 C 246.171875 329.917969 246.117188 329.703125 245.984375 329.523438 L 243.472656 326.183594 C 243.199219 325.820312 242.679688 325.746094 242.3125 326.019531 L 235.121094 331.417969 C 234.753906 331.695312 234.679688 332.210938 234.957031 332.578125 L 237.460938 335.917969 C 237.589844 336.089844 237.792969 336.210938 238.007812 336.242188 C 238.222656 336.273438 238.445312 336.214844 238.621094 336.085938 L 238.121094 335.421875 L 238.785156 334.921875 L 236.777344 332.246094 L 242.644531 327.84375 L 244.15625 329.855469 L 237.628906 334.757812 L 238.121094 335.421875 L 238.785156 334.921875 L 238.121094 335.421875 " fill-opacity="1" fill-rule="nonzero"/><path fill="#ffffff" d="M 299.535156 292.515625 L 304.585938 288.726562 L 302.078125 285.386719 L 297.027344 289.175781 L 299.535156 292.515625 " fill-opacity="1" fill-rule="nonzero"/><path fill="#231f20" d="M 299.535156 292.515625 L 300.035156 293.179688 L 305.078125 289.390625 C 305.445312 289.117188 305.519531 288.597656 305.246094 288.230469 L 302.742188 284.890625 C 302.609375 284.710938 302.414062 284.59375 302.195312 284.566406 C 301.972656 284.535156 301.757812 284.589844 301.578125 284.726562 L 296.53125 288.515625 C 296.355469 288.644531 296.238281 288.839844 296.207031 289.058594 C 296.175781 289.273438 296.230469 289.5 296.363281 289.671875 L 298.871094 293.015625 C 299.148438 293.382812 299.667969 293.457031 300.035156 293.179688 L 299.535156 292.515625 L 300.199219 292.019531 L 298.1875 289.339844 L 301.914062 286.546875 L 303.421875 288.5625 L 299.035156 291.851562 L 299.535156 292.515625 L 300.199219 292.019531 L 299.535156 292.515625 " fill-opacity="1" fill-rule="nonzero"/><path fill="#ffffff" d="M 296.9375 291.289062 L 304.128906 285.890625 L 301.625 282.546875 L 294.429688 287.945312 L 296.9375 291.289062 " fill-opacity="1" fill-rule="nonzero"/><path fill="#231f20" d="M 296.9375 291.289062 L 297.433594 291.953125 L 304.628906 286.554688 C 304.804688 286.421875 304.921875 286.222656 304.953125 286.007812 C 304.984375 285.789062 304.925781 285.566406 304.792969 285.390625 L 302.289062 282.050781 C 302.15625 281.875 301.957031 281.757812 301.742188 281.730469 C 301.523438 281.695312 301.300781 281.753906 301.125 281.882812 L 293.933594 287.285156 C 293.566406 287.558594 293.492188 288.078125 293.765625 288.445312 L 296.273438 291.789062 C 296.550781 292.152344 297.066406 292.226562 297.433594 291.953125 L 296.9375 291.289062 L 297.597656 290.789062 L 295.589844 288.113281 L 301.460938 283.707031 L 302.972656 285.726562 L 296.4375 290.625 L 296.9375 291.289062 L 297.597656 290.789062 L 296.9375 291.289062 " fill-opacity="1" fill-rule="nonzero"/><path fill="#ffffff" d="M 259.390625 296.605469 C 247.878906 305.246094 231.546875 302.914062 222.910156 291.40625 C 214.273438 279.894531 216.597656 263.5625 228.113281 254.921875 C 239.625 246.285156 255.957031 248.613281 264.59375 260.125 C 273.230469 271.632812 270.902344 287.96875 259.390625 296.605469 Z M 270.011719 251.132812 L 267.011719 253.386719 C 255.871094 241.777344 237.570312 240.042969 224.375 249.941406 C 211.179688 259.84375 207.734375 277.902344 215.765625 291.84375 L 212.996094 293.921875 L 217.675781 300.160156 L 220.433594 298.089844 C 226.902344 304.863281 235.800781 308.285156 244.714844 308.027344 L 253.898438 320.261719 C 254.78125 321.441406 256.449219 321.679688 257.628906 320.796875 L 283.109375 301.671875 C 284.285156 300.792969 284.523438 299.121094 283.640625 297.941406 L 274.460938 285.707031 C 277.199219 277.21875 276.394531 267.71875 271.703125 259.617188 L 274.695312 257.371094 L 270.011719 251.132812 " fill-opacity="1" fill-rule="nonzero"/><path fill="#231f20" d="M 259.390625 296.605469 L 258.894531 295.941406 C 254.351562 299.351562 249.042969 300.996094 243.769531 300.996094 C 236.097656 300.992188 228.53125 297.515625 223.570312 290.90625 C 220.164062 286.367188 218.523438 281.054688 218.523438 275.785156 C 218.523438 268.113281 222 260.542969 228.609375 255.585938 C 233.152344 252.175781 238.460938 250.535156 243.730469 250.535156 C 251.402344 250.539062 258.972656 254.015625 263.929688 260.625 C 267.335938 265.164062 268.980469 270.476562 268.980469 275.746094 C 268.980469 283.417969 265.5 290.984375 258.894531 295.941406 L 259.390625 296.605469 L 259.890625 297.269531 C 266.925781 291.988281 270.640625 283.914062 270.640625 275.746094 C 270.640625 270.132812 268.886719 264.464844 265.253906 259.628906 C 259.972656 252.59375 251.898438 248.878906 243.730469 248.878906 C 238.117188 248.878906 232.449219 250.632812 227.613281 254.261719 C 220.578125 259.542969 216.863281 267.617188 216.863281 275.785156 C 216.863281 281.398438 218.617188 287.066406 222.246094 291.90625 C 227.527344 298.9375 235.601562 302.652344 243.769531 302.652344 C 249.386719 302.652344 255.054688 300.898438 259.890625 297.269531 Z M 270.011719 251.132812 L 269.515625 250.472656 L 266.511719 252.726562 L 267.011719 253.386719 L 267.609375 252.8125 C 261.210938 246.144531 252.507812 242.652344 243.714844 242.652344 C 236.804688 242.652344 229.828125 244.8125 223.878906 249.28125 C 215.214844 255.78125 210.640625 265.722656 210.644531 275.777344 C 210.644531 281.425781 212.085938 287.113281 215.046875 292.257812 L 215.765625 291.84375 L 215.269531 291.179688 L 212.496094 293.257812 C 212.320312 293.390625 212.203125 293.589844 212.171875 293.804688 C 212.140625 294.019531 212.199219 294.246094 212.332031 294.421875 L 217.015625 300.660156 C 217.289062 301.023438 217.808594 301.097656 218.171875 300.824219 L 220.933594 298.753906 L 220.433594 298.089844 L 219.835938 298.664062 C 226.238281 305.363281 234.957031 308.871094 243.773438 308.867188 C 244.09375 308.867188 244.414062 308.863281 244.738281 308.855469 L 244.714844 308.027344 L 244.050781 308.523438 L 253.234375 320.761719 C 253.921875 321.671875 254.972656 322.160156 256.03125 322.160156 C 256.761719 322.160156 257.5 321.929688 258.125 321.460938 L 283.605469 302.335938 C 284.519531 301.652344 285.003906 300.601562 285.003906 299.542969 C 285.003906 298.8125 284.773438 298.070312 284.304688 297.445312 L 275.125 285.210938 L 274.460938 285.707031 L 275.25 285.960938 C 276.316406 282.660156 276.859375 279.203125 276.859375 275.734375 C 276.859375 270.066406 275.410156 264.359375 272.417969 259.203125 L 271.703125 259.617188 L 272.203125 260.28125 L 275.191406 258.035156 C 275.371094 257.902344 275.484375 257.707031 275.515625 257.492188 C 275.546875 257.273438 275.492188 257.050781 275.359375 256.875 L 270.675781 250.640625 C 270.402344 250.273438 269.882812 250.199219 269.515625 250.472656 L 270.011719 251.132812 L 269.347656 251.632812 L 273.53125 257.207031 L 271.203125 258.957031 C 270.867188 259.207031 270.773438 259.667969 270.988281 260.035156 C 273.824219 264.929688 275.199219 270.347656 275.199219 275.734375 C 275.199219 279.03125 274.6875 282.3125 273.671875 285.453125 C 273.589844 285.710938 273.636719 285.992188 273.796875 286.203125 L 282.976562 298.441406 C 283.226562 298.773438 283.34375 299.15625 283.347656 299.542969 C 283.34375 300.101562 283.09375 300.648438 282.609375 301.011719 L 257.128906 320.132812 C 256.796875 320.382812 256.414062 320.496094 256.03125 320.5 C 255.46875 320.496094 254.925781 320.25 254.5625 319.765625 L 245.378906 307.53125 C 245.214844 307.3125 244.960938 307.191406 244.691406 307.199219 C 244.386719 307.207031 244.078125 307.210938 243.773438 307.214844 C 235.394531 307.210938 227.113281 303.878906 221.035156 297.515625 C 220.746094 297.210938 220.273438 297.171875 219.9375 297.425781 L 217.839844 299 L 214.15625 294.085938 L 216.261719 292.507812 C 216.597656 292.253906 216.695312 291.792969 216.484375 291.429688 C 213.667969 286.542969 212.300781 281.144531 212.300781 275.777344 C 212.300781 266.21875 216.636719 256.785156 224.875 250.605469 C 230.53125 246.359375 237.148438 244.3125 243.714844 244.3125 C 252.070312 244.3125 260.335938 247.628906 266.410156 253.960938 C 266.703125 254.261719 267.171875 254.300781 267.507812 254.050781 L 270.511719 251.796875 L 270.011719 251.132812 L 269.347656 251.632812 L 270.011719 251.132812 " fill-opacity="1" fill-rule="nonzero"/><path fill="#ffffff" d="M 222.925781 291.394531 C 222.820312 291.253906 222.726562 291.109375 222.625 290.96875 L 215.0625 296.644531 L 215.640625 297.414062 L 223.199219 291.738281 C 223.109375 291.625 223.015625 291.511719 222.925781 291.394531 " fill-opacity="1" fill-rule="nonzero"/><path fill="#231f20" d="M 222.925781 291.394531 L 223.589844 290.894531 C 223.5 290.777344 223.40625 290.640625 223.289062 290.480469 C 223.160156 290.300781 222.964844 290.183594 222.742188 290.148438 C 222.527344 290.113281 222.300781 290.171875 222.125 290.304688 L 214.5625 295.980469 C 214.195312 296.253906 214.121094 296.773438 214.398438 297.136719 L 214.976562 297.914062 C 215.253906 298.277344 215.769531 298.351562 216.136719 298.078125 L 223.699219 292.402344 C 223.878906 292.265625 223.996094 292.066406 224.023438 291.84375 C 224.050781 291.621094 223.988281 291.394531 223.847656 291.222656 C 223.75 291.101562 223.664062 290.996094 223.589844 290.894531 L 222.261719 291.890625 C 222.367188 292.03125 222.46875 292.152344 222.554688 292.261719 L 223.199219 291.738281 L 222.703125 291.078125 L 215.804688 296.253906 L 215.722656 296.144531 L 215.0625 296.644531 L 215.558594 297.304688 L 223.117188 291.632812 L 222.625 290.96875 L 221.949219 291.453125 C 222.042969 291.582031 222.140625 291.726562 222.261719 291.890625 L 222.925781 291.394531 " fill-opacity="1" fill-rule="nonzero"/><path fill="#ffffff" d="M 138.339844 133.003906 C 136.910156 134.074219 135.414062 134.976562 133.863281 135.71875 L 214.210938 242.792969 C 215.976562 245.148438 219.320312 245.621094 221.675781 243.855469 C 224.035156 242.089844 224.511719 238.742188 222.742188 236.386719 L 142.367188 129.277344 C 141.179688 130.628906 139.835938 131.882812 138.339844 133.003906 " fill-opacity="1" fill-rule="nonzero"/><path fill="#231f20" d="M 138.339844 133.003906 L 137.839844 132.34375 C 136.457031 133.378906 135.003906 134.253906 133.503906 134.976562 C 133.28125 135.082031 133.121094 135.28125 133.058594 135.523438 C 133 135.765625 133.050781 136.015625 133.199219 136.21875 L 213.550781 243.289062 C 214.757812 244.902344 216.609375 245.753906 218.480469 245.753906 C 219.765625 245.753906 221.070312 245.351562 222.175781 244.519531 C 223.789062 243.308594 224.640625 241.457031 224.640625 239.585938 C 224.640625 238.300781 224.234375 236.996094 223.40625 235.890625 L 143.03125 128.78125 C 142.882812 128.582031 142.652344 128.460938 142.402344 128.449219 C 142.152344 128.441406 141.914062 128.542969 141.746094 128.730469 C 140.59375 130.039062 139.292969 131.253906 137.839844 132.34375 L 138.339844 133.003906 L 138.835938 133.667969 C 140.378906 132.511719 141.761719 131.21875 142.992188 129.828125 L 142.367188 129.277344 L 141.707031 129.777344 L 222.078125 236.886719 C 222.691406 237.699219 222.984375 238.644531 222.984375 239.585938 C 222.980469 240.960938 222.359375 242.304688 221.183594 243.195312 C 220.367188 243.800781 219.421875 244.09375 218.480469 244.09375 C 217.109375 244.09375 215.761719 243.476562 214.875 242.292969 L 134.527344 135.222656 L 133.863281 135.71875 L 134.222656 136.46875 C 135.820312 135.699219 137.367188 134.769531 138.835938 133.667969 L 138.339844 133.003906 " fill-opacity="1" fill-rule="nonzero"/><path fill="#231f20" d="M 131.773438 124.25 C 124.8125 129.476562 114.9375 128.066406 109.714844 121.105469 C 104.496094 114.148438 105.902344 104.273438 112.859375 99.054688 C 119.824219 93.828125 129.695312 95.238281 134.914062 102.199219 C 140.136719 109.15625 138.730469 119.03125 131.773438 124.25 Z M 105.949219 89.839844 C 93.902344 98.878906 91.460938 115.972656 100.5 128.019531 C 109.542969 140.066406 126.636719 142.503906 138.683594 133.464844 C 150.730469 124.421875 153.167969 107.332031 144.128906 95.285156 C 135.089844 83.234375 117.996094 80.800781 105.949219 89.839844 " fill-opacity="1" fill-rule="nonzero"/><path fill="#231f20" d="M 131.773438 124.25 L 131.273438 123.589844 C 128.585938 125.605469 125.449219 126.578125 122.328125 126.578125 C 117.789062 126.578125 113.3125 124.515625 110.378906 120.609375 C 108.359375 117.921875 107.390625 114.78125 107.390625 111.664062 C 107.394531 107.125 109.449219 102.648438 113.359375 99.714844 C 116.046875 97.699219 119.183594 96.726562 122.304688 96.726562 C 126.84375 96.726562 131.320312 98.789062 134.25 102.695312 C 136.269531 105.382812 137.238281 108.523438 137.238281 111.640625 C 137.238281 116.179688 135.183594 120.65625 131.273438 123.589844 L 131.773438 124.25 L 132.269531 124.914062 C 136.609375 121.660156 138.902344 116.679688 138.898438 111.640625 C 138.902344 108.179688 137.816406 104.679688 135.578125 101.699219 C 132.324219 97.359375 127.339844 95.066406 122.304688 95.070312 C 118.839844 95.070312 115.34375 96.152344 112.363281 98.390625 C 108.019531 101.644531 105.730469 106.628906 105.730469 111.664062 C 105.730469 115.125 106.816406 118.625 109.050781 121.601562 C 112.308594 125.945312 117.292969 128.238281 122.328125 128.234375 C 125.789062 128.234375 129.289062 127.152344 132.269531 124.914062 Z M 105.949219 89.839844 L 105.449219 89.175781 C 98.09375 94.695312 94.210938 103.136719 94.210938 111.671875 C 94.210938 117.542969 96.042969 123.464844 99.839844 128.515625 C 105.359375 135.871094 113.796875 139.753906 122.339844 139.753906 C 128.203125 139.753906 134.125 137.917969 139.183594 134.128906 C 146.535156 128.609375 150.417969 120.167969 150.417969 111.632812 C 150.417969 105.761719 148.582031 99.839844 144.792969 94.789062 C 139.273438 87.429688 130.832031 83.550781 122.292969 83.550781 C 116.425781 83.550781 110.5 85.382812 105.449219 89.175781 L 106.445312 90.503906 C 111.203125 86.929688 116.773438 85.210938 122.292969 85.207031 C 130.335938 85.210938 138.269531 88.859375 143.464844 95.78125 C 147.035156 100.542969 148.757812 106.105469 148.757812 111.632812 C 148.757812 119.667969 145.113281 127.605469 138.183594 132.800781 C 133.425781 136.375 127.859375 138.09375 122.339844 138.097656 C 114.296875 138.09375 106.363281 134.445312 101.164062 127.523438 C 97.59375 122.761719 95.875 117.199219 95.871094 111.671875 C 95.875 103.636719 99.519531 95.699219 106.445312 90.503906 L 105.949219 89.839844 " fill-opacity="1" fill-rule="nonzero"/><path fill="#ffffff" d="M 131.773438 124.25 C 124.8125 129.476562 114.9375 128.066406 109.714844 121.105469 C 104.496094 114.148438 105.902344 104.273438 112.859375 99.054688 C 119.824219 93.828125 129.695312 95.238281 134.914062 102.199219 C 140.136719 109.15625 138.730469 119.03125 131.773438 124.25 " fill-opacity="1" fill-rule="nonzero"/><path fill="#231f20" d="M 131.773438 124.25 L 131.273438 123.589844 C 128.585938 125.605469 125.449219 126.578125 122.328125 126.578125 C 117.789062 126.578125 113.3125 124.515625 110.378906 120.609375 C 108.359375 117.921875 107.390625 114.78125 107.390625 111.664062 C 107.394531 107.125 109.449219 102.648438 113.359375 99.714844 C 116.046875 97.699219 119.183594 96.726562 122.304688 96.726562 C 126.84375 96.726562 131.320312 98.789062 134.25 102.695312 C 136.269531 105.382812 137.238281 108.523438 137.238281 111.640625 C 137.238281 116.179688 135.183594 120.65625 131.273438 123.589844 L 131.773438 124.25 L 132.269531 124.914062 C 136.609375 121.660156 138.902344 116.679688 138.898438 111.640625 C 138.902344 108.179688 137.816406 104.679688 135.578125 101.699219 C 132.324219 97.359375 127.339844 95.066406 122.304688 95.070312 C 118.839844 95.070312 115.34375 96.152344 112.363281 98.390625 C 108.019531 101.644531 105.730469 106.628906 105.730469 111.664062 C 105.730469 115.125 106.816406 118.625 109.050781 121.601562 C 112.308594 125.945312 117.292969 128.238281 122.328125 128.234375 C 125.789062 128.234375 129.289062 127.152344 132.269531 124.914062 L 131.773438 124.25 " fill-opacity="1" fill-rule="nonzero"/><path fill="#ffffff" d="M 128.089844 119.347656 C 123.839844 122.539062 117.808594 121.675781 114.617188 117.429688 C 111.429688 113.175781 112.289062 107.144531 116.542969 103.957031 C 120.789062 100.765625 126.824219 101.625 130.015625 105.875 C 133.203125 110.125 132.34375 116.160156 128.089844 119.347656 " fill-opacity="1" fill-rule="nonzero"/><path fill="#231f20" d="M 128.089844 119.347656 L 127.59375 118.683594 C 126.007812 119.875 124.160156 120.445312 122.324219 120.445312 C 119.648438 120.445312 117.007812 119.234375 115.28125 116.929688 C 114.09375 115.347656 113.519531 113.496094 113.519531 111.660156 C 113.519531 108.984375 114.734375 106.347656 117.039062 104.621094 C 118.625 103.429688 120.472656 102.859375 122.308594 102.859375 C 124.984375 102.859375 127.621094 104.070312 129.351562 106.371094 C 130.539062 107.957031 131.109375 109.804688 131.113281 111.644531 C 131.109375 114.320312 129.898438 116.957031 127.59375 118.683594 L 128.089844 119.347656 L 128.589844 120.011719 C 131.324219 117.960938 132.769531 114.816406 132.769531 111.644531 C 132.769531 109.460938 132.085938 107.257812 130.675781 105.378906 C 128.625 102.640625 125.484375 101.195312 122.308594 101.199219 C 120.128906 101.195312 117.921875 101.882812 116.042969 103.292969 C 113.304688 105.34375 111.863281 108.488281 111.863281 111.660156 C 111.863281 113.84375 112.546875 116.046875 113.957031 117.925781 C 116.007812 120.660156 119.148438 122.105469 122.324219 122.105469 C 124.503906 122.105469 126.710938 121.421875 128.589844 120.011719 L 128.089844 119.347656 " fill-opacity="1" fill-rule="nonzero"/><path fill="#ffffff" d="M 110.847656 96.371094 C 102.425781 102.691406 100.714844 114.691406 107.035156 123.113281 C 113.363281 131.539062 125.355469 133.25 133.785156 126.929688 C 142.207031 120.609375 143.914062 108.609375 137.59375 100.1875 C 131.269531 91.761719 119.273438 90.050781 110.847656 96.371094 Z M 135.386719 129.070312 C 125.78125 136.28125 112.101562 134.332031 104.894531 124.726562 C 97.6875 115.121094 99.640625 101.441406 109.246094 94.230469 C 118.851562 87.023438 132.527344 88.972656 139.734375 98.578125 C 146.945312 108.1875 144.996094 121.863281 135.386719 129.070312 " fill-opacity="1" fill-rule="nonzero"/><path fill="#231f20" d="M 110.847656 96.371094 L 110.351562 95.710938 C 105.140625 99.621094 102.390625 105.613281 102.390625 111.671875 C 102.390625 115.835938 103.6875 120.035156 106.371094 123.609375 C 110.285156 128.824219 116.28125 131.574219 122.34375 131.574219 C 126.5 131.574219 130.703125 130.277344 134.277344 127.59375 C 139.488281 123.683594 142.238281 117.6875 142.238281 111.628906 C 142.238281 107.464844 140.941406 103.265625 138.257812 99.6875 C 134.347656 94.476562 128.347656 91.726562 122.289062 91.726562 C 118.128906 91.726562 113.929688 93.027344 110.351562 95.710938 L 110.847656 96.371094 L 111.347656 97.035156 C 114.632812 94.574219 118.472656 93.386719 122.289062 93.386719 C 127.855469 93.386719 133.34375 95.90625 136.929688 100.683594 C 139.394531 103.964844 140.582031 107.808594 140.582031 111.628906 C 140.582031 117.191406 138.0625 122.679688 133.285156 126.265625 C 130 128.726562 126.160156 129.917969 122.34375 129.917969 C 116.777344 129.917969 111.285156 127.398438 107.699219 122.617188 C 105.234375 119.335938 104.050781 115.492188 104.050781 111.671875 C 104.050781 106.113281 106.570312 100.621094 111.347656 97.035156 Z M 135.386719 129.070312 L 134.890625 128.410156 C 131.128906 131.230469 126.71875 132.59375 122.34375 132.59375 C 115.964844 132.589844 109.667969 129.707031 105.554688 124.226562 C 102.734375 120.460938 101.371094 116.058594 101.371094 111.679688 C 101.375 105.304688 104.261719 99.007812 109.742188 94.894531 C 113.503906 92.070312 117.910156 90.710938 122.289062 90.710938 C 128.667969 90.710938 134.960938 93.597656 139.070312 99.078125 C 141.894531 102.84375 143.257812 107.25 143.257812 111.628906 C 143.257812 118.003906 140.367188 124.296875 134.890625 128.410156 L 135.386719 129.070312 L 135.886719 129.734375 C 141.796875 125.296875 144.917969 118.5 144.914062 111.628906 C 144.917969 106.90625 143.445312 102.140625 140.398438 98.082031 C 135.964844 92.171875 129.164062 89.050781 122.289062 89.050781 C 117.566406 89.050781 112.804688 90.523438 108.746094 93.570312 C 102.832031 98.003906 99.714844 104.804688 99.714844 111.679688 C 99.714844 116.398438 101.183594 121.164062 104.230469 125.222656 C 108.664062 131.132812 115.464844 134.253906 122.34375 134.253906 C 127.0625 134.253906 131.828125 132.78125 135.886719 129.734375 L 135.386719 129.070312 " fill-opacity="1" fill-rule="nonzero"/><path fill="#231f20" d="M 156.785156 100.414062 C 157.746094 101.695312 157.484375 103.519531 156.199219 104.484375 L 105.332031 142.652344 C 104.046875 143.617188 102.222656 143.355469 101.261719 142.074219 L 86.128906 121.90625 C 85.164062 120.621094 85.421875 118.796875 86.707031 117.832031 L 137.574219 79.664062 C 138.863281 78.699219 140.683594 78.960938 141.648438 80.242188 Z M 50.746094 95.460938 L 103.058594 165.171875 L 117.113281 154.625 C 128.929688 134.003906 143.046875 123.410156 166.144531 117.832031 L 179.054688 108.144531 L 126.746094 38.433594 C 92.3125 40.589844 62.445312 63 50.746094 95.460938 " fill-opacity="1" fill-rule="nonzero"/><g clip-path="url(#99f283f56e)"><path fill="#231f20" d="M 156.785156 100.414062 L 156.121094 100.910156 C 156.402344 101.289062 156.535156 101.71875 156.535156 102.15625 C 156.53125 102.785156 156.25 103.410156 155.703125 103.820312 L 104.835938 141.992188 C 104.457031 142.269531 104.023438 142.40625 103.589844 142.40625 C 102.957031 142.40625 102.335938 142.121094 101.925781 141.578125 L 86.792969 121.410156 C 86.511719 121.03125 86.375 120.597656 86.375 120.160156 C 86.375 119.527344 86.660156 118.90625 87.207031 118.496094 L 138.074219 80.328125 C 138.449219 80.046875 138.882812 79.910156 139.316406 79.910156 C 139.953125 79.914062 140.574219 80.195312 140.984375 80.742188 L 156.121094 100.910156 L 156.785156 100.414062 L 157.445312 99.914062 L 142.3125 79.746094 C 141.578125 78.769531 140.453125 78.25 139.316406 78.25 C 138.542969 78.25 137.746094 78.496094 137.078125 79 L 86.210938 117.171875 C 85.234375 117.90625 84.714844 119.03125 84.714844 120.160156 C 84.714844 120.941406 84.960938 121.734375 85.46875 122.40625 L 100.597656 142.574219 C 101.332031 143.546875 102.457031 144.066406 103.589844 144.066406 C 104.367188 144.066406 105.160156 143.820312 105.832031 143.316406 L 156.699219 105.148438 C 157.675781 104.414062 158.191406 103.289062 158.191406 102.15625 C 158.191406 101.375 157.945312 100.585938 157.445312 99.914062 Z M 50.746094 95.460938 L 50.082031 95.960938 L 102.394531 165.667969 C 102.527344 165.84375 102.726562 165.960938 102.941406 165.992188 C 103.160156 166.023438 103.382812 165.96875 103.558594 165.835938 L 117.613281 155.289062 C 117.699219 155.222656 117.78125 155.132812 117.832031 155.039062 C 123.703125 144.792969 130.109375 137.09375 137.898438 131.25 C 145.683594 125.40625 154.867188 121.410156 166.335938 118.640625 C 166.449219 118.613281 166.554688 118.5625 166.640625 118.496094 L 179.554688 108.808594 C 179.730469 108.675781 179.84375 108.480469 179.878906 108.261719 C 179.910156 108.039062 179.851562 107.824219 179.71875 107.644531 L 127.410156 37.933594 C 127.242188 37.710938 126.972656 37.589844 126.695312 37.609375 C 91.929688 39.785156 61.777344 62.410156 49.96875 95.179688 C 49.875 95.441406 49.917969 95.734375 50.082031 95.960938 L 50.746094 95.460938 L 51.527344 95.742188 C 63.113281 63.59375 92.691406 41.398438 126.796875 39.257812 L 126.746094 38.433594 L 126.082031 38.933594 L 177.894531 107.976562 L 165.648438 117.167969 L 166.144531 117.832031 L 165.949219 117.027344 C 154.324219 119.835938 144.902344 123.921875 136.898438 129.925781 C 128.898438 135.925781 122.34375 143.832031 116.394531 154.214844 L 117.113281 154.625 L 116.621094 153.960938 L 103.226562 164.011719 L 51.410156 94.960938 L 50.746094 95.460938 L 51.527344 95.742188 L 50.746094 95.460938 " fill-opacity="1" fill-rule="nonzero"/></g><path fill="#ffffff" d="M 131.925781 45.277344 C 97.921875 48.617188 68.644531 70.640625 55.996094 102.394531 L 58.53125 105.761719 C 70.472656 73.464844 100.125 51.171875 134.453125 48.648438 L 131.925781 45.277344 " fill-opacity="1" fill-rule="nonzero"/><path fill="#231f20" d="M 131.925781 45.277344 L 131.84375 44.449219 C 97.535156 47.824219 67.988281 70.046875 55.230469 102.085938 C 55.121094 102.355469 55.160156 102.660156 55.335938 102.890625 L 57.867188 106.261719 C 58.046875 106.503906 58.347656 106.628906 58.648438 106.585938 C 58.949219 106.539062 59.199219 106.335938 59.308594 106.050781 C 71.136719 74.058594 100.511719 51.972656 134.515625 49.472656 C 134.820312 49.453125 135.085938 49.265625 135.207031 48.992188 C 135.335938 48.714844 135.300781 48.390625 135.117188 48.148438 L 132.589844 44.777344 C 132.414062 44.546875 132.132812 44.421875 131.84375 44.449219 L 131.925781 45.277344 L 131.261719 45.777344 L 133.792969 49.148438 L 134.453125 48.648438 L 134.394531 47.824219 C 99.738281 50.367188 69.808594 72.871094 57.753906 105.476562 L 58.53125 105.761719 L 59.191406 105.269531 L 56.660156 101.894531 L 55.996094 102.394531 L 56.769531 102.703125 C 69.300781 71.238281 98.3125 49.414062 132.003906 46.097656 L 131.925781 45.277344 L 131.261719 45.777344 L 131.925781 45.277344 " fill-opacity="1" fill-rule="nonzero"/><path fill="#ffffff" d="M 136.417969 51.265625 C 102.414062 54.605469 73.140625 76.628906 60.492188 108.382812 L 63.023438 111.75 C 74.964844 79.457031 104.621094 57.160156 138.949219 54.636719 L 136.417969 51.265625 " fill-opacity="1" fill-rule="nonzero"/><path fill="#231f20" d="M 136.417969 51.265625 L 136.335938 50.4375 C 102.027344 53.8125 72.480469 76.035156 59.722656 108.074219 C 59.613281 108.34375 59.65625 108.648438 59.828125 108.882812 L 62.359375 112.25 C 62.542969 112.492188 62.839844 112.617188 63.140625 112.574219 C 63.441406 112.527344 63.695312 112.324219 63.796875 112.039062 C 75.632812 80.050781 105.003906 57.960938 139.011719 55.460938 C 139.3125 55.4375 139.578125 55.253906 139.703125 54.980469 C 139.828125 54.699219 139.792969 54.378906 139.613281 54.136719 L 137.082031 50.765625 C 136.90625 50.53125 136.628906 50.410156 136.335938 50.4375 L 136.417969 51.265625 L 135.757812 51.765625 L 138.285156 55.136719 L 138.949219 54.636719 L 138.886719 53.808594 C 104.234375 56.351562 74.300781 78.863281 62.246094 111.464844 L 63.023438 111.75 L 63.683594 111.253906 L 61.15625 107.882812 L 60.492188 108.382812 L 61.261719 108.691406 C 73.792969 77.222656 102.804688 55.402344 136.5 52.089844 L 136.417969 51.265625 L 135.757812 51.765625 L 136.417969 51.265625 " fill-opacity="1" fill-rule="nonzero"/><path fill="#ffffff" d="M 140.910156 57.253906 C 106.910156 60.59375 77.632812 82.621094 64.988281 114.367188 L 67.515625 117.738281 C 79.460938 85.441406 109.117188 63.148438 143.445312 60.625 L 140.910156 57.253906 " fill-opacity="1" fill-rule="nonzero"/><path fill="#231f20" d="M 140.910156 57.253906 L 140.832031 56.425781 C 106.523438 59.800781 76.976562 82.023438 64.214844 114.0625 C 64.109375 114.328125 64.148438 114.636719 64.324219 114.867188 L 66.851562 118.238281 C 67.035156 118.480469 67.335938 118.605469 67.636719 118.5625 C 67.9375 118.515625 68.1875 118.3125 68.292969 118.027344 C 80.125 86.035156 109.496094 63.949219 143.503906 61.449219 C 143.808594 61.425781 144.074219 61.242188 144.195312 60.96875 C 144.320312 60.6875 144.289062 60.367188 144.105469 60.125 L 141.574219 56.753906 C 141.402344 56.519531 141.121094 56.398438 140.832031 56.425781 L 140.910156 57.253906 L 140.25 57.75 L 142.78125 61.121094 L 143.445312 60.625 L 143.382812 59.796875 C 108.730469 62.34375 78.796875 84.851562 66.738281 117.453125 L 67.515625 117.738281 L 68.175781 117.242188 L 65.648438 113.871094 L 64.988281 114.367188 L 65.753906 114.675781 C 78.289062 83.214844 107.300781 61.390625 140.996094 58.078125 L 140.910156 57.253906 L 140.25 57.75 L 140.910156 57.253906 " fill-opacity="1" fill-rule="nonzero"/><path fill="#ffffff" d="M 145.40625 63.242188 C 111.40625 66.585938 82.128906 88.605469 69.480469 120.359375 L 72.007812 123.730469 C 83.957031 91.433594 113.609375 69.136719 147.9375 66.613281 L 145.40625 63.242188 " fill-opacity="1" fill-rule="nonzero"/><path fill="#231f20" d="M 145.40625 63.242188 L 145.324219 62.414062 C 111.011719 65.789062 81.472656 88.011719 68.707031 120.050781 C 68.601562 120.320312 68.644531 120.625 68.816406 120.855469 L 71.34375 124.230469 C 71.527344 124.472656 71.828125 124.59375 72.128906 124.550781 C 72.429688 124.507812 72.683594 124.304688 72.785156 124.019531 C 84.621094 92.023438 113.992188 69.9375 147.996094 67.4375 C 148.296875 67.414062 148.5625 67.230469 148.691406 66.957031 C 148.816406 66.675781 148.78125 66.355469 148.601562 66.113281 L 146.070312 62.742188 C 145.894531 62.507812 145.613281 62.386719 145.324219 62.414062 L 145.40625 63.242188 L 144.742188 63.738281 L 147.273438 67.109375 L 147.9375 66.613281 L 147.875 65.785156 C 113.222656 68.332031 83.289062 90.839844 71.230469 123.441406 L 72.007812 123.730469 L 72.671875 123.230469 L 70.144531 119.859375 L 69.480469 120.359375 L 70.25 120.667969 C 82.78125 89.203125 111.792969 67.378906 145.488281 64.0625 L 145.40625 63.242188 L 144.742188 63.738281 L 145.40625 63.242188 " fill-opacity="1" fill-rule="nonzero"/><path fill="#ffffff" d="M 209.496094 100.304688 L 275.652344 149.945312 L 297.613281 120.679688 L 231.457031 71.039062 L 209.496094 100.304688 " fill-opacity="1" fill-rule="nonzero"/><path fill="#231f20" d="M 209.496094 100.304688 L 209 100.96875 L 275.152344 150.609375 C 275.328125 150.738281 275.550781 150.796875 275.769531 150.765625 C 275.984375 150.738281 276.183594 150.617188 276.316406 150.445312 L 298.277344 121.179688 C 298.410156 121.003906 298.464844 120.78125 298.433594 120.5625 C 298.402344 120.347656 298.285156 120.148438 298.109375 120.019531 L 231.953125 70.375 C 231.78125 70.246094 231.554688 70.1875 231.339844 70.21875 C 231.125 70.25 230.921875 70.367188 230.792969 70.539062 L 208.832031 99.808594 C 208.558594 100.171875 208.632812 100.691406 209 100.96875 L 209.496094 100.304688 L 210.160156 100.800781 L 231.625 72.199219 L 296.453125 120.84375 L 275.484375 148.785156 L 209.996094 99.640625 L 209.496094 100.304688 L 210.160156 100.800781 L 209.496094 100.304688 " fill-opacity="1" fill-rule="nonzero"/><path fill="#ffffff" d="M 110.40625 260.125 C 119.046875 248.613281 135.378906 246.285156 146.886719 254.921875 C 158.398438 263.5625 160.726562 279.894531 152.089844 291.40625 C 143.453125 302.914062 127.117188 305.246094 115.609375 296.605469 C 104.097656 287.96875 101.769531 271.632812 110.40625 260.125 Z M 111.503906 226.132812 L 70.691406 280.53125 L 141.40625 333.597656 L 182.226562 279.199219 C 184.957031 275.5625 184.742188 270.910156 181.105469 268.179688 L 175.734375 264.199219 C 168.136719 256.570312 162.589844 249.652344 181.222656 224.816406 L 248.277344 135.453125 L 231.058594 122.53125 L 164.003906 211.894531 C 145.367188 236.730469 137.175781 233.332031 127.722656 228.171875 L 122.402344 224.128906 C 118.761719 221.398438 114.234375 222.492188 111.503906 226.132812 " fill-opacity="1" fill-rule="nonzero"/><path fill="#231f20" d="M 110.40625 260.125 L 111.070312 260.625 C 116.027344 254.015625 123.597656 250.539062 131.269531 250.535156 C 136.539062 250.535156 141.847656 252.175781 146.390625 255.585938 C 152.996094 260.542969 156.476562 268.113281 156.480469 275.785156 C 156.480469 281.054688 154.835938 286.367188 151.429688 290.90625 C 146.46875 297.515625 138.902344 300.996094 131.226562 300.996094 C 125.957031 300.996094 120.648438 299.351562 116.109375 295.941406 C 109.5 290.984375 106.019531 283.417969 106.019531 275.746094 C 106.019531 270.476562 107.660156 265.164062 111.070312 260.625 L 110.40625 260.125 L 109.742188 259.628906 C 106.113281 264.464844 104.363281 270.132812 104.363281 275.746094 C 104.359375 283.914062 108.074219 291.988281 115.109375 297.269531 C 119.945312 300.898438 125.613281 302.652344 131.226562 302.652344 C 139.398438 302.652344 147.472656 298.941406 152.753906 291.90625 C 156.382812 287.066406 158.136719 281.398438 158.136719 275.785156 C 158.136719 267.617188 154.421875 259.542969 147.386719 254.261719 C 142.550781 250.632812 136.882812 248.878906 131.269531 248.878906 C 123.101562 248.878906 115.027344 252.59375 109.742188 259.628906 Z M 111.503906 226.132812 L 110.84375 225.636719 L 70.027344 280.03125 C 69.75 280.398438 69.824219 280.917969 70.191406 281.195312 L 140.910156 334.261719 C 141.085938 334.394531 141.308594 334.449219 141.523438 334.417969 C 141.742188 334.386719 141.9375 334.269531 142.070312 334.09375 L 182.890625 279.699219 C 184.207031 277.941406 184.910156 275.941406 184.910156 273.96875 C 184.917969 271.539062 183.8125 269.164062 181.605469 267.515625 L 181.597656 267.511719 L 176.230469 263.53125 L 175.734375 264.199219 L 176.320312 263.613281 C 174.425781 261.710938 172.703125 259.886719 171.46875 257.878906 C 170.238281 255.863281 169.476562 253.679688 169.472656 250.9375 C 169.46875 248.203125 170.246094 244.894531 172.191406 240.710938 C 174.140625 236.527344 177.253906 231.488281 181.886719 225.3125 L 248.941406 135.953125 C 249.074219 135.777344 249.128906 135.554688 249.101562 135.335938 C 249.070312 135.121094 248.953125 134.921875 248.777344 134.792969 L 231.558594 121.871094 C 231.382812 121.738281 231.160156 121.679688 230.941406 121.714844 C 230.726562 121.742188 230.527344 121.863281 230.394531 122.035156 L 163.339844 211.398438 C 157.589844 219.058594 152.859375 223.988281 148.839844 226.976562 C 144.8125 229.964844 141.542969 231.007812 138.59375 231.011719 C 136.78125 231.011719 135.066406 230.613281 133.347656 229.964844 C 131.625 229.316406 129.90625 228.417969 128.121094 227.445312 L 127.722656 228.171875 L 128.226562 227.511719 L 122.90625 223.472656 L 122.902344 223.46875 C 121.378906 222.324219 119.679688 221.773438 118.003906 221.773438 C 115.273438 221.773438 112.660156 223.207031 110.84375 225.636719 L 111.503906 226.132812 L 112.167969 226.632812 C 113.726562 224.554688 115.867188 223.433594 118.003906 223.433594 C 119.320312 223.433594 120.652344 223.851562 121.90625 224.792969 L 121.902344 224.789062 L 127.222656 228.832031 L 127.324219 228.898438 C 129.128906 229.882812 130.910156 230.820312 132.761719 231.515625 C 134.613281 232.210938 136.535156 232.667969 138.59375 232.667969 C 141.957031 232.671875 145.617188 231.441406 149.828125 228.304688 C 154.042969 225.171875 158.859375 220.128906 164.667969 212.390625 L 231.226562 123.695312 L 247.121094 135.621094 L 180.558594 224.320312 C 175.882812 230.550781 172.707031 235.675781 170.691406 240.011719 C 168.675781 244.339844 167.8125 247.886719 167.8125 250.9375 C 167.8125 253.996094 168.691406 256.535156 170.054688 258.746094 C 171.417969 260.960938 173.238281 262.863281 175.144531 264.785156 L 175.238281 264.863281 L 180.609375 268.84375 L 180.605469 268.84375 C 182.417969 270.210938 183.242188 272.027344 183.253906 273.96875 C 183.253906 275.542969 182.6875 277.203125 181.5625 278.703125 L 141.242188 332.433594 L 71.851562 280.367188 L 112.167969 226.632812 L 111.503906 226.132812 " fill-opacity="1" fill-rule="nonzero"/><path fill="#ffffff" d="M 126.816406 220.050781 L 130.527344 222.828125 L 128.019531 226.171875 L 124.3125 223.390625 L 126.816406 220.050781 " fill-opacity="1" fill-rule="nonzero"/><path fill="#231f20" d="M 126.816406 220.050781 L 126.320312 220.714844 L 129.363281 222.996094 L 127.851562 225.011719 L 125.472656 223.226562 L 127.480469 220.546875 L 126.816406 220.050781 L 126.320312 220.714844 L 126.816406 220.050781 L 126.152344 219.550781 L 123.648438 222.894531 C 123.375 223.261719 123.449219 223.777344 123.816406 224.054688 L 127.519531 226.835938 C 127.695312 226.964844 127.917969 227.023438 128.136719 226.992188 C 128.347656 226.960938 128.550781 226.84375 128.679688 226.671875 L 131.1875 223.328125 C 131.320312 223.152344 131.375 222.929688 131.34375 222.714844 C 131.3125 222.5 131.195312 222.296875 131.019531 222.167969 L 127.316406 219.386719 C 127.140625 219.257812 126.917969 219.199219 126.699219 219.230469 C 126.484375 219.261719 126.285156 219.378906 126.152344 219.550781 L 126.816406 220.050781 " fill-opacity="1" fill-rule="nonzero"/><path fill="#ffffff" d="M 124.503906 221.492188 L 129.785156 225.457031 L 127.28125 228.796875 L 122 224.832031 L 124.503906 221.492188 " fill-opacity="1" fill-rule="nonzero"/><path fill="#231f20" d="M 124.503906 221.492188 L 124.007812 222.15625 L 128.625 225.621094 L 127.113281 227.636719 L 123.15625 224.667969 L 125.167969 221.992188 L 124.503906 221.492188 L 124.007812 222.15625 L 124.503906 221.492188 L 123.839844 220.992188 L 121.335938 224.335938 C 121.207031 224.511719 121.148438 224.734375 121.175781 224.949219 C 121.207031 225.164062 121.324219 225.367188 121.5 225.496094 L 126.78125 229.460938 C 126.957031 229.589844 127.179688 229.648438 127.398438 229.613281 C 127.609375 229.585938 127.8125 229.46875 127.941406 229.292969 L 130.449219 225.953125 C 130.722656 225.585938 130.648438 225.066406 130.28125 224.792969 L 125.003906 220.828125 C 124.828125 220.699219 124.605469 220.640625 124.386719 220.667969 C 124.171875 220.703125 123.972656 220.820312 123.839844 220.992188 L 124.503906 221.492188 " fill-opacity="1" fill-rule="nonzero"/><path fill="#ffffff" d="M 180.746094 260.515625 L 184.457031 263.296875 L 181.945312 266.640625 L 178.242188 263.859375 L 180.746094 260.515625 " fill-opacity="1" fill-rule="nonzero"/><path fill="#231f20" d="M 180.746094 260.515625 L 180.25 261.179688 L 183.292969 263.464844 L 181.78125 265.476562 L 179.402344 263.695312 L 181.410156 261.015625 L 180.746094 260.515625 L 180.25 261.179688 L 180.746094 260.515625 L 180.085938 260.019531 L 177.578125 263.359375 C 177.304688 263.726562 177.378906 264.246094 177.742188 264.523438 L 181.449219 267.304688 C 181.625 267.433594 181.847656 267.492188 182.0625 267.460938 C 182.28125 267.429688 182.476562 267.3125 182.609375 267.140625 L 185.117188 263.796875 C 185.25 263.621094 185.304688 263.402344 185.277344 263.183594 C 185.242188 262.964844 185.128906 262.769531 184.953125 262.636719 L 181.246094 259.855469 C 181.070312 259.722656 180.847656 259.664062 180.628906 259.699219 C 180.414062 259.730469 180.214844 259.847656 180.085938 260.019531 L 180.746094 260.515625 " fill-opacity="1" fill-rule="nonzero"/><path fill="#ffffff" d="M 178.433594 261.960938 L 183.714844 265.921875 L 181.207031 269.265625 L 175.925781 265.300781 L 178.433594 261.960938 " fill-opacity="1" fill-rule="nonzero"/><path fill="#231f20" d="M 178.433594 261.960938 L 177.9375 262.625 L 182.554688 266.089844 L 181.042969 268.105469 L 177.085938 265.136719 L 179.097656 262.460938 L 178.433594 261.960938 L 177.9375 262.625 L 178.433594 261.960938 L 177.773438 261.460938 L 175.261719 264.804688 C 175.128906 264.980469 175.074219 265.199219 175.105469 265.417969 C 175.136719 265.636719 175.253906 265.832031 175.429688 265.964844 L 180.710938 269.929688 C 181.074219 270.203125 181.597656 270.128906 181.871094 269.761719 L 184.378906 266.421875 C 184.511719 266.242188 184.566406 266.027344 184.539062 265.804688 C 184.503906 265.589844 184.390625 265.394531 184.214844 265.261719 L 178.933594 261.296875 C 178.566406 261.023438 178.046875 261.097656 177.773438 261.460938 L 178.433594 261.960938 " fill-opacity="1" fill-rule="nonzero"/><path fill="#ffffff" d="M 134.277344 336.648438 L 129.226562 332.859375 L 131.738281 329.519531 L 136.785156 333.304688 L 134.277344 336.648438 " fill-opacity="1" fill-rule="nonzero"/><g clip-path="url(#bd6760ad78)"><path fill="#231f20" d="M 134.277344 336.648438 L 134.773438 335.988281 L 130.390625 332.695312 L 131.902344 330.679688 L 135.625 333.472656 L 133.613281 336.152344 L 134.277344 336.648438 L 134.773438 335.988281 L 134.277344 336.648438 L 134.941406 337.148438 L 137.445312 333.804688 C 137.578125 333.628906 137.632812 333.40625 137.605469 333.191406 C 137.574219 332.972656 137.457031 332.773438 137.28125 332.644531 L 132.234375 328.855469 C 131.867188 328.582031 131.347656 328.65625 131.074219 329.023438 L 128.566406 332.363281 C 128.433594 332.535156 128.375 332.761719 128.40625 332.976562 C 128.441406 333.191406 128.554688 333.394531 128.730469 333.523438 L 133.78125 337.3125 C 133.957031 337.445312 134.175781 337.5 134.390625 337.472656 C 134.613281 337.4375 134.808594 337.324219 134.941406 337.148438 L 134.277344 336.648438 " fill-opacity="1" fill-rule="nonzero"/></g><path fill="#ffffff" d="M 136.875 335.421875 L 129.679688 330.023438 L 132.191406 326.679688 L 139.382812 332.078125 L 136.875 335.421875 " fill-opacity="1" fill-rule="nonzero"/><path fill="#231f20" d="M 136.875 335.421875 L 137.375 334.757812 L 130.84375 329.855469 L 132.355469 327.84375 L 138.21875 332.242188 L 136.210938 334.921875 L 136.875 335.421875 L 137.375 334.757812 L 136.875 335.421875 L 137.539062 335.917969 L 140.046875 332.578125 C 140.175781 332.402344 140.234375 332.179688 140.203125 331.960938 C 140.171875 331.746094 140.054688 331.546875 139.882812 331.417969 L 132.6875 326.019531 C 132.324219 325.746094 131.800781 325.820312 131.527344 326.183594 L 129.019531 329.523438 C 128.886719 329.699219 128.832031 329.921875 128.859375 330.140625 C 128.890625 330.355469 129.011719 330.554688 129.183594 330.6875 L 136.378906 336.085938 C 136.554688 336.21875 136.773438 336.273438 136.992188 336.242188 C 137.214844 336.207031 137.40625 336.09375 137.539062 335.917969 L 136.875 335.421875 " fill-opacity="1" fill-rule="nonzero"/><path fill="#ffffff" d="M 75.46875 292.515625 L 70.417969 288.726562 L 72.925781 285.386719 L 77.972656 289.175781 L 75.46875 292.515625 " fill-opacity="1" fill-rule="nonzero"/><path fill="#231f20" d="M 75.46875 292.515625 L 75.960938 291.851562 L 71.578125 288.5625 L 73.089844 286.546875 L 76.8125 289.339844 L 74.804688 292.019531 L 75.46875 292.515625 L 75.960938 291.851562 L 75.46875 292.515625 L 76.128906 293.015625 L 78.632812 289.671875 C 78.765625 289.496094 78.824219 289.277344 78.792969 289.058594 C 78.765625 288.835938 78.648438 288.644531 78.46875 288.515625 L 73.421875 284.726562 C 73.242188 284.589844 73.023438 284.535156 72.804688 284.566406 C 72.589844 284.59375 72.394531 284.710938 72.261719 284.890625 L 69.753906 288.230469 C 69.480469 288.597656 69.554688 289.117188 69.917969 289.390625 L 74.96875 293.179688 C 75.335938 293.457031 75.851562 293.382812 76.128906 293.015625 L 75.46875 292.515625 " fill-opacity="1" fill-rule="nonzero"/><path fill="#ffffff" d="M 78.066406 291.289062 L 70.867188 285.890625 L 73.378906 282.546875 L 80.570312 287.945312 L 78.066406 291.289062 " fill-opacity="1" fill-rule="nonzero"/><path fill="#231f20" d="M 78.066406 291.289062 L 78.558594 290.625 L 72.03125 285.726562 L 73.542969 283.707031 L 79.410156 288.113281 L 77.402344 290.789062 L 78.066406 291.289062 L 78.558594 290.625 L 78.066406 291.289062 L 78.726562 291.789062 L 81.234375 288.445312 C 81.367188 288.269531 81.421875 288.050781 81.390625 287.832031 C 81.363281 287.613281 81.246094 287.417969 81.070312 287.285156 L 73.875 281.882812 C 73.699219 281.753906 73.476562 281.695312 73.257812 281.730469 C 73.042969 281.757812 72.84375 281.875 72.714844 282.050781 L 70.203125 285.390625 C 69.933594 285.757812 70.003906 286.28125 70.371094 286.554688 L 77.566406 291.953125 C 77.933594 292.226562 78.453125 292.152344 78.726562 291.789062 L 78.066406 291.289062 " fill-opacity="1" fill-rule="nonzero"/><path fill="#ffffff" d="M 110.40625 260.125 C 119.046875 248.613281 135.378906 246.285156 146.886719 254.921875 C 158.398438 263.5625 160.726562 279.894531 152.089844 291.40625 C 143.453125 302.914062 127.117188 305.246094 115.609375 296.605469 C 104.097656 287.96875 101.769531 271.632812 110.40625 260.125 Z M 100.308594 257.371094 L 103.296875 259.617188 C 98.601562 267.71875 97.800781 277.21875 100.539062 285.707031 L 91.363281 297.941406 C 90.476562 299.121094 90.714844 300.792969 91.894531 301.671875 L 117.375 320.796875 C 118.550781 321.679688 120.21875 321.441406 121.105469 320.261719 L 130.285156 308.027344 C 139.203125 308.285156 148.097656 304.863281 154.566406 298.089844 L 157.324219 300.160156 L 162.007812 293.921875 L 159.234375 291.84375 C 167.265625 277.902344 163.816406 259.84375 150.625 249.941406 C 137.433594 240.042969 119.132812 241.777344 107.988281 253.386719 L 104.988281 251.132812 L 100.308594 257.371094 " fill-opacity="1" fill-rule="nonzero"/><path fill="#231f20" d="M 110.40625 260.125 L 111.070312 260.625 C 116.027344 254.015625 123.597656 250.539062 131.269531 250.535156 C 136.539062 250.535156 141.847656 252.175781 146.390625 255.585938 C 152.996094 260.542969 156.476562 268.113281 156.480469 275.785156 C 156.480469 281.054688 154.835938 286.367188 151.429688 290.90625 C 146.46875 297.515625 138.902344 300.996094 131.226562 300.996094 C 125.957031 300.996094 120.648438 299.351562 116.109375 295.941406 C 109.5 290.984375 106.019531 283.417969 106.019531 275.746094 C 106.019531 270.476562 107.660156 265.164062 111.070312 260.625 L 110.40625 260.125 L 109.742188 259.628906 C 106.113281 264.464844 104.363281 270.132812 104.363281 275.746094 C 104.359375 283.914062 108.074219 291.988281 115.109375 297.269531 C 119.945312 300.898438 125.613281 302.652344 131.226562 302.652344 C 139.398438 302.652344 147.472656 298.941406 152.753906 291.90625 C 156.382812 287.066406 158.136719 281.398438 158.136719 275.785156 C 158.136719 267.617188 154.421875 259.542969 147.386719 254.261719 C 142.550781 250.632812 136.882812 248.878906 131.269531 248.878906 C 123.101562 248.878906 115.027344 252.59375 109.742188 259.628906 Z M 100.308594 257.371094 L 99.808594 258.035156 L 102.800781 260.28125 L 103.296875 259.617188 L 102.582031 259.203125 C 99.589844 264.359375 98.140625 270.066406 98.140625 275.734375 C 98.140625 279.203125 98.683594 282.660156 99.75 285.960938 L 100.539062 285.707031 L 99.875 285.210938 L 90.699219 297.445312 C 90.226562 298.070312 89.996094 298.8125 89.996094 299.542969 C 89.996094 300.601562 90.480469 301.652344 91.394531 302.335938 L 116.875 321.460938 C 117.5 321.929688 118.242188 322.160156 118.96875 322.160156 C 120.03125 322.160156 121.082031 321.671875 121.765625 320.761719 L 130.949219 308.523438 L 130.285156 308.027344 L 130.261719 308.855469 C 130.582031 308.863281 130.90625 308.867188 131.226562 308.871094 C 140.039062 308.871094 148.765625 305.363281 155.164062 298.664062 L 154.566406 298.089844 L 154.066406 298.753906 L 156.824219 300.824219 C 157.003906 300.957031 157.222656 301.015625 157.441406 300.980469 C 157.660156 300.949219 157.855469 300.835938 157.988281 300.660156 L 162.671875 294.421875 C 162.804688 294.242188 162.859375 294.023438 162.828125 293.804688 C 162.796875 293.585938 162.679688 293.390625 162.503906 293.257812 L 159.734375 291.179688 L 159.234375 291.84375 L 159.953125 292.257812 C 162.917969 287.113281 164.355469 281.425781 164.355469 275.777344 C 164.359375 265.722656 159.785156 255.78125 151.121094 249.28125 C 145.171875 244.8125 138.195312 242.652344 131.285156 242.652344 C 122.492188 242.652344 113.789062 246.144531 107.394531 252.8125 L 107.988281 253.386719 L 108.488281 252.726562 L 105.484375 250.472656 C 105.121094 250.199219 104.601562 250.273438 104.324219 250.640625 L 99.644531 256.875 C 99.511719 257.050781 99.453125 257.273438 99.484375 257.492188 C 99.515625 257.707031 99.628906 257.902344 99.808594 258.035156 L 100.308594 257.371094 L 100.96875 257.871094 L 105.152344 252.296875 L 107.492188 254.050781 C 107.828125 254.300781 108.296875 254.261719 108.585938 253.960938 C 114.664062 247.628906 122.929688 244.3125 131.285156 244.3125 C 137.851562 244.3125 144.46875 246.359375 150.125 250.605469 C 158.359375 256.785156 162.699219 266.21875 162.699219 275.777344 C 162.699219 281.144531 161.332031 286.542969 158.515625 291.429688 C 158.304688 291.792969 158.402344 292.253906 158.738281 292.507812 L 160.84375 294.085938 L 157.160156 299 L 155.0625 297.425781 C 154.726562 297.171875 154.257812 297.210938 153.964844 297.515625 C 147.886719 303.878906 139.601562 307.210938 131.226562 307.214844 C 130.921875 307.214844 130.617188 307.207031 130.308594 307.199219 C 130.039062 307.191406 129.785156 307.3125 129.621094 307.53125 L 120.441406 319.765625 C 120.078125 320.25 119.53125 320.496094 118.96875 320.5 C 118.585938 320.496094 118.203125 320.382812 117.871094 320.132812 L 92.390625 301.011719 C 91.90625 300.648438 91.65625 300.101562 91.65625 299.542969 C 91.65625 299.15625 91.773438 298.773438 92.023438 298.441406 L 101.203125 286.203125 C 101.363281 285.992188 101.410156 285.710938 101.328125 285.453125 C 100.316406 282.3125 99.796875 279.03125 99.796875 275.734375 C 99.796875 270.347656 101.179688 264.929688 104.015625 260.035156 C 104.226562 259.667969 104.132812 259.207031 103.792969 258.957031 L 100.800781 256.710938 L 100.308594 257.371094 L 100.96875 257.871094 L 100.308594 257.371094 " fill-opacity="1" fill-rule="nonzero"/><path fill="#ffffff" d="M 152.074219 291.394531 C 152.179688 291.253906 152.277344 291.109375 152.378906 290.96875 L 159.941406 296.644531 L 159.359375 297.414062 L 151.800781 291.738281 C 151.890625 291.625 151.984375 291.511719 152.074219 291.394531 " fill-opacity="1" fill-rule="nonzero"/><path fill="#231f20" d="M 152.074219 291.394531 L 152.734375 291.890625 C 152.859375 291.730469 152.960938 291.582031 153.050781 291.453125 L 152.378906 290.96875 L 151.878906 291.632812 L 158.777344 296.808594 L 158.699219 296.917969 L 159.359375 297.414062 L 159.855469 296.753906 L 152.296875 291.078125 L 151.800781 291.738281 L 152.445312 292.261719 C 152.53125 292.152344 152.632812 292.03125 152.738281 291.890625 L 152.734375 291.890625 L 152.074219 291.394531 L 151.410156 290.894531 C 151.335938 290.996094 151.25 291.101562 151.152344 291.222656 C 151.011719 291.394531 150.949219 291.621094 150.976562 291.84375 C 151.003906 292.066406 151.121094 292.265625 151.300781 292.402344 L 158.863281 298.078125 C 159.230469 298.351562 159.746094 298.277344 160.023438 297.914062 L 160.601562 297.140625 C 160.734375 296.964844 160.792969 296.742188 160.761719 296.527344 C 160.730469 296.304688 160.613281 296.113281 160.4375 295.980469 L 152.878906 290.304688 C 152.699219 290.171875 152.476562 290.113281 152.257812 290.148438 C 152.035156 290.183594 151.839844 290.300781 151.707031 290.480469 C 151.59375 290.640625 151.5 290.777344 151.414062 290.894531 L 151.410156 290.894531 L 152.074219 291.394531 " fill-opacity="1" fill-rule="nonzero"/><path fill="#ffffff" d="M 236.664062 133.003906 C 238.085938 134.074219 239.585938 134.976562 241.136719 135.71875 L 160.789062 242.792969 C 159.023438 245.148438 155.679688 245.621094 153.320312 243.855469 C 150.964844 242.089844 150.492188 238.742188 152.257812 236.386719 L 232.628906 129.277344 C 233.820312 130.628906 235.167969 131.882812 236.664062 133.003906 " fill-opacity="1" fill-rule="nonzero"/><path fill="#231f20" d="M 236.664062 133.003906 L 236.164062 133.667969 C 237.632812 134.769531 239.183594 135.699219 240.773438 136.46875 L 241.136719 135.71875 L 240.472656 135.222656 L 160.125 242.292969 C 159.242188 243.476562 157.894531 244.09375 156.519531 244.09375 C 155.578125 244.09375 154.632812 243.800781 153.820312 243.195312 C 152.636719 242.304688 152.019531 240.960938 152.019531 239.585938 C 152.019531 238.644531 152.3125 237.699219 152.921875 236.886719 L 233.292969 129.777344 L 232.628906 129.277344 L 232.007812 129.828125 C 233.234375 131.21875 234.621094 132.511719 236.167969 133.667969 L 236.664062 133.003906 L 237.15625 132.34375 C 235.707031 131.253906 234.410156 130.039062 233.253906 128.730469 C 233.089844 128.542969 232.847656 128.441406 232.597656 128.449219 C 232.351562 128.460938 232.117188 128.582031 231.96875 128.78125 L 151.59375 235.890625 C 150.761719 236.996094 150.359375 238.300781 150.359375 239.585938 C 150.359375 241.457031 151.214844 243.308594 152.824219 244.519531 C 153.929688 245.351562 155.234375 245.753906 156.519531 245.753906 C 158.390625 245.753906 160.242188 244.902344 161.453125 243.289062 L 241.796875 136.21875 C 241.949219 136.015625 242 135.765625 241.941406 135.523438 C 241.882812 135.28125 241.722656 135.082031 241.496094 134.976562 C 239.996094 134.253906 238.539062 133.378906 237.160156 132.34375 L 236.664062 133.003906 " fill-opacity="1" fill-rule="nonzero"/><path fill="#ffffff" d="M 240.085938 102.199219 C 245.304688 95.238281 255.179688 93.828125 262.140625 99.054688 C 269.097656 104.273438 270.503906 114.148438 265.289062 121.105469 C 260.0625 128.066406 250.191406 129.476562 243.230469 124.25 C 236.269531 119.03125 234.863281 109.15625 240.085938 102.199219 Z M 230.871094 95.285156 C 221.832031 107.332031 224.269531 124.421875 236.316406 133.464844 C 248.363281 142.503906 265.460938 140.066406 274.5 128.019531 C 283.535156 115.972656 281.097656 98.878906 269.054688 89.839844 C 257.007812 80.800781 239.910156 83.234375 230.871094 95.285156 " fill-opacity="1" fill-rule="nonzero"/><path fill="#231f20" d="M 240.085938 102.199219 L 240.75 102.695312 C 243.679688 98.789062 248.160156 96.726562 252.695312 96.726562 C 255.816406 96.726562 258.953125 97.699219 261.640625 99.714844 C 265.550781 102.648438 267.609375 107.125 267.609375 111.664062 C 267.609375 114.78125 266.636719 117.921875 264.625 120.609375 C 261.691406 124.515625 257.210938 126.578125 252.671875 126.578125 C 249.550781 126.578125 246.414062 125.605469 243.730469 123.589844 C 239.816406 120.65625 237.761719 116.179688 237.761719 111.640625 C 237.761719 108.523438 238.730469 105.382812 240.75 102.695312 L 240.085938 102.199219 L 239.425781 101.699219 C 237.183594 104.679688 236.101562 108.179688 236.101562 111.640625 C 236.101562 116.679688 238.390625 121.660156 242.730469 124.914062 C 245.710938 127.152344 249.207031 128.234375 252.671875 128.234375 C 257.710938 128.238281 262.691406 125.945312 265.949219 121.605469 C 268.1875 118.625 269.269531 115.125 269.269531 111.664062 C 269.269531 106.628906 266.976562 101.644531 262.636719 98.390625 C 259.65625 96.152344 256.160156 95.070312 252.695312 95.070312 C 247.660156 95.066406 242.679688 97.359375 239.421875 101.699219 Z M 230.871094 95.285156 L 230.210938 94.789062 C 226.414062 99.839844 224.582031 105.761719 224.582031 111.632812 C 224.582031 120.167969 228.460938 128.609375 235.820312 134.128906 C 240.871094 137.917969 246.796875 139.753906 252.660156 139.753906 C 261.199219 139.753906 269.640625 135.871094 275.160156 128.515625 C 278.953125 123.464844 280.789062 117.542969 280.789062 111.671875 C 280.789062 103.136719 276.90625 94.695312 269.550781 89.175781 C 264.496094 85.382812 258.574219 83.550781 252.707031 83.550781 C 244.164062 83.550781 235.730469 87.429688 230.210938 94.789062 L 230.871094 95.285156 L 231.535156 95.78125 C 236.730469 88.859375 244.664062 85.210938 252.707031 85.207031 C 258.226562 85.210938 263.792969 86.929688 268.554688 90.503906 C 275.480469 95.699219 279.125 103.636719 279.125 111.671875 C 279.125 117.199219 277.40625 122.761719 273.835938 127.523438 C 268.636719 134.445312 260.703125 138.09375 252.660156 138.097656 C 247.140625 138.09375 241.574219 136.375 236.816406 132.800781 C 229.890625 127.605469 226.242188 119.667969 226.242188 111.632812 C 226.242188 106.105469 227.964844 100.542969 231.535156 95.78125 L 230.871094 95.285156 " fill-opacity="1" fill-rule="nonzero"/><path fill="#ffffff" d="M 243.230469 124.25 C 250.191406 129.476562 260.0625 128.066406 265.289062 121.105469 C 270.503906 114.148438 269.097656 104.273438 262.140625 99.054688 C 255.179688 93.828125 245.304688 95.238281 240.085938 102.199219 C 234.863281 109.15625 236.269531 119.03125 243.230469 124.25 " fill-opacity="1" fill-rule="nonzero"/><path fill="#231f20" d="M 243.230469 124.25 L 242.730469 124.914062 C 245.714844 127.152344 249.207031 128.234375 252.671875 128.234375 C 257.707031 128.238281 262.691406 125.945312 265.949219 121.605469 C 268.1875 118.625 269.269531 115.125 269.269531 111.664062 C 269.269531 106.628906 266.976562 101.644531 262.636719 98.390625 C 259.65625 96.152344 256.160156 95.070312 252.695312 95.070312 C 247.660156 95.066406 242.675781 97.359375 239.421875 101.699219 C 237.183594 104.679688 236.101562 108.179688 236.101562 111.640625 C 236.101562 116.679688 238.390625 121.660156 242.730469 124.914062 L 243.230469 124.25 L 243.730469 123.589844 C 239.816406 120.65625 237.761719 116.179688 237.761719 111.640625 C 237.761719 108.523438 238.730469 105.382812 240.75 102.695312 C 243.679688 98.789062 248.15625 96.726562 252.695312 96.726562 C 255.816406 96.726562 258.953125 97.699219 261.640625 99.714844 C 265.550781 102.648438 267.605469 107.125 267.609375 111.664062 C 267.609375 114.78125 266.636719 117.921875 264.625 120.609375 C 261.6875 124.515625 257.210938 126.578125 252.671875 126.578125 C 249.550781 126.578125 246.414062 125.605469 243.730469 123.589844 L 243.230469 124.25 " fill-opacity="1" fill-rule="nonzero"/><path fill="#ffffff" d="M 246.910156 119.347656 C 251.160156 122.539062 257.191406 121.675781 260.382812 117.429688 C 263.570312 113.175781 262.710938 107.144531 258.457031 103.957031 C 254.207031 100.765625 248.175781 101.625 244.988281 105.875 C 241.796875 110.125 242.660156 116.160156 246.910156 119.347656 " fill-opacity="1" fill-rule="nonzero"/><path fill="#231f20" d="M 246.910156 119.347656 L 246.410156 120.011719 C 248.289062 121.421875 250.496094 122.105469 252.675781 122.105469 C 255.851562 122.105469 258.992188 120.660156 261.046875 117.925781 C 262.453125 116.046875 263.136719 113.839844 263.136719 111.660156 C 263.136719 108.488281 261.691406 105.34375 258.957031 103.292969 C 257.078125 101.882812 254.871094 101.195312 252.691406 101.199219 C 249.515625 101.195312 246.375 102.640625 244.324219 105.378906 C 242.914062 107.257812 242.230469 109.460938 242.234375 111.644531 C 242.230469 114.816406 243.675781 117.960938 246.410156 120.011719 L 247.40625 118.683594 C 245.101562 116.957031 243.890625 114.320312 243.890625 111.644531 C 243.890625 109.804688 244.460938 107.957031 245.652344 106.371094 C 247.378906 104.070312 250.015625 102.859375 252.691406 102.859375 C 254.53125 102.859375 256.375 103.429688 257.960938 104.617188 C 260.265625 106.347656 261.480469 108.984375 261.480469 111.660156 C 261.480469 113.496094 260.90625 115.347656 259.71875 116.929688 C 257.988281 119.234375 255.351562 120.445312 252.675781 120.445312 C 250.835938 120.445312 248.992188 119.875 247.40625 118.683594 L 246.910156 119.347656 " fill-opacity="1" fill-rule="nonzero"/><path fill="#ffffff" d="M 237.40625 100.1875 C 231.085938 108.609375 232.796875 120.609375 241.21875 126.929688 C 249.644531 133.25 261.640625 131.539062 267.960938 123.113281 C 274.285156 114.691406 272.574219 102.691406 264.152344 96.371094 C 255.726562 90.050781 243.730469 91.761719 237.40625 100.1875 Z M 235.265625 98.578125 C 242.472656 88.972656 256.148438 87.023438 265.757812 94.230469 C 275.363281 101.441406 277.3125 115.121094 270.105469 124.726562 C 262.898438 134.332031 249.21875 136.28125 239.613281 129.070312 C 230.007812 121.863281 228.058594 108.1875 235.265625 98.578125 " fill-opacity="1" fill-rule="nonzero"/><path fill="#231f20" d="M 237.40625 100.1875 L 236.742188 99.6875 C 234.058594 103.265625 232.761719 107.464844 232.761719 111.628906 C 232.761719 117.6875 235.507812 123.683594 240.71875 127.59375 C 244.296875 130.277344 248.5 131.574219 252.660156 131.574219 C 258.71875 131.574219 264.714844 128.824219 268.625 123.609375 C 271.3125 120.035156 272.609375 115.835938 272.609375 111.671875 C 272.609375 105.613281 269.855469 99.621094 264.648438 95.710938 C 261.070312 93.027344 256.871094 91.726562 252.710938 91.726562 C 246.648438 91.726562 240.65625 94.476562 236.742188 99.6875 L 238.070312 100.683594 C 241.65625 95.90625 247.144531 93.386719 252.710938 93.386719 C 256.527344 93.386719 260.371094 94.574219 263.652344 97.035156 C 268.429688 100.621094 270.949219 106.113281 270.949219 111.671875 C 270.949219 115.492188 269.761719 119.335938 267.300781 122.617188 C 263.714844 127.398438 258.222656 129.917969 252.660156 129.917969 C 248.84375 129.917969 245 128.726562 241.71875 126.265625 C 236.9375 122.679688 234.421875 117.191406 234.417969 111.628906 C 234.417969 107.808594 235.605469 103.964844 238.070312 100.683594 Z M 235.265625 98.578125 L 235.929688 99.074219 C 240.039062 93.597656 246.332031 90.710938 252.710938 90.710938 C 257.085938 90.710938 261.496094 92.070312 265.257812 94.894531 C 270.738281 99.007812 273.628906 105.304688 273.628906 111.679688 C 273.628906 116.058594 272.265625 120.460938 269.441406 124.226562 C 265.332031 129.707031 259.039062 132.589844 252.65625 132.59375 C 248.277344 132.59375 243.875 131.230469 240.113281 128.410156 C 234.632812 124.296875 231.742188 118 231.742188 111.628906 C 231.742188 107.25 233.101562 102.84375 235.929688 99.078125 L 234.601562 98.082031 C 231.554688 102.140625 230.085938 106.90625 230.085938 111.628906 C 230.085938 118.5 233.203125 125.296875 239.113281 129.734375 C 243.171875 132.777344 247.9375 134.253906 252.65625 134.253906 C 259.53125 134.253906 266.332031 131.132812 270.769531 125.222656 C 273.816406 121.164062 275.285156 116.398438 275.285156 111.679688 C 275.285156 104.804688 272.167969 98.003906 266.257812 93.570312 C 262.195312 90.523438 257.429688 89.050781 252.710938 89.050781 C 245.835938 89.050781 239.035156 92.171875 234.601562 98.082031 L 235.265625 98.578125 " fill-opacity="1" fill-rule="nonzero"/><path fill="#ffffff" d="M 233.351562 80.242188 C 234.3125 78.960938 236.140625 78.699219 237.421875 79.664062 L 288.292969 117.832031 C 289.578125 118.796875 289.835938 120.621094 288.871094 121.90625 L 273.738281 142.074219 C 272.773438 143.355469 270.953125 143.617188 269.667969 142.652344 L 218.800781 104.484375 C 217.515625 103.519531 217.253906 101.695312 218.21875 100.414062 Z M 248.257812 38.433594 L 195.945312 108.144531 L 208.855469 117.832031 C 231.957031 123.410156 246.070312 134.003906 257.882812 154.625 L 271.941406 165.171875 L 324.25 95.460938 C 312.554688 63 282.6875 40.589844 248.257812 38.433594 " fill-opacity="1" fill-rule="nonzero"/><g clip-path="url(#2278818cfb)"><path fill="#231f20" d="M 233.351562 80.242188 L 234.015625 80.742188 C 234.425781 80.195312 235.046875 79.914062 235.679688 79.910156 C 236.117188 79.910156 236.550781 80.046875 236.929688 80.328125 L 287.792969 118.496094 C 288.339844 118.910156 288.625 119.527344 288.625 120.160156 C 288.625 120.597656 288.488281 121.03125 288.207031 121.410156 L 273.074219 141.578125 C 272.664062 142.121094 272.046875 142.40625 271.410156 142.40625 C 270.976562 142.40625 270.539062 142.269531 270.164062 141.992188 L 219.296875 103.820312 C 218.753906 103.410156 218.46875 102.785156 218.464844 102.15625 C 218.464844 101.71875 218.601562 101.289062 218.882812 100.910156 L 234.015625 80.742188 L 233.351562 80.242188 L 232.6875 79.746094 L 217.554688 99.914062 C 217.054688 100.585938 216.808594 101.375 216.808594 102.15625 C 216.808594 103.285156 217.324219 104.414062 218.304688 105.148438 L 269.171875 143.316406 C 269.839844 143.820312 270.632812 144.066406 271.410156 144.066406 C 272.542969 144.066406 273.667969 143.546875 274.402344 142.574219 L 289.535156 122.402344 C 290.035156 121.734375 290.28125 120.941406 290.28125 120.160156 C 290.28125 119.03125 289.765625 117.90625 288.789062 117.171875 L 237.921875 79 C 237.25 78.496094 236.460938 78.25 235.679688 78.25 C 234.546875 78.25 233.421875 78.769531 232.6875 79.746094 Z M 248.257812 38.433594 L 247.59375 37.933594 L 195.28125 107.644531 C 195.003906 108.011719 195.078125 108.53125 195.445312 108.808594 L 208.359375 118.496094 C 208.445312 118.5625 208.554688 118.613281 208.660156 118.640625 C 220.132812 121.410156 229.316406 125.40625 237.105469 131.25 C 244.890625 137.09375 251.296875 144.792969 257.164062 155.039062 C 257.21875 155.132812 257.296875 155.222656 257.386719 155.289062 L 271.441406 165.835938 C 271.617188 165.96875 271.839844 166.023438 272.054688 165.992188 C 272.273438 165.960938 272.472656 165.84375 272.605469 165.667969 L 324.914062 95.960938 C 325.085938 95.734375 325.125 95.441406 325.03125 95.179688 C 313.222656 62.410156 283.070312 39.785156 248.304688 37.609375 C 248.027344 37.589844 247.757812 37.710938 247.59375 37.933594 L 248.257812 38.433594 L 248.203125 39.257812 C 282.304688 41.398438 311.886719 63.59375 323.472656 95.742188 L 324.25 95.460938 L 323.589844 94.960938 L 271.773438 164.011719 L 258.382812 153.960938 L 257.882812 154.625 L 258.601562 154.214844 C 252.65625 143.832031 246.097656 135.925781 238.101562 129.925781 C 230.101562 123.921875 220.675781 119.835938 209.050781 117.027344 L 208.855469 117.832031 L 209.355469 117.167969 L 197.105469 107.976562 L 248.917969 38.933594 L 248.257812 38.433594 L 248.203125 39.257812 L 248.257812 38.433594 " fill-opacity="1" fill-rule="nonzero"/></g><path fill="#ffffff" d="M 243.078125 45.277344 C 277.074219 48.617188 306.355469 70.640625 319.003906 102.394531 L 316.472656 105.761719 C 304.527344 73.464844 274.875 51.171875 240.546875 48.648438 L 243.078125 45.277344 " fill-opacity="1" fill-rule="nonzero"/><path fill="#231f20" d="M 243.078125 45.277344 L 242.992188 46.097656 C 276.6875 49.414062 305.703125 71.238281 318.230469 102.703125 L 319.003906 102.394531 L 318.339844 101.894531 L 315.808594 105.269531 L 316.472656 105.761719 L 317.25 105.476562 C 305.191406 72.871094 275.257812 50.367188 240.605469 47.824219 L 240.546875 48.648438 L 241.210938 49.148438 L 243.738281 45.777344 L 243.078125 45.277344 L 242.992188 46.097656 L 243.078125 45.277344 L 242.414062 44.777344 L 239.882812 48.148438 C 239.699219 48.390625 239.664062 48.714844 239.789062 48.992188 C 239.917969 49.265625 240.183594 49.453125 240.484375 49.472656 C 274.488281 51.972656 303.863281 74.058594 315.695312 106.050781 C 315.800781 106.335938 316.050781 106.539062 316.351562 106.585938 C 316.652344 106.628906 316.953125 106.503906 317.136719 106.261719 L 319.667969 102.890625 C 319.835938 102.660156 319.878906 102.355469 319.773438 102.085938 C 307.011719 70.046875 277.464844 47.824219 243.15625 44.449219 C 242.867188 44.421875 242.589844 44.546875 242.414062 44.777344 L 243.078125 45.277344 " fill-opacity="1" fill-rule="nonzero"/><path fill="#ffffff" d="M 238.582031 51.265625 C 272.585938 54.605469 301.859375 76.628906 314.511719 108.382812 L 311.976562 111.75 C 300.035156 79.457031 270.378906 57.160156 236.050781 54.636719 L 238.582031 51.265625 " fill-opacity="1" fill-rule="nonzero"/><path fill="#231f20" d="M 238.582031 51.265625 L 238.5 52.089844 C 272.195312 55.402344 301.207031 77.222656 313.738281 108.691406 L 314.511719 108.382812 L 313.847656 107.882812 L 311.3125 111.253906 L 311.976562 111.75 L 312.753906 111.464844 C 300.699219 78.863281 270.765625 56.351562 236.113281 53.808594 L 236.050781 54.636719 L 236.714844 55.136719 L 239.246094 51.765625 L 238.582031 51.265625 L 238.5 52.089844 L 238.582031 51.265625 L 237.917969 50.765625 L 235.390625 54.136719 C 235.203125 54.378906 235.171875 54.699219 235.300781 54.980469 C 235.421875 55.253906 235.6875 55.4375 235.992188 55.460938 C 269.996094 57.960938 299.367188 80.050781 311.199219 112.039062 C 311.308594 112.324219 311.558594 112.527344 311.859375 112.574219 C 312.160156 112.617188 312.457031 112.492188 312.640625 112.25 L 315.171875 108.882812 C 315.347656 108.648438 315.382812 108.34375 315.277344 108.074219 C 302.519531 76.035156 272.972656 53.8125 238.664062 50.4375 C 238.375 50.410156 238.09375 50.53125 237.917969 50.765625 L 238.582031 51.265625 " fill-opacity="1" fill-rule="nonzero"/><path fill="#ffffff" d="M 234.085938 57.253906 C 268.089844 60.59375 297.367188 82.621094 310.015625 114.367188 L 307.484375 117.738281 C 295.539062 85.441406 265.886719 63.148438 231.558594 60.625 L 234.085938 57.253906 " fill-opacity="1" fill-rule="nonzero"/><path fill="#231f20" d="M 234.085938 57.253906 L 234.007812 58.078125 C 267.699219 61.390625 296.710938 83.214844 309.246094 114.675781 L 310.015625 114.367188 L 309.351562 113.871094 L 306.820312 117.242188 L 307.484375 117.738281 L 308.261719 117.453125 C 296.207031 84.851562 266.273438 62.34375 231.621094 59.796875 L 231.558594 60.625 L 232.222656 61.121094 L 234.75 57.75 L 234.085938 57.253906 L 234.007812 58.078125 L 234.085938 57.253906 L 233.421875 56.753906 L 230.894531 60.125 C 230.714844 60.371094 230.675781 60.6875 230.804688 60.96875 C 230.929688 61.242188 231.195312 61.425781 231.496094 61.449219 C 265.5 63.949219 294.875 86.035156 306.707031 118.027344 C 306.8125 118.3125 307.066406 118.515625 307.367188 118.5625 C 307.667969 118.605469 307.964844 118.480469 308.148438 118.238281 L 310.679688 114.867188 C 310.851562 114.636719 310.894531 114.328125 310.785156 114.0625 C 298.023438 82.023438 268.476562 59.800781 234.167969 56.425781 C 233.878906 56.398438 233.597656 56.519531 233.421875 56.753906 L 234.085938 57.253906 " fill-opacity="1" fill-rule="nonzero"/><path fill="#ffffff" d="M 229.59375 63.242188 C 263.597656 66.585938 292.875 88.605469 305.519531 120.359375 L 302.992188 123.730469 C 291.046875 91.433594 261.394531 69.136719 227.0625 66.613281 L 229.59375 63.242188 " fill-opacity="1" fill-rule="nonzero"/><path fill="#231f20" d="M 229.59375 63.242188 L 229.511719 64.0625 C 263.207031 67.378906 292.214844 89.203125 304.75 120.667969 L 305.519531 120.359375 L 304.855469 119.859375 L 302.328125 123.230469 L 302.992188 123.730469 L 303.769531 123.441406 C 291.710938 90.839844 261.777344 68.332031 227.125 65.785156 L 227.0625 66.613281 L 227.726562 67.109375 L 230.257812 63.738281 L 229.59375 63.242188 L 229.511719 64.0625 L 229.59375 63.242188 L 228.933594 62.742188 L 226.402344 66.113281 C 226.21875 66.355469 226.1875 66.675781 226.308594 66.957031 C 226.433594 67.230469 226.699219 67.414062 227.003906 67.4375 C 261.007812 69.9375 290.382812 92.023438 302.214844 124.019531 C 302.320312 124.304688 302.570312 124.507812 302.871094 124.550781 C 303.171875 124.59375 303.472656 124.472656 303.65625 124.226562 L 306.183594 120.855469 C 306.355469 120.625 306.398438 120.320312 306.289062 120.050781 C 293.527344 88.011719 263.984375 65.789062 229.675781 62.414062 C 229.386719 62.386719 229.105469 62.507812 228.933594 62.742188 L 229.59375 63.242188 " fill-opacity="1" fill-rule="nonzero"/></svg>