<svg xmlns="http://www.w3.org/2000/svg" xmlns:xlink="http://www.w3.org/1999/xlink" width="20" zoomAndPan="magnify" viewBox="0 0 375 374.999991" height="20" preserveAspectRatio="xMidYMid meet" version="1.0"><defs><clipPath id="2e5227e0f1"><path d="M 54.1875 37.5 L 206 37.5 L 206 295 L 54.1875 295 Z M 54.1875 37.5 " clip-rule="nonzero"/></clipPath><clipPath id="93380d99ba"><path d="M 134 79 L 321 79 L 321 337.5 L 134 337.5 Z M 134 79 " clip-rule="nonzero"/></clipPath></defs><g clip-path="url(#2e5227e0f1)"><path fill="white" d="M 155.332031 37.5 C 159.132812 38.371094 163.015625 39.003906 166.816406 40.03125 C 182.816406 44.617188 195.488281 53.792969 205.308594 67.476562 C 175.054688 77.046875 154.460938 96.425781 145.90625 127.035156 C 137.195312 158.355469 146.9375 184.769531 169.667969 207.234375 C 137.90625 227.796875 117.234375 254.691406 119.136719 294.710938 C 118.027344 294.789062 117.15625 294.949219 116.285156 294.949219 C 106.066406 294.949219 95.851562 295.027344 85.554688 294.949219 C 69.554688 294.867188 57.59375 284.664062 54.820312 268.925781 C 54.742188 268.214844 54.503906 267.582031 54.269531 266.949219 L 54.269531 240.214844 C 54.425781 239.425781 54.742188 238.632812 54.820312 237.84375 C 55.695312 228.429688 58.703125 219.652344 63.457031 211.582031 C 75.414062 191.414062 93.15625 178.285156 114.621094 169.742188 C 116.046875 169.191406 117.472656 168.636719 118.265625 168.320312 C 111.453125 162.625 104.167969 157.40625 97.910156 151.15625 C 86.109375 139.292969 78.582031 124.898438 78.265625 107.65625 C 77.632812 76.175781 99.492188 47.703125 130.066406 39.871094 C 133.550781 39.003906 137.117188 38.289062 140.679688 37.5 Z M 155.332031 37.5 " fill-opacity="1" fill-rule="nonzero"/></g><g clip-path="url(#93380d99ba)"><path fill="white" d="M 198.578125 210.554688 C 193.90625 207.15625 189.074219 204.070312 184.71875 200.351562 C 171.726562 189.359375 161.90625 176.070312 159.054688 158.90625 C 155.808594 139.371094 160.796875 121.574219 173.3125 106.390625 C 191.210938 84.558594 214.734375 75.703125 242.378906 81.714844 C 271.523438 88.039062 289.582031 106.945312 296.078125 136.050781 C 301.070312 158.273438 293.703125 177.257812 278.335938 193.234375 C 272.554688 199.167969 265.425781 203.832031 258.851562 209.054688 C 258.21875 209.527344 257.585938 209.921875 256.554688 210.554688 C 260.277344 212.136719 263.761719 213.402344 267.089844 214.984375 C 287.367188 224.476562 303.917969 238 314.296875 258.25 C 318.652344 266.710938 321.105469 275.726562 320.789062 285.378906 C 320.550781 293.050781 320.710938 300.722656 320.710938 308.472656 C 320.710938 322.15625 310.574219 334.414062 297.109375 336.945312 C 295.050781 337.34375 292.910156 337.5 290.773438 337.5 L 164.597656 337.5 C 148.601562 337.5 135.054688 325.242188 134.582031 309.265625 C 134.265625 297.875 134.027344 286.328125 135.691406 275.09375 C 138.304688 257.617188 148.519531 243.933594 161.511719 232.304688 C 171.648438 223.210938 183.292969 216.566406 196.042969 211.820312 C 196.835938 211.503906 197.546875 211.265625 198.261719 210.949219 C 198.5 210.871094 198.578125 210.632812 198.578125 210.554688 Z M 198.578125 210.554688 " fill-opacity="1" fill-rule="nonzero"/></g></svg>