<svg xmlns="http://www.w3.org/2000/svg" xmlns:xlink="http://www.w3.org/1999/xlink" width="100" zoomAndPan="magnify" viewBox="0 0 375 374.999991" height="100" preserveAspectRatio="xMidYMid meet" version="1.0"><defs><clipPath id="f48722a3ba"><path d="M 53.386719 123.480469 L 321.613281 123.480469 L 321.613281 338.058594 L 53.386719 338.058594 Z M 53.386719 123.480469 " clip-rule="nonzero"/></clipPath><clipPath id="fe228bc045"><path d="M 53.386719 80.488281 L 321.613281 80.488281 L 321.613281 295.070312 L 53.386719 295.070312 Z M 53.386719 80.488281 " clip-rule="nonzero"/></clipPath><clipPath id="6ef4445472"><path d="M 53.386719 37.5 L 321.613281 37.5 L 321.613281 252.078125 L 53.386719 252.078125 Z M 53.386719 37.5 " clip-rule="nonzero"/></clipPath></defs><path fill="#ffffff" d="M 216.515625 184.359375 L 86.703125 268.660156 L 57.527344 249.710938 L 57.910156 212.542969 L 86.449219 225.496094 L 187.335938 165.414062 Z M 216.515625 184.359375 " fill-opacity="1" fill-rule="evenodd"/><path fill="#ffffff" d="M 317.527344 211.574219 L 317.527344 249.953125 L 188.03125 334.050781 L 158.851562 315.101562 L 159.234375 272.378906 L 188.03125 290.925781 Z M 317.527344 211.574219 " fill-opacity="1" fill-rule="evenodd"/><path fill="#ffffff" d="M 187.40625 127.761719 L 317.527344 211.574219 L 188.03125 296.355469 L 57.910156 212.542969 Z M 187.40625 127.761719 " fill-opacity="1" fill-rule="evenodd"/><path fill="#ffffff" d="M 188.03125 296.355469 L 210.007812 281.96875 C 166.808594 253.914062 123.609375 225.863281 80.414062 197.808594 L 57.910156 212.542969 C 101.28125 240.480469 144.65625 268.417969 188.03125 296.355469 Z M 273.769531 240.222656 C 230.570312 212.167969 187.371094 184.117188 144.175781 156.0625 L 165.429688 142.148438 L 295.023438 226.308594 Z M 231.261719 268.054688 C 188.0625 240 144.863281 211.945312 101.667969 183.894531 L 122.921875 169.976562 L 252.515625 254.136719 Z M 231.261719 268.054688 " fill-opacity="1" fill-rule="evenodd"/><path fill="#ffffff" d="M 159.234375 277.808594 L 188.03125 296.355469 L 188.03125 334.050781 L 158.851562 315.101562 Z M 159.234375 277.808594 " fill-opacity="1" fill-rule="evenodd"/><path fill="#ffffff" d="M 57.910156 212.542969 L 86.703125 231.09375 L 86.703125 268.660156 L 57.527344 249.710938 Z M 57.910156 212.542969 " fill-opacity="1" fill-rule="evenodd"/><g clip-path="url(#f48722a3ba)"><path fill="#000000" d="M 191.476562 327.332031 L 191.34375 298.71875 L 313.925781 218.464844 L 313.925781 247.8125 Z M 162.292969 284.289062 L 183.761719 298.117188 L 183.890625 327.289062 L 162.292969 313.257812 Z M 90.34375 261.867188 L 90.34375 237.949219 L 108.835938 249.855469 Z M 61.445312 219.328125 L 82.761719 233.066406 L 82.761719 261.867188 L 61.152344 247.828125 Z M 273.882812 235.601562 L 288.230469 226.210938 L 165.421875 146.464844 L 151.09375 155.859375 Z M 252.601562 249.535156 L 266.941406 240.148438 L 144.148438 160.40625 L 129.820312 169.800781 Z M 231.316406 263.472656 L 245.652344 254.085938 L 122.882812 174.351562 L 108.550781 183.746094 Z M 210.035156 277.40625 L 224.371094 268.019531 L 101.613281 188.296875 L 87.285156 197.691406 Z M 188.015625 291.824219 L 203.082031 281.957031 L 80.339844 202.246094 L 64.785156 212.445312 Z M 187.425781 132.039062 L 172.367188 141.910156 L 295.171875 221.664062 L 310.742188 211.46875 Z M 321.507812 211.445312 C 321.507812 210.152344 320.855469 208.949219 319.765625 208.246094 L 189.453125 124.308594 C 188.199219 123.5 186.585938 123.503906 185.328125 124.324219 L 55.640625 209.355469 C 54.585938 210.046875 53.941406 211.222656 53.925781 212.496094 L 53.546875 249.84375 C 53.53125 251.144531 54.183594 252.363281 55.273438 253.074219 L 84.496094 272.046875 C 85.746094 272.863281 87.359375 272.863281 88.617188 272.046875 L 115.835938 254.367188 L 154.707031 279.40625 L 154.707031 315.328125 C 154.707031 316.617188 155.359375 317.820312 156.433594 318.519531 L 185.660156 337.492188 C 186.28125 337.898438 187.003906 338.105469 187.714844 338.105469 C 188.4375 338.105469 189.152344 337.902344 189.78125 337.492188 L 319.78125 253.074219 C 320.859375 252.371094 321.507812 251.167969 321.507812 249.882812 Z M 321.507812 211.445312 " fill-opacity="1" fill-rule="evenodd"/></g><path fill="#ffffff" d="M 216.515625 141.371094 L 86.703125 225.667969 L 57.527344 206.722656 L 57.910156 169.550781 L 86.449219 182.507812 L 187.335938 122.421875 Z M 216.515625 141.371094 " fill-opacity="1" fill-rule="evenodd"/><path fill="#ffffff" d="M 317.527344 168.585938 L 317.527344 206.964844 L 188.03125 291.058594 L 158.851562 272.113281 L 159.234375 229.386719 L 188.03125 247.933594 Z M 317.527344 168.585938 " fill-opacity="1" fill-rule="evenodd"/><path fill="#ffffff" d="M 187.40625 84.769531 L 317.527344 168.585938 L 188.03125 253.367188 L 57.910156 169.550781 Z M 187.40625 84.769531 " fill-opacity="1" fill-rule="evenodd"/><path fill="#ffffff" d="M 188.03125 253.367188 L 210.007812 238.976562 C 166.808594 210.925781 123.609375 182.871094 80.414062 154.820312 L 57.910156 169.550781 C 101.28125 197.488281 144.65625 225.429688 188.03125 253.367188 Z M 273.769531 197.234375 C 230.570312 169.179688 187.371094 141.128906 144.175781 113.074219 L 165.429688 99.160156 L 295.023438 183.320312 Z M 231.261719 225.0625 C 188.0625 197.011719 144.863281 168.957031 101.667969 140.902344 L 122.921875 126.988281 L 252.515625 211.148438 Z M 231.261719 225.0625 " fill-opacity="1" fill-rule="evenodd"/><path fill="#ffffff" d="M 159.234375 234.820312 L 188.03125 253.367188 L 188.03125 291.058594 L 158.851562 272.113281 Z M 159.234375 234.820312 " fill-opacity="1" fill-rule="evenodd"/><path fill="#ffffff" d="M 57.910156 169.550781 L 86.703125 188.101562 L 86.703125 225.667969 L 57.527344 206.722656 Z M 57.910156 169.550781 " fill-opacity="1" fill-rule="evenodd"/><g clip-path="url(#fe228bc045)"><path fill="#000000" d="M 191.476562 284.34375 L 191.34375 255.730469 L 313.925781 175.476562 L 313.925781 204.824219 Z M 162.292969 241.300781 L 183.761719 255.128906 L 183.890625 284.300781 L 162.292969 270.269531 Z M 90.34375 218.875 L 90.34375 194.957031 L 108.835938 206.867188 Z M 61.445312 176.339844 L 82.761719 190.074219 L 82.761719 218.875 L 61.152344 204.839844 Z M 273.882812 192.613281 L 288.230469 183.222656 L 165.421875 103.472656 L 151.09375 112.867188 Z M 252.601562 206.546875 L 266.941406 197.160156 L 144.148438 117.417969 L 129.820312 126.8125 Z M 231.316406 220.480469 L 245.652344 211.09375 L 122.882812 131.363281 L 108.550781 140.757812 Z M 210.035156 234.417969 L 224.371094 225.03125 L 101.613281 145.308594 L 87.285156 154.703125 Z M 188.015625 248.832031 L 203.082031 238.964844 L 80.339844 159.253906 L 64.785156 169.453125 Z M 187.425781 89.046875 L 172.367188 98.921875 L 295.171875 178.675781 L 310.742188 168.480469 Z M 321.507812 168.453125 C 321.507812 167.160156 320.855469 165.957031 319.765625 165.257812 L 189.453125 81.320312 C 188.199219 80.507812 186.585938 80.515625 185.328125 81.335938 L 55.640625 166.363281 C 54.585938 167.058594 53.941406 168.234375 53.925781 169.503906 L 53.546875 206.851562 C 53.53125 208.15625 54.183594 209.375 55.273438 210.082031 L 84.496094 229.058594 C 85.746094 229.875 87.359375 229.875 88.617188 229.058594 L 115.835938 211.378906 L 154.707031 236.414062 L 154.707031 272.335938 C 154.707031 273.628906 155.359375 274.828125 156.433594 275.527344 L 185.660156 294.503906 C 186.28125 294.910156 187.003906 295.117188 187.714844 295.117188 C 188.4375 295.117188 189.152344 294.910156 189.78125 294.503906 L 319.78125 210.082031 C 320.859375 209.382812 321.507812 208.179688 321.507812 206.890625 Z M 321.507812 168.453125 " fill-opacity="1" fill-rule="evenodd"/></g><path fill="#ffffff" d="M 216.515625 98.382812 L 86.703125 182.679688 L 57.527344 163.730469 L 57.910156 126.5625 L 86.449219 139.519531 L 187.335938 79.433594 Z M 216.515625 98.382812 " fill-opacity="1" fill-rule="evenodd"/><path fill="#ffffff" d="M 317.527344 125.59375 L 317.527344 163.972656 L 188.03125 248.070312 L 158.851562 229.121094 L 159.234375 186.398438 L 188.03125 204.945312 Z M 317.527344 125.59375 " fill-opacity="1" fill-rule="evenodd"/><path fill="#ffffff" d="M 187.40625 41.78125 L 317.527344 125.59375 L 188.03125 210.378906 L 57.910156 126.5625 Z M 187.40625 41.78125 " fill-opacity="1" fill-rule="evenodd"/><path fill="#ffffff" d="M 188.03125 210.378906 L 210.007812 195.988281 C 166.808594 167.933594 123.609375 139.882812 80.414062 111.828125 L 57.910156 126.5625 C 101.28125 154.5 144.65625 182.4375 188.03125 210.378906 Z M 273.769531 154.242188 C 230.570312 126.191406 187.371094 98.136719 144.175781 70.085938 L 165.429688 56.167969 L 295.023438 140.328125 Z M 231.261719 182.074219 C 188.0625 154.019531 144.863281 125.96875 101.667969 97.914062 L 122.921875 84 L 252.515625 168.160156 Z M 231.261719 182.074219 " fill-opacity="1" fill-rule="evenodd"/><path fill="#ffffff" d="M 159.234375 191.828125 L 188.03125 210.378906 L 188.03125 248.070312 L 158.851562 229.121094 Z M 159.234375 191.828125 " fill-opacity="1" fill-rule="evenodd"/><path fill="#ffffff" d="M 57.910156 126.5625 L 86.703125 145.113281 L 86.703125 182.679688 L 57.527344 163.730469 Z M 57.910156 126.5625 " fill-opacity="1" fill-rule="evenodd"/><g clip-path="url(#6ef4445472)"><path fill="#000000" d="M 191.476562 241.351562 L 191.34375 212.742188 L 313.925781 132.488281 L 313.925781 161.832031 Z M 162.292969 198.308594 L 183.761719 212.140625 L 183.890625 241.308594 L 162.292969 227.28125 Z M 90.34375 175.886719 L 90.34375 151.96875 L 108.835938 163.878906 Z M 61.445312 133.347656 L 82.761719 147.085938 L 82.761719 175.886719 L 61.152344 161.847656 Z M 273.882812 149.621094 L 288.230469 140.234375 L 165.421875 60.484375 L 151.09375 69.878906 Z M 252.601562 163.554688 L 266.941406 154.167969 L 144.148438 74.425781 L 129.820312 83.820312 Z M 231.316406 177.492188 L 245.652344 168.105469 L 122.882812 88.375 L 108.550781 97.769531 Z M 210.035156 191.425781 L 224.371094 182.039062 L 101.613281 102.320312 L 87.285156 111.714844 Z M 188.015625 205.84375 L 203.082031 195.976562 L 80.339844 116.265625 L 64.785156 126.464844 Z M 187.425781 46.058594 L 172.367188 55.933594 L 295.171875 135.683594 L 310.742188 125.492188 Z M 321.507812 125.464844 C 321.507812 124.171875 320.855469 122.96875 319.765625 122.269531 L 189.453125 38.332031 C 188.199219 37.519531 186.585938 37.527344 185.328125 38.34375 L 55.640625 123.375 C 54.585938 124.066406 53.941406 125.246094 53.925781 126.515625 L 53.546875 163.863281 C 53.53125 165.167969 54.183594 166.386719 55.273438 167.09375 L 84.496094 186.070312 C 85.746094 186.882812 87.359375 186.882812 88.617188 186.070312 L 115.835938 168.390625 L 154.707031 193.425781 L 154.707031 229.347656 C 154.707031 230.636719 155.359375 231.839844 156.433594 232.539062 L 185.660156 251.515625 C 186.28125 251.921875 187.003906 252.125 187.714844 252.125 C 188.4375 252.125 189.152344 251.921875 189.78125 251.515625 L 319.78125 167.09375 C 320.859375 166.394531 321.507812 165.191406 321.507812 163.902344 Z M 321.507812 125.464844 " fill-opacity="1" fill-rule="evenodd"/></g></svg>