<svg xmlns="http://www.w3.org/2000/svg" xmlns:xlink="http://www.w3.org/1999/xlink" width="100" zoomAndPan="magnify" viewBox="0 0 375 374.999991" height="100" preserveAspectRatio="xMidYMid meet" version="1.0"><defs><clipPath id="93c53ffa8f"><path d="M 200 60 L 278 60 L 278 114 L 200 114 Z M 200 60 " clip-rule="nonzero"/></clipPath><clipPath id="d2bce1eb43"><path d="M 75.375 45 L 75.375 330 C 75.375 334.140625 78.734375 337.5 82.875 337.5 L 292.125 337.5 C 296.265625 337.5 299.625 334.140625 299.625 330 L 299.625 45 C 299.625 40.859375 296.265625 37.5 292.125 37.5 L 82.875 37.5 C 78.734375 37.5 75.375 40.859375 75.375 45 Z M 75.375 45 " clip-rule="nonzero"/></clipPath><clipPath id="7a1da7bb34"><path d="M 75.5 37.5 L 299.511719 37.5 L 299.511719 337.5 L 75.5 337.5 Z M 75.5 37.5 " clip-rule="nonzero"/></clipPath><clipPath id="800efbbe7d"><path d="M 75.375 45 L 75.375 330 C 75.375 334.140625 78.734375 337.5 82.875 337.5 L 292.125 337.5 C 296.265625 337.5 299.625 334.140625 299.625 330 L 299.625 45 C 299.625 40.859375 296.265625 37.5 292.125 37.5 L 82.875 37.5 C 78.734375 37.5 75.375 40.859375 75.375 45 Z M 75.375 45 " clip-rule="nonzero"/></clipPath><clipPath id="596a105a52"><path d="M 97 144 L 278 144 L 278 282 L 97 282 Z M 97 144 " clip-rule="nonzero"/></clipPath><clipPath id="79d099c46c"><path d="M 75.375 45 L 75.375 330 C 75.375 334.140625 78.734375 337.5 82.875 337.5 L 292.125 337.5 C 296.265625 337.5 299.625 334.140625 299.625 330 L 299.625 45 C 299.625 40.859375 296.265625 37.5 292.125 37.5 L 82.875 37.5 C 78.734375 37.5 75.375 40.859375 75.375 45 Z M 75.375 45 " clip-rule="nonzero"/></clipPath><clipPath id="1d4a214177"><path d="M 145 170 L 230 170 L 230 255 L 145 255 Z M 145 170 " clip-rule="nonzero"/></clipPath><clipPath id="5e2ae7f550"><path d="M 75.375 45 L 75.375 330 C 75.375 334.140625 78.734375 337.5 82.875 337.5 L 292.125 337.5 C 296.265625 337.5 299.625 334.140625 299.625 330 L 299.625 45 C 299.625 40.859375 296.265625 37.5 292.125 37.5 L 82.875 37.5 C 78.734375 37.5 75.375 40.859375 75.375 45 Z M 75.375 45 " clip-rule="nonzero"/></clipPath><clipPath id="2b14914ac2"><path d="M 165 182 L 210 182 L 210 244 L 165 244 Z M 165 182 " clip-rule="nonzero"/></clipPath><clipPath id="2983f96293"><path d="M 75.375 45 L 75.375 330 C 75.375 334.140625 78.734375 337.5 82.875 337.5 L 292.125 337.5 C 296.265625 337.5 299.625 334.140625 299.625 330 L 299.625 45 C 299.625 40.859375 296.265625 37.5 292.125 37.5 L 82.875 37.5 C 78.734375 37.5 75.375 40.859375 75.375 45 Z M 75.375 45 " clip-rule="nonzero"/></clipPath></defs><g clip-path="url(#93c53ffa8f)"><g clip-path="url(#d2bce1eb43)"><path fill="white" d="M 271.972656 102.59375 C 271.972656 105.714844 269.472656 108.253906 266.394531 108.253906 L 211.324219 108.253906 C 208.195312 108.253906 205.746094 105.769531 205.746094 102.59375 L 205.746094 71.355469 C 205.746094 68.230469 208.246094 65.691406 211.324219 65.691406 L 266.394531 65.691406 C 269.417969 65.691406 271.972656 68.285156 271.972656 71.355469 Z M 266.394531 60.246094 L 211.324219 60.246094 C 205.246094 60.246094 200.300781 65.230469 200.300781 71.355469 L 200.300781 102.59375 C 200.300781 108.820312 205.144531 113.695312 211.324219 113.695312 L 266.394531 113.695312 C 272.472656 113.695312 277.417969 108.714844 277.417969 102.59375 L 277.417969 71.355469 C 277.417969 65.230469 272.472656 60.246094 266.394531 60.246094 " fill-opacity="1" fill-rule="nonzero"/></g></g><g clip-path="url(#7a1da7bb34)"><g clip-path="url(#800efbbe7d)"><path fill="white" d="M 294.066406 126.652344 L 80.941406 126.652344 L 80.941406 109.777344 C 80.941406 99.335938 87.988281 90.835938 96.652344 90.835938 C 98.15625 90.835938 99.375 89.617188 99.375 88.113281 L 99.375 80.386719 L 153.636719 80.386719 L 153.636719 88.113281 C 153.636719 89.617188 154.855469 90.835938 156.359375 90.835938 L 180.824219 90.835938 C 182.328125 90.835938 183.546875 89.617188 183.546875 88.113281 L 183.546875 65.585938 C 183.546875 54.792969 192.722656 42.941406 201.085938 42.941406 L 276.636719 42.941406 C 284.785156 42.941406 294.066406 55.003906 294.066406 65.585938 Z M 294.066406 301.359375 L 80.941406 301.359375 L 80.941406 132.09375 L 294.066406 132.09375 Z M 294.066406 313.222656 C 294.066406 323.609375 287.070312 332.058594 278.464844 332.058594 L 96.652344 332.058594 C 87.988281 332.058594 80.941406 323.609375 80.941406 313.222656 L 80.941406 306.800781 L 294.066406 306.800781 Z M 93.417969 74.945312 C 93.019531 74.945312 92.582031 74.652344 92.582031 74.183594 L 92.582031 53.171875 C 92.582031 52.839844 92.976562 52.410156 93.417969 52.410156 L 159.59375 52.410156 C 159.921875 52.410156 160.316406 52.832031 160.316406 53.171875 L 160.316406 74.183594 C 160.316406 74.617188 159.933594 74.945312 159.59375 74.945312 Z M 276.636719 37.5 L 201.085938 37.5 C 189.703125 37.5 178.101562 51.671875 178.101562 65.585938 L 178.101562 85.394531 L 159.082031 85.394531 L 159.082031 80.386719 L 159.59375 80.386719 C 162.996094 80.386719 165.761719 77.601562 165.761719 74.183594 L 165.761719 53.171875 C 165.761719 49.808594 162.933594 46.964844 159.59375 46.964844 L 93.417969 46.964844 C 90.011719 46.964844 87.140625 49.808594 87.140625 53.171875 L 87.140625 74.183594 C 87.140625 77.601562 89.957031 80.386719 93.417969 80.386719 L 93.933594 80.386719 L 93.933594 85.59375 C 83.550781 87.136719 75.5 97.394531 75.5 109.777344 L 75.5 313.222656 C 75.5 326.609375 84.988281 337.5 96.652344 337.5 L 278.464844 337.5 C 290.070312 337.5 299.511719 326.609375 299.511719 313.222656 L 299.511719 65.585938 C 299.511719 52.941406 288.957031 37.5 276.636719 37.5 " fill-opacity="1" fill-rule="nonzero"/></g></g><g clip-path="url(#596a105a52)"><g clip-path="url(#79d099c46c)"><path fill="white" d="M 103.253906 159.632812 C 103.253906 154.046875 107.738281 149.507812 113.25 149.507812 L 261.871094 149.507812 C 267.320312 149.507812 271.757812 154.046875 271.757812 159.632812 L 271.757812 265.761719 C 271.757812 271.195312 267.230469 275.777344 261.871094 275.777344 L 113.25 275.777344 C 107.738281 275.777344 103.253906 271.289062 103.253906 265.761719 Z M 113.25 281.222656 L 261.871094 281.222656 C 270.324219 281.222656 277.199219 274.285156 277.199219 265.761719 L 277.199219 159.632812 C 277.199219 151.046875 270.324219 144.066406 261.871094 144.066406 L 113.25 144.066406 C 104.734375 144.066406 97.808594 151.046875 97.808594 159.632812 L 97.808594 265.761719 C 97.808594 274.285156 104.734375 281.222656 113.25 281.222656 " fill-opacity="1" fill-rule="nonzero"/></g></g><g clip-path="url(#1d4a214177)"><g clip-path="url(#5e2ae7f550)"><path fill="white" d="M 187.503906 176.070312 C 207.457031 176.070312 223.691406 192.476562 223.691406 212.644531 C 223.691406 232.808594 207.457031 249.214844 187.503906 249.214844 C 167.554688 249.214844 151.320312 232.808594 151.320312 212.644531 C 151.320312 192.476562 167.554688 176.070312 187.503906 176.070312 Z M 187.503906 254.660156 C 210.457031 254.660156 229.132812 235.816406 229.132812 212.644531 C 229.132812 189.476562 210.457031 170.628906 187.503906 170.628906 C 164.550781 170.628906 145.878906 189.476562 145.878906 212.644531 C 145.878906 235.816406 164.550781 254.660156 187.503906 254.660156 " fill-opacity="1" fill-rule="nonzero"/></g></g><g clip-path="url(#2b14914ac2)"><g clip-path="url(#2983f96293)"><path fill="white" d="M 179.355469 204.648438 C 181.964844 200.550781 184.839844 196.042969 187.53125 190.898438 C 190.558594 196.644531 193.597656 201.410156 196.144531 205.410156 C 200.5 212.253906 203.644531 217.191406 203.644531 221.785156 C 203.644531 232.816406 195.277344 237.839844 187.503906 237.839844 C 179.734375 237.839844 171.367188 232.816406 171.367188 221.785156 C 171.367188 217.199219 174.894531 211.660156 179.355469 204.648438 Z M 172.738281 237.910156 C 176.652344 241.375 181.902344 243.285156 187.503906 243.285156 C 198.230469 243.285156 209.089844 235.902344 209.089844 221.785156 C 209.089844 215.609375 205.402344 209.820312 200.734375 202.488281 C 197.402344 197.261719 193.628906 191.332031 189.960938 183.605469 C 189.511719 182.652344 188.605469 182.039062 187.480469 182.054688 C 186.425781 182.0625 185.46875 182.683594 185.027344 183.648438 C 181.859375 190.582031 178.089844 196.503906 174.769531 201.726562 C 169.824219 209.488281 165.925781 215.617188 165.925781 221.785156 C 165.925781 228.386719 168.277344 233.964844 172.738281 237.910156 " fill-opacity="1" fill-rule="nonzero"/></g></g></svg>