<svg xmlns="http://www.w3.org/2000/svg" xmlns:xlink="http://www.w3.org/1999/xlink" width="500" zoomAndPan="magnify" viewBox="0 0 375 374.999991" height="500" preserveAspectRatio="xMidYMid meet" version="1.0"><defs><clipPath id="c58cee94e2"><path d="M 37.5 66 L 309 66 L 309 337.5 L 37.5 337.5 Z M 37.5 66 " clip-rule="nonzero"/></clipPath><clipPath id="e575525dfa"><path d="M 211 37.5 L 337.5 37.5 L 337.5 164 L 211 164 Z M 211 37.5 " clip-rule="nonzero"/></clipPath></defs><path fill="#000000" d="M 66.53125 206.855469 C 63.867188 206.855469 61.695312 204.679688 61.695312 202.015625 C 61.695312 176.859375 70.371094 152.191406 86.09375 132.554688 C 87.757812 130.476562 90.800781 130.117188 92.898438 131.796875 C 94.980469 133.460938 95.320312 136.523438 93.636719 138.601562 C 79.082031 156.785156 71.371094 178.730469 71.371094 202.015625 C 71.371094 204.679688 69.199219 206.855469 66.53125 206.855469 " fill-opacity="1" fill-rule="nonzero"/><path fill="#000000" d="M 110.96875 120.382812 C 109.476562 120.382812 108 119.683594 107.039062 118.359375 C 105.488281 116.1875 105.980469 113.160156 108.152344 111.613281 C 113.40625 107.832031 119.019531 104.484375 124.824219 101.6875 C 127.242188 100.535156 130.136719 101.539062 131.289062 103.957031 C 132.441406 106.355469 131.4375 109.25 129.039062 110.402344 C 123.726562 112.953125 118.605469 116.015625 113.804688 119.472656 C 112.953125 120.078125 111.953125 120.382812 110.96875 120.382812 " fill-opacity="1" fill-rule="nonzero"/><g clip-path="url(#c58cee94e2)"><path fill="#000000" d="M 172.984375 337.5 C 98.265625 337.425781 37.5 276.65625 37.5 202.015625 C 37.5 127.375 98.265625 66.609375 172.984375 66.53125 C 183.246094 66.550781 193.472656 67.703125 203.378906 69.972656 C 205.984375 70.578125 207.609375 73.167969 207.007812 75.773438 C 206.421875 78.382812 203.8125 80.007812 201.222656 79.402344 C 192.015625 77.285156 182.511719 76.230469 172.984375 76.210938 C 103.617188 76.265625 47.175781 132.707031 47.175781 202.015625 C 47.175781 271.328125 103.617188 327.765625 172.984375 327.824219 C 242.351562 327.765625 298.789062 271.328125 298.789062 202.015625 C 298.789062 192.585938 297.730469 183.191406 295.671875 174.082031 C 295.085938 171.472656 296.730469 168.882812 299.320312 168.296875 C 301.945312 167.691406 304.515625 169.335938 305.121094 171.945312 C 307.332031 181.734375 308.46875 191.867188 308.46875 202.015625 C 308.46875 276.65625 247.699219 337.425781 172.984375 337.5 " fill-opacity="1" fill-rule="nonzero"/></g><path fill="#000000" d="M 134.273438 245.566406 C 132.59375 245.566406 130.984375 244.675781 130.097656 243.164062 L 105.242188 200.5625 L 105.242188 240.726562 C 105.242188 243.390625 103.066406 245.566406 100.402344 245.566406 C 97.738281 245.566406 95.566406 243.390625 95.566406 240.726562 L 95.566406 182.660156 C 95.566406 180.46875 97.019531 178.558594 99.136719 177.992188 C 101.253906 177.40625 103.484375 178.332031 104.582031 180.222656 L 129.433594 222.828125 L 129.433594 182.660156 C 129.433594 179.996094 131.609375 177.824219 134.273438 177.824219 C 136.9375 177.824219 139.113281 179.996094 139.113281 182.660156 L 139.113281 240.726562 C 139.113281 242.917969 137.65625 244.828125 135.539062 245.394531 C 135.105469 245.507812 134.691406 245.566406 134.273438 245.566406 " fill-opacity="1" fill-rule="nonzero"/><path fill="#000000" d="M 158.46875 245.566406 C 155.800781 245.566406 153.628906 243.390625 153.628906 240.726562 L 153.628906 182.660156 C 153.628906 179.996094 155.800781 177.824219 158.46875 177.824219 C 161.132812 177.824219 163.304688 179.996094 163.304688 182.660156 L 163.304688 240.726562 C 163.304688 243.390625 161.132812 245.566406 158.46875 245.566406 " fill-opacity="1" fill-rule="nonzero"/><path fill="#000000" d="M 182.660156 216.53125 L 158.46875 216.53125 C 155.800781 216.53125 153.628906 214.359375 153.628906 211.695312 C 153.628906 209.027344 155.800781 206.855469 158.46875 206.855469 L 182.660156 206.855469 C 185.328125 206.855469 187.5 209.027344 187.5 211.695312 C 187.5 214.359375 185.328125 216.53125 182.660156 216.53125 " fill-opacity="1" fill-rule="nonzero"/><path fill="#000000" d="M 182.660156 187.5 L 158.46875 187.5 C 155.800781 187.5 153.628906 185.328125 153.628906 182.660156 C 153.628906 179.996094 155.800781 177.824219 158.46875 177.824219 L 182.660156 177.824219 C 185.328125 177.824219 187.5 179.996094 187.5 182.660156 C 187.5 185.328125 185.328125 187.5 182.660156 187.5 " fill-opacity="1" fill-rule="nonzero"/><path fill="#000000" d="M 182.660156 245.566406 L 158.46875 245.566406 C 155.800781 245.566406 153.628906 243.390625 153.628906 240.726562 C 153.628906 238.0625 155.800781 235.886719 158.46875 235.886719 L 182.660156 235.886719 C 185.328125 235.886719 187.5 238.0625 187.5 240.726562 C 187.5 243.390625 185.328125 245.566406 182.660156 245.566406 " fill-opacity="1" fill-rule="nonzero"/><g clip-path="url(#e575525dfa)"><path fill="#000000" d="M 274.597656 47.175781 C 245.242188 47.175781 221.371094 71.050781 221.371094 100.402344 C 221.371094 129.757812 245.242188 153.628906 274.597656 153.628906 C 303.949219 153.628906 327.824219 129.757812 327.824219 100.402344 C 327.824219 71.050781 303.949219 47.175781 274.597656 47.175781 Z M 274.597656 163.304688 C 239.914062 163.304688 211.695312 135.085938 211.695312 100.402344 C 211.695312 65.71875 239.914062 37.5 274.597656 37.5 C 309.28125 37.5 337.5 65.71875 337.5 100.402344 C 337.5 135.085938 309.28125 163.304688 274.597656 163.304688 " fill-opacity="1" fill-rule="nonzero"/></g><path fill="#000000" d="M 274.597656 132.042969 C 271.933594 132.042969 269.757812 129.871094 269.757812 127.207031 L 269.757812 73.601562 C 269.757812 70.9375 271.933594 68.761719 274.597656 68.761719 C 277.261719 68.761719 279.433594 70.9375 279.433594 73.601562 L 279.433594 127.207031 C 279.433594 129.871094 277.261719 132.042969 274.597656 132.042969 " fill-opacity="1" fill-rule="nonzero"/><path fill="#000000" d="M 301.398438 105.242188 L 247.792969 105.242188 C 245.128906 105.242188 242.957031 103.066406 242.957031 100.402344 C 242.957031 97.738281 245.128906 95.566406 247.792969 95.566406 L 301.398438 95.566406 C 304.0625 95.566406 306.238281 97.738281 306.238281 100.402344 C 306.238281 103.066406 304.0625 105.242188 301.398438 105.242188 " fill-opacity="1" fill-rule="nonzero"/><path fill="#000000" d="M 255.242188 245.566406 C 253.804688 245.566406 252.386719 244.902344 251.460938 243.75 L 235.886719 224.28125 L 220.3125 243.75 C 219.101562 245.242188 217.15625 245.886719 215.304688 245.414062 C 213.46875 244.921875 212.070312 243.410156 211.769531 241.519531 L 202.089844 183.457031 C 201.636719 180.828125 203.414062 178.332031 206.0625 177.898438 C 208.707031 177.445312 211.183594 179.222656 211.617188 181.867188 L 219.519531 229.253906 L 232.105469 213.507812 C 233.941406 211.222656 237.832031 211.222656 239.667969 213.507812 L 252.253906 229.253906 L 260.15625 181.867188 C 260.589844 179.222656 263.066406 177.445312 265.714844 177.898438 C 268.359375 178.332031 270.136719 180.828125 269.683594 183.457031 L 260.003906 241.519531 C 259.703125 243.410156 258.304688 244.921875 256.46875 245.414062 C 256.054688 245.507812 255.65625 245.566406 255.242188 245.566406 " fill-opacity="1" fill-rule="nonzero"/></svg>