<svg xmlns="http://www.w3.org/2000/svg" xmlns:xlink="http://www.w3.org/1999/xlink" width="20" zoomAndPan="magnify" viewBox="0 0 375 374.999991" height="20" preserveAspectRatio="xMidYMid meet" version="1.0"><defs><clipPath id="fb80ef2353"><path d="M 37.507812 112.960938 L 337.5 112.960938 L 337.5 262.210938 L 37.507812 262.210938 Z M 37.507812 112.960938 " clip-rule="nonzero"/></clipPath><clipPath id="85798d6982"><path d="M 54.753906 112.960938 L 320.246094 112.960938 C 324.820312 112.960938 329.207031 114.777344 332.441406 118.019531 C 335.675781 121.257812 337.492188 125.648438 337.492188 130.230469 L 337.492188 244.941406 C 337.492188 249.519531 335.675781 253.914062 332.441406 257.152344 C 329.207031 260.390625 324.820312 262.210938 320.246094 262.210938 L 54.753906 262.210938 C 50.179688 262.210938 45.792969 260.390625 42.558594 257.152344 C 39.324219 253.914062 37.507812 249.519531 37.507812 244.941406 L 37.507812 130.230469 C 37.507812 125.648438 39.324219 121.257812 42.558594 118.019531 C 45.792969 114.777344 50.179688 112.960938 54.753906 112.960938 Z M 54.753906 112.960938 " clip-rule="nonzero"/></clipPath><clipPath id="f7cd319387"><path d="M 48.320312 122.730469 L 103.070312 122.730469 L 103.070312 177.480469 L 48.320312 177.480469 Z M 48.320312 122.730469 " clip-rule="nonzero"/></clipPath><clipPath id="e2394f1979"><path d="M 120.871094 126.519531 L 176.371094 126.519531 L 176.371094 173.769531 L 120.871094 173.769531 Z M 120.871094 126.519531 " clip-rule="nonzero"/></clipPath><clipPath id="8453bc4ea3"><path d="M 208 158 L 220 158 L 220 169 L 208 169 Z M 208 158 " clip-rule="nonzero"/></clipPath><clipPath id="bd0ab175ee"><path d="M 235.035156 121.773438 L 252.566406 137.042969 L 216.605469 178.328125 L 199.074219 163.058594 Z M 235.035156 121.773438 " clip-rule="nonzero"/></clipPath><clipPath id="2a81a8421b"><path d="M 235.035156 121.773438 L 252.566406 137.042969 L 216.605469 178.328125 L 199.074219 163.058594 Z M 235.035156 121.773438 " clip-rule="nonzero"/></clipPath><clipPath id="a2d388a4b0"><path d="M 210 157 L 221 157 L 221 167 L 210 167 Z M 210 157 " clip-rule="nonzero"/></clipPath><clipPath id="3dc8766918"><path d="M 235.035156 121.773438 L 252.566406 137.042969 L 216.605469 178.328125 L 199.074219 163.058594 Z M 235.035156 121.773438 " clip-rule="nonzero"/></clipPath><clipPath id="5604f9ba05"><path d="M 235.035156 121.773438 L 252.566406 137.042969 L 216.605469 178.328125 L 199.074219 163.058594 Z M 235.035156 121.773438 " clip-rule="nonzero"/></clipPath><clipPath id="6c7530afa2"><path d="M 211 155 L 223 155 L 223 165 L 211 165 Z M 211 155 " clip-rule="nonzero"/></clipPath><clipPath id="8e3129b240"><path d="M 235.035156 121.773438 L 252.566406 137.042969 L 216.605469 178.328125 L 199.074219 163.058594 Z M 235.035156 121.773438 " clip-rule="nonzero"/></clipPath><clipPath id="04a895eafd"><path d="M 235.035156 121.773438 L 252.566406 137.042969 L 216.605469 178.328125 L 199.074219 163.058594 Z M 235.035156 121.773438 " clip-rule="nonzero"/></clipPath><clipPath id="101f808b01"><path d="M 207 160 L 218 160 L 218 170 L 207 170 Z M 207 160 " clip-rule="nonzero"/></clipPath><clipPath id="ea83116c0a"><path d="M 235.035156 121.773438 L 252.566406 137.042969 L 216.605469 178.328125 L 199.074219 163.058594 Z M 235.035156 121.773438 " clip-rule="nonzero"/></clipPath><clipPath id="35299534bd"><path d="M 235.035156 121.773438 L 252.566406 137.042969 L 216.605469 178.328125 L 199.074219 163.058594 Z M 235.035156 121.773438 " clip-rule="nonzero"/></clipPath><clipPath id="2e4f0ee773"><path d="M 204 163 L 215 163 L 215 174 L 204 174 Z M 204 163 " clip-rule="nonzero"/></clipPath><clipPath id="2da51d37d7"><path d="M 235.035156 121.773438 L 252.566406 137.042969 L 216.605469 178.328125 L 199.074219 163.058594 Z M 235.035156 121.773438 " clip-rule="nonzero"/></clipPath><clipPath id="c067e9252f"><path d="M 235.035156 121.773438 L 252.566406 137.042969 L 216.605469 178.328125 L 199.074219 163.058594 Z M 235.035156 121.773438 " clip-rule="nonzero"/></clipPath><clipPath id="552c751bf6"><path d="M 231 125 L 250 125 L 250 141 L 231 141 Z M 231 125 " clip-rule="nonzero"/></clipPath><clipPath id="8a93c4d4c2"><path d="M 235.035156 121.773438 L 252.566406 137.042969 L 216.605469 178.328125 L 199.074219 163.058594 Z M 235.035156 121.773438 " clip-rule="nonzero"/></clipPath><clipPath id="0e67132d42"><path d="M 235.035156 121.773438 L 252.566406 137.042969 L 216.605469 178.328125 L 199.074219 163.058594 Z M 235.035156 121.773438 " clip-rule="nonzero"/></clipPath><clipPath id="ed4d02cc2f"><path d="M 227 126 L 240 126 L 240 138 L 227 138 Z M 227 126 " clip-rule="nonzero"/></clipPath><clipPath id="45717893c2"><path d="M 235.035156 121.773438 L 252.566406 137.042969 L 216.605469 178.328125 L 199.074219 163.058594 Z M 235.035156 121.773438 " clip-rule="nonzero"/></clipPath><clipPath id="18e2972b29"><path d="M 235.035156 121.773438 L 252.566406 137.042969 L 216.605469 178.328125 L 199.074219 163.058594 Z M 235.035156 121.773438 " clip-rule="nonzero"/></clipPath><clipPath id="63f861a1bf"><path d="M 205 162 L 217 162 L 217 172 L 205 172 Z M 205 162 " clip-rule="nonzero"/></clipPath><clipPath id="0e7d33a39c"><path d="M 235.035156 121.773438 L 252.566406 137.042969 L 216.605469 178.328125 L 199.074219 163.058594 Z M 235.035156 121.773438 " clip-rule="nonzero"/></clipPath><clipPath id="15d5e41172"><path d="M 235.035156 121.773438 L 252.566406 137.042969 L 216.605469 178.328125 L 199.074219 163.058594 Z M 235.035156 121.773438 " clip-rule="nonzero"/></clipPath><clipPath id="eff729f3cc"><path d="M 203 165 L 214 165 L 214 175 L 203 175 Z M 203 165 " clip-rule="nonzero"/></clipPath><clipPath id="6dad33acea"><path d="M 235.035156 121.773438 L 252.566406 137.042969 L 216.605469 178.328125 L 199.074219 163.058594 Z M 235.035156 121.773438 " clip-rule="nonzero"/></clipPath><clipPath id="77ad961b45"><path d="M 235.035156 121.773438 L 252.566406 137.042969 L 216.605469 178.328125 L 199.074219 163.058594 Z M 235.035156 121.773438 " clip-rule="nonzero"/></clipPath><clipPath id="e7789a3ad1"><path d="M 213 154 L 224 154 L 224 164 L 213 164 Z M 213 154 " clip-rule="nonzero"/></clipPath><clipPath id="f22e1e3c1c"><path d="M 235.035156 121.773438 L 252.566406 137.042969 L 216.605469 178.328125 L 199.074219 163.058594 Z M 235.035156 121.773438 " clip-rule="nonzero"/></clipPath><clipPath id="8542567a94"><path d="M 235.035156 121.773438 L 252.566406 137.042969 L 216.605469 178.328125 L 199.074219 163.058594 Z M 235.035156 121.773438 " clip-rule="nonzero"/></clipPath><clipPath id="05f9480a42"><path d="M 217 149 L 228 149 L 228 159 L 217 159 Z M 217 149 " clip-rule="nonzero"/></clipPath><clipPath id="282b736120"><path d="M 235.035156 121.773438 L 252.566406 137.042969 L 216.605469 178.328125 L 199.074219 163.058594 Z M 235.035156 121.773438 " clip-rule="nonzero"/></clipPath><clipPath id="561134291d"><path d="M 235.035156 121.773438 L 252.566406 137.042969 L 216.605469 178.328125 L 199.074219 163.058594 Z M 235.035156 121.773438 " clip-rule="nonzero"/></clipPath><clipPath id="3065f91b36"><path d="M 226 137 L 238 137 L 238 149 L 226 149 Z M 226 137 " clip-rule="nonzero"/></clipPath><clipPath id="7ce58344a6"><path d="M 235.035156 121.773438 L 252.566406 137.042969 L 216.605469 178.328125 L 199.074219 163.058594 Z M 235.035156 121.773438 " clip-rule="nonzero"/></clipPath><clipPath id="5e3a87514f"><path d="M 235.035156 121.773438 L 252.566406 137.042969 L 216.605469 178.328125 L 199.074219 163.058594 Z M 235.035156 121.773438 " clip-rule="nonzero"/></clipPath><clipPath id="7f340cd85b"><path d="M 224 140 L 236 140 L 236 151 L 224 151 Z M 224 140 " clip-rule="nonzero"/></clipPath><clipPath id="fe3abd086e"><path d="M 235.035156 121.773438 L 252.566406 137.042969 L 216.605469 178.328125 L 199.074219 163.058594 Z M 235.035156 121.773438 " clip-rule="nonzero"/></clipPath><clipPath id="4ada858e59"><path d="M 235.035156 121.773438 L 252.566406 137.042969 L 216.605469 178.328125 L 199.074219 163.058594 Z M 235.035156 121.773438 " clip-rule="nonzero"/></clipPath><clipPath id="f73abfd0bb"><path d="M 236 134 L 249 134 L 249 146 L 236 146 Z M 236 134 " clip-rule="nonzero"/></clipPath><clipPath id="d54bf6b170"><path d="M 235.035156 121.773438 L 252.566406 137.042969 L 216.605469 178.328125 L 199.074219 163.058594 Z M 235.035156 121.773438 " clip-rule="nonzero"/></clipPath><clipPath id="9899017ee4"><path d="M 235.035156 121.773438 L 252.566406 137.042969 L 216.605469 178.328125 L 199.074219 163.058594 Z M 235.035156 121.773438 " clip-rule="nonzero"/></clipPath><clipPath id="4b704cb8b6"><path d="M 240.945312 132.953125 L 249.660156 140.542969 L 244.984375 145.914062 L 236.269531 138.324219 Z M 240.945312 132.953125 " clip-rule="nonzero"/></clipPath><clipPath id="909d9b6708"><path d="M 240.945312 132.953125 L 249.574219 140.46875 L 244.898438 145.839844 L 236.269531 138.324219 Z M 240.945312 132.953125 " clip-rule="nonzero"/></clipPath><clipPath id="836f1441fe"><path d="M 228 132 L 244 132 L 244 146 L 228 146 Z M 228 132 " clip-rule="nonzero"/></clipPath><clipPath id="acb88116cf"><path d="M 235.035156 121.773438 L 252.566406 137.042969 L 216.605469 178.328125 L 199.074219 163.058594 Z M 235.035156 121.773438 " clip-rule="nonzero"/></clipPath><clipPath id="24a76813cb"><path d="M 235.035156 121.773438 L 252.566406 137.042969 L 216.605469 178.328125 L 199.074219 163.058594 Z M 235.035156 121.773438 " clip-rule="nonzero"/></clipPath><clipPath id="d0d3a9f0b8"><path d="M 223 142 L 234 142 L 234 152 L 223 152 Z M 223 142 " clip-rule="nonzero"/></clipPath><clipPath id="2cc8d20278"><path d="M 235.035156 121.773438 L 252.566406 137.042969 L 216.605469 178.328125 L 199.074219 163.058594 Z M 235.035156 121.773438 " clip-rule="nonzero"/></clipPath><clipPath id="6fdca8ea81"><path d="M 235.035156 121.773438 L 252.566406 137.042969 L 216.605469 178.328125 L 199.074219 163.058594 Z M 235.035156 121.773438 " clip-rule="nonzero"/></clipPath><clipPath id="2c8570675a"><path d="M 215 150 L 227 150 L 227 161 L 215 161 Z M 215 150 " clip-rule="nonzero"/></clipPath><clipPath id="bf8d15174c"><path d="M 235.035156 121.773438 L 252.566406 137.042969 L 216.605469 178.328125 L 199.074219 163.058594 Z M 235.035156 121.773438 " clip-rule="nonzero"/></clipPath><clipPath id="992691b83f"><path d="M 235.035156 121.773438 L 252.566406 137.042969 L 216.605469 178.328125 L 199.074219 163.058594 Z M 235.035156 121.773438 " clip-rule="nonzero"/></clipPath><clipPath id="894b20fdfb"><path d="M 221 144 L 233 144 L 233 154 L 221 154 Z M 221 144 " clip-rule="nonzero"/></clipPath><clipPath id="05f350d259"><path d="M 235.035156 121.773438 L 252.566406 137.042969 L 216.605469 178.328125 L 199.074219 163.058594 Z M 235.035156 121.773438 " clip-rule="nonzero"/></clipPath><clipPath id="5dbf921ada"><path d="M 235.035156 121.773438 L 252.566406 137.042969 L 216.605469 178.328125 L 199.074219 163.058594 Z M 235.035156 121.773438 " clip-rule="nonzero"/></clipPath><clipPath id="0ef0270764"><path d="M 218 147 L 230 147 L 230 157 L 218 157 Z M 218 147 " clip-rule="nonzero"/></clipPath><clipPath id="403b17c60d"><path d="M 235.035156 121.773438 L 252.566406 137.042969 L 216.605469 178.328125 L 199.074219 163.058594 Z M 235.035156 121.773438 " clip-rule="nonzero"/></clipPath><clipPath id="4ba27fc86f"><path d="M 235.035156 121.773438 L 252.566406 137.042969 L 216.605469 178.328125 L 199.074219 163.058594 Z M 235.035156 121.773438 " clip-rule="nonzero"/></clipPath><clipPath id="85d8c57d6f"><path d="M 214 152 L 226 152 L 226 162 L 214 162 Z M 214 152 " clip-rule="nonzero"/></clipPath><clipPath id="79f7b9237c"><path d="M 235.035156 121.773438 L 252.566406 137.042969 L 216.605469 178.328125 L 199.074219 163.058594 Z M 235.035156 121.773438 " clip-rule="nonzero"/></clipPath><clipPath id="69e413c4f1"><path d="M 235.035156 121.773438 L 252.566406 137.042969 L 216.605469 178.328125 L 199.074219 163.058594 Z M 235.035156 121.773438 " clip-rule="nonzero"/></clipPath><clipPath id="b35a28c3a3"><path d="M 220 145 L 231 145 L 231 156 L 220 156 Z M 220 145 " clip-rule="nonzero"/></clipPath><clipPath id="60909e9293"><path d="M 235.035156 121.773438 L 252.566406 137.042969 L 216.605469 178.328125 L 199.074219 163.058594 Z M 235.035156 121.773438 " clip-rule="nonzero"/></clipPath><clipPath id="2f15279e3b"><path d="M 235.035156 121.773438 L 252.566406 137.042969 L 216.605469 178.328125 L 199.074219 163.058594 Z M 235.035156 121.773438 " clip-rule="nonzero"/></clipPath><clipPath id="7f554814f7"><path d="M 273 126 L 325 126 L 325 180 L 273 180 Z M 273 126 " clip-rule="nonzero"/></clipPath><clipPath id="68500c6bc5"><path d="M 310.785156 119.324219 L 332.699219 138.699219 L 289.480469 187.582031 L 267.566406 168.210938 Z M 310.785156 119.324219 " clip-rule="nonzero"/></clipPath><clipPath id="762c6b538b"><path d="M 310.785156 119.324219 L 332.699219 138.699219 L 289.480469 187.582031 L 267.566406 168.210938 Z M 310.785156 119.324219 " clip-rule="nonzero"/></clipPath><clipPath id="444e76e300"><path d="M 310.785156 119.324219 L 332.699219 138.699219 L 289.480469 187.582031 L 267.566406 168.210938 Z M 310.785156 119.324219 " clip-rule="nonzero"/></clipPath><clipPath id="52b6c8798a"><path d="M 56 204.160156 L 79 204.160156 L 79 244.660156 L 56 244.660156 Z M 56 204.160156 " clip-rule="nonzero"/></clipPath><clipPath id="d2fc7b3b89"><path d="M 74 212 L 95 212 L 95 244.660156 L 74 244.660156 Z M 74 212 " clip-rule="nonzero"/></clipPath><clipPath id="4a1368d0fe"><path d="M 92 233 L 97.5 233 L 97.5 242 L 92 242 Z M 92 233 " clip-rule="nonzero"/></clipPath><clipPath id="face82b699"><path d="M 125.082031 208 L 158 208 L 158 238 L 125.082031 238 Z M 125.082031 208 " clip-rule="nonzero"/></clipPath><clipPath id="54376075c7"><path d="M 164 201.164062 L 171.582031 201.164062 L 171.582031 214 L 164 214 Z M 164 201.164062 " clip-rule="nonzero"/></clipPath><clipPath id="aef2dc3b1b"><path d="M 135 201.164062 L 171 201.164062 L 171 247.664062 L 135 247.664062 Z M 135 201.164062 " clip-rule="nonzero"/></clipPath><clipPath id="dfb8d7fa5a"><path d="M 214 235 L 226 235 L 226 246.808594 L 214 246.808594 Z M 214 235 " clip-rule="nonzero"/></clipPath><clipPath id="0f723a5aab"><path d="M 214 238 L 223 238 L 223 246.808594 L 214 246.808594 Z M 214 238 " clip-rule="nonzero"/></clipPath><clipPath id="69ae9b368b"><path d="M 214 242 L 220 242 L 220 246.808594 L 214 246.808594 Z M 214 242 " clip-rule="nonzero"/></clipPath><clipPath id="a0127fa5ab"><path d="M 225 200.308594 L 237 200.308594 L 237 212 L 225 212 Z M 225 200.308594 " clip-rule="nonzero"/></clipPath><clipPath id="8809b037fd"><path d="M 228 200.308594 L 238 200.308594 L 238 210 L 228 210 Z M 228 200.308594 " clip-rule="nonzero"/></clipPath><clipPath id="6a622f0b4e"><path d="M 232 200.308594 L 238 200.308594 L 238 206 L 232 206 Z M 232 200.308594 " clip-rule="nonzero"/></clipPath><clipPath id="1d7b76f439"><path d="M 298 199.765625 L 325.082031 199.765625 L 325.082031 227 L 298 227 Z M 298 199.765625 " clip-rule="nonzero"/></clipPath><clipPath id="132ecc7dba"><path d="M 275.582031 219 L 306 219 L 306 249.265625 L 275.582031 249.265625 Z M 275.582031 219 " clip-rule="nonzero"/></clipPath></defs><g clip-path="url(#fb80ef2353)"><g clip-path="url(#85798d6982)"><path stroke-linecap="butt" transform="matrix(0.75, 0, 0, 0.750884, 37.506374, 112.95972)" fill="none" stroke-linejoin="miter" d="M 22.996711 0.00162171 L 376.986318 0.00162171 C 383.085276 0.00162171 388.934235 2.420645 393.246735 6.73847 C 397.559236 11.051094 399.981111 16.898366 399.981111 23.000546 L 399.981111 175.768339 C 399.981111 181.865317 397.559236 187.717791 393.246735 192.030415 C 388.934235 196.343038 383.085276 198.767263 376.986318 198.767263 L 22.996711 198.767263 C 16.897752 198.767263 11.048794 196.343038 6.736293 192.030415 C 2.423793 187.717791 0.00191795 181.865317 0.00191795 175.768339 L 0.00191795 23.000546 C 0.00191795 16.898366 2.423793 11.051094 6.736293 6.73847 C 11.048794 2.420645 16.897752 0.00162171 22.996711 0.00162171 Z M 22.996711 0.00162171 " stroke="white" stroke-width="8" stroke-opacity="1" stroke-miterlimit="4"/></g></g><path stroke-linecap="butt" transform="matrix(0.75, 0, 0, 0.75, 37.500002, 185.999988)" fill="none" stroke-linejoin="miter" d="M -0.00000271667 2.000016 L 400.000024 2.000016 " stroke="white" stroke-width="4" stroke-opacity="1" stroke-miterlimit="4"/><path stroke-linecap="butt" transform="matrix(0, -0.749522, 0.75, 0, 185.999553, 260.053929)" fill="none" stroke-linejoin="miter" d="M -0.00101155 2.000596 L 196.124 2.000596 " stroke="white" stroke-width="4" stroke-opacity="1" stroke-miterlimit="4"/><path stroke-linecap="butt" transform="matrix(0, -0.748183, 0.75, 0, 110.467826, 260.050764)" fill="none" stroke-linejoin="miter" d="M -0.0000234256 2.001232 L 193.479183 2.001232 " stroke="white" stroke-width="4" stroke-opacity="1" stroke-miterlimit="4"/><path stroke-linecap="butt" transform="matrix(0, -0.748183, 0.75, 0, 262.341959, 260.050764)" fill="none" stroke-linejoin="miter" d="M -0.0000234256 2.002388 L 193.479183 2.002388 " stroke="white" stroke-width="4" stroke-opacity="1" stroke-miterlimit="4"/><g clip-path="url(#f7cd319387)"><path fill="white" d="M 102.84375 154.632812 C 102.957031 150.941406 102.957031 150.9375 103.070312 147.246094 L 97.351562 145.015625 C 96.527344 142.839844 96.113281 141.746094 95.289062 139.566406 L 98.09375 134.105469 C 95.5625 131.425781 95.554688 131.417969 93.023438 128.726562 L 87.40625 131.191406 L 82.105469 128.796875 L 80.222656 122.957031 L 72.839844 122.730469 L 70.601562 128.449219 C 68.433594 129.273438 67.332031 129.6875 65.164062 130.511719 L 59.703125 127.710938 C 57.011719 130.234375 57.003906 130.242188 54.316406 132.773438 L 56.777344 138.390625 C 55.828125 140.507812 55.347656 141.582031 54.390625 143.695312 L 48.542969 145.582031 C 48.433594 149.269531 48.433594 149.277344 48.320312 152.960938 L 54.035156 155.199219 C 54.859375 157.367188 55.273438 158.46875 56.097656 160.644531 L 53.296875 166.101562 C 55.828125 168.789062 55.835938 168.796875 58.359375 171.484375 L 63.980469 169.023438 C 66.105469 169.972656 67.175781 170.453125 69.292969 171.410156 L 71.167969 177.257812 L 78.558594 177.480469 L 80.789062 171.765625 C 82.96875 170.941406 84.058594 170.527344 86.234375 169.703125 L 91.695312 172.503906 L 97.074219 167.441406 L 94.613281 161.824219 C 95.574219 159.707031 96.050781 158.628906 97.007812 156.511719 Z M 75.695312 166.167969 C 75.167969 166.167969 74.644531 166.144531 74.121094 166.089844 C 73.597656 166.039062 73.078125 165.960938 72.5625 165.859375 C 72.042969 165.757812 71.535156 165.628906 71.03125 165.476562 C 70.527344 165.324219 70.035156 165.148438 69.546875 164.945312 C 69.0625 164.746094 68.585938 164.519531 68.125 164.273438 C 67.660156 164.023438 67.207031 163.753906 66.773438 163.460938 C 66.335938 163.167969 65.914062 162.855469 65.503906 162.523438 C 65.097656 162.1875 64.710938 161.835938 64.339844 161.464844 C 63.964844 161.09375 63.613281 160.703125 63.28125 160.296875 C 62.945312 159.890625 62.632812 159.46875 62.339844 159.03125 C 62.046875 158.59375 61.777344 158.140625 61.53125 157.679688 C 61.28125 157.214844 61.058594 156.738281 60.855469 156.253906 C 60.65625 155.769531 60.480469 155.273438 60.324219 154.769531 C 60.171875 154.265625 60.046875 153.757812 59.941406 153.242188 C 59.839844 152.726562 59.761719 152.207031 59.710938 151.683594 C 59.660156 151.160156 59.632812 150.632812 59.632812 150.109375 C 59.632812 149.582031 59.660156 149.058594 59.710938 148.535156 C 59.761719 148.011719 59.839844 147.492188 59.941406 146.972656 C 60.046875 146.457031 60.171875 145.949219 60.328125 145.445312 C 60.480469 144.941406 60.65625 144.449219 60.855469 143.960938 C 61.058594 143.476562 61.28125 143 61.53125 142.535156 C 61.777344 142.074219 62.050781 141.621094 62.339844 141.183594 C 62.632812 140.746094 62.945312 140.324219 63.28125 139.917969 C 63.613281 139.511719 63.964844 139.125 64.339844 138.75 C 64.710938 138.378906 65.101562 138.027344 65.507812 137.691406 C 65.914062 137.359375 66.335938 137.046875 66.773438 136.753906 C 67.210938 136.460938 67.660156 136.191406 68.125 135.945312 C 68.589844 135.695312 69.0625 135.472656 69.550781 135.269531 C 70.035156 135.070312 70.53125 134.890625 71.03125 134.738281 C 71.535156 134.585938 72.046875 134.457031 72.5625 134.355469 C 73.078125 134.253906 73.597656 134.175781 74.121094 134.125 C 74.644531 134.074219 75.167969 134.046875 75.695312 134.046875 C 76.222656 134.046875 76.746094 134.074219 77.269531 134.125 C 77.792969 134.175781 78.3125 134.253906 78.828125 134.355469 C 79.34375 134.457031 79.855469 134.585938 80.355469 134.738281 C 80.859375 134.890625 81.355469 135.070312 81.839844 135.269531 C 82.328125 135.472656 82.800781 135.695312 83.265625 135.945312 C 83.730469 136.191406 84.179688 136.460938 84.617188 136.753906 C 85.054688 137.046875 85.476562 137.359375 85.882812 137.691406 C 86.289062 138.027344 86.679688 138.378906 87.050781 138.75 C 87.421875 139.121094 87.777344 139.511719 88.109375 139.917969 C 88.445312 140.324219 88.757812 140.746094 89.046875 141.183594 C 89.339844 141.621094 89.609375 142.074219 89.859375 142.535156 C 90.105469 143 90.332031 143.476562 90.53125 143.960938 C 90.734375 144.445312 90.910156 144.941406 91.0625 145.445312 C 91.21875 145.949219 91.34375 146.457031 91.445312 146.972656 C 91.550781 147.488281 91.628906 148.007812 91.679688 148.53125 C 91.730469 149.054688 91.757812 149.582031 91.757812 150.105469 C 91.757812 150.632812 91.730469 151.15625 91.679688 151.679688 C 91.625 152.203125 91.550781 152.722656 91.445312 153.238281 C 91.34375 153.757812 91.214844 154.265625 91.0625 154.769531 C 90.910156 155.273438 90.734375 155.765625 90.53125 156.253906 C 90.332031 156.738281 90.105469 157.214844 89.859375 157.675781 C 89.609375 158.140625 89.339844 158.59375 89.046875 159.03125 C 88.753906 159.464844 88.441406 159.890625 88.109375 160.296875 C 87.773438 160.703125 87.421875 161.089844 87.050781 161.464844 C 86.679688 161.835938 86.289062 162.1875 85.882812 162.523438 C 85.476562 162.855469 85.054688 163.167969 84.617188 163.460938 C 84.179688 163.753906 83.730469 164.023438 83.265625 164.269531 C 82.800781 164.519531 82.324219 164.742188 81.839844 164.945312 C 81.355469 165.144531 80.859375 165.324219 80.355469 165.476562 C 79.851562 165.628906 79.34375 165.757812 78.828125 165.859375 C 78.3125 165.960938 77.792969 166.039062 77.269531 166.089844 C 76.746094 166.144531 76.21875 166.167969 75.695312 166.167969 Z M 75.695312 166.167969 " fill-opacity="1" fill-rule="nonzero"/></g><g clip-path="url(#e2394f1979)"><path fill="white" d="M 176.25 149.292969 L 163.660156 126.761719 C 163.582031 126.609375 163.421875 126.519531 163.25 126.519531 L 135.402344 126.519531 C 135.234375 126.519531 135.082031 126.605469 134.996094 126.75 L 120.992188 150.058594 C 120.902344 150.207031 120.902344 150.390625 120.992188 150.535156 L 134.996094 173.535156 C 135.082031 173.675781 135.234375 173.761719 135.402344 173.761719 L 163.011719 173.761719 C 163.1875 173.761719 163.347656 173.667969 163.429688 173.511719 L 176.25 149.738281 C 176.328125 149.597656 176.324219 149.429688 176.25 149.292969 Z M 148.617188 162.785156 C 141.558594 162.785156 135.8125 157.113281 135.8125 150.140625 C 135.8125 143.167969 141.558594 137.496094 148.617188 137.496094 C 155.675781 137.496094 161.417969 143.167969 161.417969 150.140625 C 161.417969 157.113281 155.675781 162.785156 148.617188 162.785156 Z M 148.617188 162.785156 " fill-opacity="1" fill-rule="nonzero"/></g><path fill="white" d="M 148.617188 133.183594 C 139.152344 133.183594 131.449219 140.789062 131.449219 150.140625 C 131.449219 159.488281 139.152344 167.097656 148.617188 167.097656 C 158.082031 167.097656 165.785156 159.488281 165.785156 150.140625 C 165.785156 140.789062 158.082031 133.183594 148.617188 133.183594 Z M 148.617188 162.785156 C 141.558594 162.785156 135.8125 157.113281 135.8125 150.140625 C 135.8125 143.167969 141.558594 137.496094 148.617188 137.496094 C 155.675781 137.496094 161.417969 143.167969 161.417969 150.140625 C 161.417969 157.113281 155.675781 162.785156 148.617188 162.785156 Z M 148.617188 162.785156 " fill-opacity="1" fill-rule="nonzero"/><path fill="white" d="M 148.617188 129.28125 C 136.972656 129.28125 127.5 138.640625 127.5 150.140625 C 127.5 161.640625 136.972656 171 148.617188 171 C 160.261719 171 169.734375 161.640625 169.734375 150.140625 C 169.734375 138.640625 160.261719 129.28125 148.617188 129.28125 Z M 148.617188 167.097656 C 139.152344 167.097656 131.449219 159.488281 131.449219 150.140625 C 131.449219 140.789062 139.152344 133.183594 148.617188 133.183594 C 158.082031 133.183594 165.785156 140.789062 165.785156 150.140625 C 165.785156 159.488281 158.082031 167.097656 148.617188 167.097656 Z M 148.617188 167.097656 " fill-opacity="1" fill-rule="nonzero"/><g clip-path="url(#8453bc4ea3)"><g clip-path="url(#bd0ab175ee)"><g clip-path="url(#2a81a8421b)"><path fill="white" d="M 219.179688 167.214844 C 216.03125 164.472656 212.882812 161.726562 209.730469 158.984375 C 209.386719 159.023438 209.050781 159.050781 208.71875 159.074219 C 208.738281 159.410156 208.757812 159.746094 208.777344 160.078125 C 211.929688 162.824219 215.078125 165.566406 218.226562 168.308594 C 218.5625 168.285156 218.910156 168.269531 219.242188 168.246094 C 219.222656 167.910156 219.1875 167.5625 219.179688 167.214844 " fill-opacity="1" fill-rule="nonzero"/></g></g></g><g clip-path="url(#a2d388a4b0)"><g clip-path="url(#3dc8766918)"><g clip-path="url(#5604f9ba05)"><path fill="white" d="M 211.167969 157.335938 C 210.832031 157.359375 210.5 157.386719 210.164062 157.414062 C 210.1875 157.746094 210.207031 158.082031 210.226562 158.417969 C 213.375 161.160156 216.527344 163.902344 219.675781 166.648438 C 220.011719 166.621094 220.359375 166.605469 220.691406 166.582031 C 220.671875 166.246094 220.636719 165.898438 220.617188 165.566406 C 217.46875 162.820312 214.316406 160.078125 211.167969 157.335938 " fill-opacity="1" fill-rule="nonzero"/></g></g></g><g clip-path="url(#6c7530afa2)"><g clip-path="url(#8e3129b240)"><g clip-path="url(#04a895eafd)"><path fill="white" d="M 212.617188 155.671875 C 212.28125 155.699219 211.949219 155.722656 211.613281 155.75 C 211.632812 156.085938 211.65625 156.417969 211.675781 156.753906 C 214.824219 159.496094 217.976562 162.238281 221.125 164.984375 C 221.457031 164.957031 221.804688 164.945312 222.140625 164.917969 C 222.121094 164.582031 222.085938 164.238281 222.066406 163.902344 C 218.917969 161.160156 215.765625 158.414062 212.617188 155.671875 " fill-opacity="1" fill-rule="nonzero"/></g></g></g><g clip-path="url(#101f808b01)"><g clip-path="url(#ea83116c0a)"><g clip-path="url(#35299534bd)"><path fill="white" d="M 217.730469 168.878906 C 214.582031 166.132812 211.433594 163.390625 208.28125 160.648438 C 207.949219 160.671875 207.613281 160.699219 207.269531 160.738281 C 207.289062 161.074219 207.308594 161.40625 207.328125 161.742188 C 210.480469 164.484375 213.628906 167.230469 216.777344 169.972656 C 217.113281 169.945312 217.460938 169.933594 217.792969 169.90625 C 217.785156 169.558594 217.753906 169.210938 217.730469 168.878906 " fill-opacity="1" fill-rule="nonzero"/></g></g></g><g clip-path="url(#2e4f0ee773)"><g clip-path="url(#2da51d37d7)"><g clip-path="url(#c067e9252f)"><path fill="white" d="M 205.386719 163.972656 L 204.382812 164.050781 L 204.445312 165.054688 L 213.894531 173.285156 L 214.910156 173.21875 L 214.835938 172.203125 L 205.386719 163.972656 " fill-opacity="1" fill-rule="nonzero"/></g></g></g><g clip-path="url(#552c751bf6)"><g clip-path="url(#8a93c4d4c2)"><g clip-path="url(#0e67132d42)"><path fill="white" d="M 239.863281 133.945312 C 241.6875 133.363281 244.5 135.421875 245.617188 136.394531 C 246.570312 137.226562 248.511719 139.183594 248.824219 140.917969 C 252.058594 136.597656 235.5625 122.226562 231.726562 126.027344 C 233.484375 126.097656 235.691406 127.75 236.644531 128.582031 C 237.75 129.542969 240.1875 132.058594 239.863281 133.945312 " fill-opacity="1" fill-rule="nonzero"/></g></g></g><g clip-path="url(#ed4d02cc2f)"><g clip-path="url(#45717893c2)"><g clip-path="url(#18e2972b29)"><path fill="white" d="M 239.019531 134.5 C 241.082031 132.128906 232.519531 124.671875 230.457031 127.042969 L 227.425781 130.519531 L 235.988281 137.980469 L 239.019531 134.5 " fill-opacity="1" fill-rule="nonzero"/></g></g></g><g clip-path="url(#63f861a1bf)"><g clip-path="url(#0e7d33a39c)"><g clip-path="url(#15d5e41172)"><path fill="white" d="M 206.835938 162.3125 C 206.5 162.335938 206.164062 162.363281 205.832031 162.386719 C 205.851562 162.722656 205.871094 163.058594 205.878906 163.40625 C 209.03125 166.148438 212.179688 168.890625 215.328125 171.636719 C 215.675781 171.597656 216.023438 171.582031 216.359375 171.558594 C 216.335938 171.222656 216.304688 170.875 216.285156 170.542969 C 213.132812 167.796875 209.984375 165.054688 206.835938 162.3125 " fill-opacity="1" fill-rule="nonzero"/></g></g></g><g clip-path="url(#eff729f3cc)"><g clip-path="url(#6dad33acea)"><g clip-path="url(#77ad961b45)"><path fill="white" d="M 203.929688 165.949219 L 204.015625 167.363281 L 211.664062 174.027344 L 213.078125 173.917969 L 213.382812 173.570312 L 204.230469 165.601562 L 203.929688 165.949219 " fill-opacity="1" fill-rule="nonzero"/></g></g></g><g clip-path="url(#e7789a3ad1)"><g clip-path="url(#f22e1e3c1c)"><g clip-path="url(#8542567a94)"><path fill="white" d="M 214.066406 154.007812 C 213.730469 154.035156 213.398438 154.058594 213.0625 154.085938 C 213.070312 154.433594 213.089844 154.769531 213.113281 155.105469 C 216.261719 157.847656 219.410156 160.589844 222.5625 163.335938 C 222.894531 163.308594 223.242188 163.292969 223.589844 163.253906 C 223.570312 162.921875 223.535156 162.574219 223.515625 162.238281 C 220.363281 159.496094 217.214844 156.753906 214.066406 154.007812 " fill-opacity="1" fill-rule="nonzero"/></g></g></g><g clip-path="url(#05f9480a42)"><g clip-path="url(#282b736120)"><g clip-path="url(#561134291d)"><path fill="white" d="M 218.398438 149.035156 C 218.066406 149.058594 217.730469 149.085938 217.398438 149.109375 C 217.417969 149.445312 217.4375 149.78125 217.457031 150.113281 C 220.609375 152.859375 223.757812 155.601562 226.90625 158.34375 C 227.242188 158.320312 227.589844 158.304688 227.921875 158.277344 C 227.902344 157.945312 227.867188 157.597656 227.847656 157.261719 C 224.699219 154.519531 221.550781 151.777344 218.398438 149.035156 " fill-opacity="1" fill-rule="nonzero"/></g></g></g><g clip-path="url(#3065f91b36)"><g clip-path="url(#7ce58344a6)"><g clip-path="url(#5e3a87514f)"><path fill="white" d="M 228.28125 137.992188 L 226.144531 140.445312 L 235.292969 148.414062 L 237.429688 145.960938 C 233.625 142.648438 232.097656 141.316406 228.28125 137.992188 " fill-opacity="1" fill-rule="nonzero"/></g></g></g><g clip-path="url(#7f340cd85b)"><g clip-path="url(#fe3abd086e)"><g clip-path="url(#4ada858e59)"><path fill="white" d="M 225.632812 140.730469 L 224.628906 140.808594 L 224.675781 141.824219 L 234.125 150.054688 L 235.15625 149.976562 L 235.082031 148.960938 L 225.632812 140.730469 " fill-opacity="1" fill-rule="nonzero"/></g></g></g><g clip-path="url(#f73abfd0bb)"><g clip-path="url(#d54bf6b170)"><g clip-path="url(#9899017ee4)"><g clip-path="url(#4b704cb8b6)"><g clip-path="url(#909d9b6708)"><path fill="white" d="M 239.429688 134.855469 L 236.398438 138.335938 L 244.945312 145.78125 L 247.976562 142.304688 C 250.042969 139.933594 241.492188 132.488281 239.429688 134.855469 " fill-opacity="1" fill-rule="nonzero"/></g></g></g></g></g><g clip-path="url(#836f1441fe)"><g clip-path="url(#acb88116cf)"><g clip-path="url(#24a76813cb)"><path fill="white" d="M 228.640625 137.578125 C 232.460938 140.902344 233.988281 142.230469 237.792969 145.546875 L 243.058594 144.867188 C 235.722656 138.480469 235.925781 138.65625 228.589844 132.265625 L 228.640625 137.578125 " fill-opacity="1" fill-rule="nonzero"/></g></g></g><g clip-path="url(#d0d3a9f0b8)"><g clip-path="url(#2cc8d20278)"><g clip-path="url(#6fdca8ea81)"><path fill="white" d="M 224.183594 142.394531 C 223.847656 142.421875 223.515625 142.445312 223.179688 142.472656 C 223.199219 142.804688 223.21875 143.140625 223.242188 143.476562 C 226.390625 146.21875 229.539062 148.960938 232.691406 151.707031 C 233.023438 151.679688 233.371094 151.664062 233.707031 151.640625 C 233.683594 151.304688 233.652344 150.960938 233.632812 150.625 C 230.480469 147.882812 227.332031 145.136719 224.183594 142.394531 " fill-opacity="1" fill-rule="nonzero"/></g></g></g><g clip-path="url(#2c8570675a)"><g clip-path="url(#bf8d15174c)"><g clip-path="url(#992691b83f)"><path fill="white" d="M 216.953125 150.695312 C 216.617188 150.722656 216.28125 150.746094 215.949219 150.773438 C 215.96875 151.109375 215.988281 151.441406 216.007812 151.777344 C 219.160156 154.519531 222.308594 157.265625 225.457031 160.007812 C 225.792969 159.980469 226.140625 159.96875 226.476562 159.941406 C 226.453125 159.609375 226.421875 159.261719 226.398438 158.925781 C 223.25 156.183594 220.101562 153.441406 216.953125 150.695312 " fill-opacity="1" fill-rule="nonzero"/></g></g></g><g clip-path="url(#894b20fdfb)"><g clip-path="url(#05f350d259)"><g clip-path="url(#5dbf921ada)"><path fill="white" d="M 222.734375 144.058594 C 222.398438 144.082031 222.066406 144.109375 221.730469 144.136719 C 221.75 144.46875 221.773438 144.804688 221.792969 145.136719 C 224.941406 147.882812 228.089844 150.625 231.242188 153.367188 C 231.574219 153.34375 231.921875 153.328125 232.257812 153.304688 C 232.238281 152.96875 232.203125 152.621094 232.183594 152.289062 C 229.03125 149.542969 225.882812 146.800781 222.734375 144.058594 " fill-opacity="1" fill-rule="nonzero"/></g></g></g><g clip-path="url(#0ef0270764)"><g clip-path="url(#403b17c60d)"><g clip-path="url(#4ba27fc86f)"><path fill="white" d="M 219.847656 147.371094 C 219.515625 147.394531 219.179688 147.421875 218.847656 147.445312 C 218.867188 147.78125 218.875 148.128906 218.894531 148.464844 C 222.042969 151.207031 225.195312 153.953125 228.34375 156.695312 C 228.679688 156.667969 229.039062 156.640625 229.371094 156.617188 C 229.351562 156.28125 229.316406 155.933594 229.296875 155.601562 C 226.148438 152.855469 223 150.113281 219.847656 147.371094 " fill-opacity="1" fill-rule="nonzero"/></g></g></g><g clip-path="url(#85d8c57d6f)"><g clip-path="url(#79f7b9237c)"><g clip-path="url(#69e413c4f1)"><path fill="white" d="M 224.964844 160.574219 C 221.8125 157.832031 218.664062 155.089844 215.515625 152.347656 C 215.167969 152.386719 214.832031 152.410156 214.5 152.4375 C 214.519531 152.769531 214.539062 153.105469 214.5625 153.441406 C 217.710938 156.183594 220.859375 158.925781 224.011719 161.671875 C 224.34375 161.644531 224.691406 161.632812 225.027344 161.605469 C 225.003906 161.269531 224.972656 160.925781 224.964844 160.574219 " fill-opacity="1" fill-rule="nonzero"/></g></g></g><g clip-path="url(#b35a28c3a3)"><g clip-path="url(#60909e9293)"><g clip-path="url(#2f15279e3b)"><path fill="white" d="M 221.296875 145.707031 C 220.960938 145.730469 220.617188 145.773438 220.28125 145.796875 C 220.300781 146.132812 220.324219 146.46875 220.34375 146.800781 C 223.492188 149.546875 226.640625 152.289062 229.792969 155.03125 C 230.125 155.007812 230.472656 154.992188 230.808594 154.964844 C 230.789062 154.632812 230.765625 154.273438 230.746094 153.9375 C 227.597656 151.195312 224.445312 148.449219 221.296875 145.707031 " fill-opacity="1" fill-rule="nonzero"/></g></g></g><g clip-path="url(#7f554814f7)"><g clip-path="url(#68500c6bc5)"><g clip-path="url(#762c6b538b)"><g clip-path="url(#444e76e300)"><path fill="white" d="M 282.628906 174.484375 C 283.371094 175.144531 284.453125 175.070312 285.117188 174.316406 L 286.925781 172.273438 L 289.113281 174.207031 C 291.082031 175.945312 294.152344 175.734375 295.917969 173.738281 L 303.296875 165.390625 C 305.566406 166.527344 308.414062 166.039062 310.179688 164.039062 C 312.261719 161.6875 312.109375 158.070312 309.746094 155.980469 L 308.871094 155.207031 L 319.703125 142.953125 C 320.921875 141.578125 320.980469 139.570312 319.941406 138.101562 C 320.019531 138.011719 320.054688 137.882812 320.132812 137.796875 L 324.019531 133.398438 C 324.6875 132.644531 324.628906 131.566406 323.882812 130.90625 L 319.597656 127.117188 C 318.851562 126.457031 317.773438 126.535156 317.105469 127.289062 L 313.222656 131.683594 C 313.140625 131.773438 313.0625 131.859375 312.941406 131.910156 C 311.4375 131.054688 309.410156 131.320312 308.15625 132.742188 L 297.320312 144.996094 L 296.445312 144.222656 C 294.125 142.171875 290.511719 142.378906 288.394531 144.777344 C 286.628906 146.777344 286.492188 149.660156 287.898438 151.773438 L 280.480469 160.167969 C 279.261719 161.542969 278.949219 163.480469 279.578125 165.066406 L 273.925781 171.457031 C 273.257812 172.214844 273.316406 173.292969 274.058594 173.949219 L 279.878906 179.09375 C 280.621094 179.753906 281.703125 179.679688 282.367188 178.921875 C 283.035156 178.167969 282.976562 177.089844 282.234375 176.429688 L 277.726562 172.449219 L 281.808594 167.828125 L 284.261719 169.996094 L 282.453125 172.039062 C 281.867188 172.703125 281.882812 173.828125 282.628906 174.484375 Z M 289.28125 169.609375 L 283.242188 164.269531 C 282.71875 163.804688 282.671875 162.976562 283.144531 162.441406 L 290.40625 154.230469 L 298.324219 161.230469 L 297.183594 162.515625 L 296.703125 162.089844 C 295.960938 161.433594 294.882812 161.507812 294.214844 162.261719 C 293.546875 163.019531 293.605469 164.097656 294.347656 164.753906 L 294.875 165.21875 L 293.734375 166.507812 L 293.210938 166.042969 C 292.46875 165.386719 291.386719 165.460938 290.71875 166.214844 C 290.054688 166.96875 290.113281 168.050781 290.855469 168.707031 L 291.378906 169.171875 L 291.066406 169.527344 C 290.589844 169.976562 289.804688 170.074219 289.28125 169.609375 Z M 310.78125 135.0625 C 310.898438 134.929688 311.0625 134.917969 311.195312 135.035156 L 312.246094 135.960938 L 315.261719 138.632812 C 315.226562 138.757812 315.1875 138.804688 315.109375 138.890625 L 304.277344 151.144531 L 299.945312 147.316406 Z M 315.847656 134.003906 L 318.554688 130.941406 L 320.21875 132.410156 L 317.507812 135.472656 C 317.429688 135.5625 317.390625 135.609375 317.3125 135.695312 L 315.605469 134.1875 C 315.726562 134.136719 315.765625 134.09375 315.847656 134.003906 Z M 291.019531 147.097656 C 291.804688 146.210938 293.214844 146.113281 294.089844 146.886719 L 305.421875 156.90625 C 305.277344 157.332031 305.089844 157.71875 304.816406 158.03125 L 303.597656 159.40625 C 303.285156 159.761719 302.921875 159.996094 302.554688 160.144531 L 291.222656 150.128906 C 290.308594 149.398438 290.234375 147.984375 291.019531 147.097656 Z M 291.019531 147.097656 " fill-opacity="1" fill-rule="nonzero"/></g></g></g></g><g clip-path="url(#52b6c8798a)"><path fill="white" d="M 73.648438 213.59375 L 73.652344 213.59375 Z M 75.753906 205.914062 C 75.078125 205.914062 74.527344 206.464844 74.527344 207.140625 L 74.527344 213.59375 C 74.527344 213.96875 74.289062 214.304688 73.933594 214.425781 C 72.117188 215.042969 70.785156 216.667969 70.539062 218.566406 C 70.488281 218.949219 70.195312 219.253906 69.816406 219.320312 L 69.628906 219.351562 C 63.859375 220.300781 59.449219 225.222656 59.140625 231.054688 L 58.574219 241.609375 C 58.554688 241.9375 58.667969 242.25 58.886719 242.492188 C 59.105469 242.738281 59.40625 242.878906 59.734375 242.898438 C 59.746094 242.898438 59.753906 242.898438 59.765625 242.902344 C 59.773438 242.902344 59.789062 242.902344 59.800781 242.902344 C 60.453125 242.902344 60.988281 242.390625 61.023438 241.738281 L 61.585938 231.1875 C 61.839844 226.492188 65.390625 222.535156 70.027344 221.773438 L 70.488281 221.699219 L 75.957031 220.796875 C 76.546875 220.699219 76.980469 220.1875 76.980469 219.585938 L 76.980469 207.140625 C 76.980469 206.464844 76.429688 205.914062 75.753906 205.914062 Z M 59.800781 244.65625 C 59.757812 244.65625 59.695312 244.65625 59.625 244.648438 C 58.835938 244.601562 58.109375 244.253906 57.582031 243.667969 C 57.046875 243.074219 56.777344 242.308594 56.820312 241.515625 L 56.855469 240.910156 L 57.386719 230.960938 C 57.734375 224.457031 62.554688 218.945312 68.914062 217.695312 C 69.394531 215.628906 70.835938 213.875 72.773438 213 L 72.773438 207.140625 C 72.773438 205.496094 74.109375 204.160156 75.753906 204.160156 C 77.398438 204.160156 78.734375 205.496094 78.734375 207.140625 L 78.734375 219.585938 C 78.734375 221.050781 77.6875 222.285156 76.242188 222.527344 L 75.894531 222.582031 L 70.3125 223.503906 C 66.480469 224.132812 63.550781 227.402344 63.339844 231.28125 L 62.773438 241.832031 C 62.691406 243.414062 61.386719 244.65625 59.800781 244.65625 " fill-opacity="1" fill-rule="nonzero"/></g><g clip-path="url(#d2fc7b3b89)"><path fill="white" d="M 78.238281 221.238281 L 81.484375 221.773438 C 86.117188 222.535156 89.667969 226.492188 89.917969 231.1875 L 90.484375 241.738281 C 90.519531 242.390625 91.054688 242.902344 91.703125 242.902344 C 91.71875 242.902344 91.734375 242.902344 91.746094 242.898438 C 91.757812 242.898438 91.761719 242.898438 91.773438 242.898438 C 92.449219 242.863281 92.96875 242.285156 92.933594 241.609375 L 92.367188 231.054688 C 92.058594 225.222656 87.644531 220.300781 81.878906 219.351562 L 81.335938 219.257812 C 80.957031 219.195312 80.664062 218.894531 80.609375 218.515625 C 80.429688 217.214844 79.742188 216.050781 78.734375 215.25 L 78.734375 219.585938 C 78.734375 220.195312 78.554688 220.765625 78.238281 221.238281 Z M 91.703125 244.65625 C 90.121094 244.65625 88.816406 243.414062 88.730469 241.832031 L 88.167969 231.28125 C 87.957031 227.402344 85.027344 224.132812 81.199219 223.503906 L 75.609375 222.582031 C 75.1875 222.511719 74.875 222.144531 74.875 221.71875 C 74.875 221.289062 75.1875 220.921875 75.613281 220.851562 L 75.957031 220.796875 C 76.546875 220.699219 76.980469 220.1875 76.980469 219.585938 L 76.980469 213.726562 C 76.980469 213.433594 77.125 213.160156 77.371094 213 C 77.613281 212.835938 77.921875 212.804688 78.191406 212.917969 C 80.21875 213.753906 81.71875 215.523438 82.226562 217.628906 C 88.769531 218.734375 93.765625 224.332031 94.121094 230.960938 L 94.683594 241.515625 C 94.773438 243.148438 93.519531 244.554688 91.882812 244.648438 C 91.8125 244.65625 91.75 244.65625 91.703125 244.65625 " fill-opacity="1" fill-rule="nonzero"/></g><path fill="white" d="M 74.527344 219.0625 C 74.042969 219.0625 73.648438 218.667969 73.648438 218.183594 L 73.648438 217.132812 C 73.648438 216.648438 74.042969 216.253906 74.527344 216.253906 C 75.011719 216.253906 75.402344 216.648438 75.402344 217.132812 L 75.402344 218.183594 C 75.402344 218.667969 75.011719 219.0625 74.527344 219.0625 " fill-opacity="1" fill-rule="nonzero"/><path fill="white" d="M 65.410156 243.253906 L 61.78125 243.253906 C 61.296875 243.253906 60.90625 242.859375 60.90625 242.375 C 60.90625 241.890625 61.296875 241.5 61.78125 241.5 L 64.53125 241.5 L 64.53125 235.910156 L 62.277344 235.964844 C 61.792969 235.980469 61.390625 235.59375 61.378906 235.109375 C 61.367188 234.625 61.75 234.222656 62.238281 234.210938 L 65.386719 234.136719 C 65.625 234.132812 65.851562 234.21875 66.023438 234.386719 C 66.191406 234.550781 66.285156 234.777344 66.285156 235.011719 L 66.285156 242.375 C 66.285156 242.859375 65.894531 243.253906 65.410156 243.253906 " fill-opacity="1" fill-rule="nonzero"/><path fill="white" d="M 57.128906 235.730469 C 56.328125 236.082031 55.765625 236.886719 55.765625 237.816406 C 55.765625 238.664062 56.222656 239.40625 56.914062 239.796875 Z M 57.730469 241.832031 C 57.699219 241.832031 57.671875 241.832031 57.644531 241.828125 C 55.574219 241.625 54.011719 239.898438 54.011719 237.816406 C 54.011719 235.59375 55.820312 233.785156 58.046875 233.785156 L 58.066406 233.785156 C 58.308594 233.785156 58.539062 233.882812 58.703125 234.058594 C 58.867188 234.234375 58.957031 234.46875 58.941406 234.710938 L 58.605469 241.003906 C 58.59375 241.242188 58.484375 241.464844 58.300781 241.621094 C 58.140625 241.757812 57.9375 241.832031 57.730469 241.832031 " fill-opacity="1" fill-rule="nonzero"/><path fill="white" d="M 89.726562 243.253906 L 86.097656 243.253906 C 85.613281 243.253906 85.21875 242.859375 85.21875 242.375 L 85.21875 235.011719 C 85.21875 234.777344 85.316406 234.550781 85.484375 234.386719 C 85.652344 234.21875 85.878906 234.128906 86.121094 234.136719 L 89.269531 234.210938 C 89.753906 234.222656 90.136719 234.625 90.125 235.109375 C 90.117188 235.59375 89.710938 235.976562 89.230469 235.964844 L 86.976562 235.910156 L 86.976562 241.5 L 89.726562 241.5 C 90.210938 241.5 90.601562 241.890625 90.601562 242.375 C 90.601562 242.859375 90.210938 243.253906 89.726562 243.253906 " fill-opacity="1" fill-rule="nonzero"/><g clip-path="url(#4a1368d0fe)"><path fill="white" d="M 94.375 235.730469 L 94.59375 239.796875 C 95.285156 239.40625 95.742188 238.664062 95.742188 237.816406 C 95.742188 236.886719 95.179688 236.082031 94.375 235.730469 Z M 93.777344 241.832031 C 93.570312 241.832031 93.367188 241.757812 93.207031 241.621094 C 93.023438 241.464844 92.914062 241.242188 92.902344 241.003906 L 92.566406 234.710938 C 92.550781 234.46875 92.636719 234.234375 92.804688 234.058594 C 92.96875 233.882812 93.199219 233.785156 93.441406 233.785156 L 93.460938 233.785156 C 95.6875 233.785156 97.496094 235.59375 97.496094 237.816406 C 97.496094 239.898438 95.933594 241.625 93.863281 241.828125 C 93.835938 241.832031 93.804688 241.832031 93.777344 241.832031 " fill-opacity="1" fill-rule="nonzero"/></g><g clip-path="url(#face82b699)"><path fill="white" d="M 154.734375 216.953125 L 155.214844 215.890625 C 155.023438 215.988281 157.621094 214.0625 157.71875 213.964844 C 156.851562 212.617188 156.949219 211.464844 157.140625 209.828125 L 155.117188 211.269531 L 153.769531 210.886719 C 153.097656 211.367188 152.421875 210.308594 152.421875 210.308594 C 151.363281 208.480469 150.402344 208.769531 150.402344 208.769531 C 148.765625 209.152344 150.015625 210.886719 150.015625 210.886719 C 151.460938 213.773438 147.707031 215.21875 147.707031 215.21875 C 136.441406 219.839844 129.414062 228.792969 128.738281 230.332031 C 127.96875 231.777344 125.851562 234.664062 125.5625 235.628906 C 125.273438 236.589844 126.429688 237.359375 129.222656 237.265625 C 132.011719 237.265625 133.746094 232.933594 133.746094 232.933594 C 137.308594 223.882812 154.734375 216.953125 154.734375 216.953125 Z M 154.734375 216.953125 " fill-opacity="1" fill-rule="nonzero"/></g><g clip-path="url(#54376075c7)"><path fill="white" d="M 170.90625 201.835938 L 168.691406 204.050781 C 168.691406 204.050781 168.980469 204.628906 168.402344 204.722656 C 168.402344 204.722656 168.789062 205.398438 167.921875 205.398438 C 167.921875 205.398438 168.019531 205.6875 167.921875 205.878906 C 167.828125 206.167969 167.632812 206.074219 167.441406 206.074219 C 167.441406 206.167969 167.539062 206.457031 167.25 206.554688 C 167.152344 206.648438 167.054688 206.648438 166.863281 206.554688 C 166.863281 206.9375 166.382812 206.84375 165.996094 206.746094 C 166.960938 208.574219 165.707031 209.730469 164.265625 209.828125 C 164.9375 210.980469 165.035156 212.523438 164.265625 213.871094 C 164.554688 213.871094 164.746094 213.964844 164.746094 213.871094 L 167.054688 211.269531 C 167.25 210.886719 165.996094 213.582031 171.386719 202.222656 C 171.386719 202.222656 170.8125 201.835938 170.90625 201.835938 Z M 170.90625 201.835938 " fill-opacity="1" fill-rule="nonzero"/></g><path fill="white" d="M 162.050781 211.847656 C 162.050781 212 162.019531 212.148438 161.960938 212.289062 C 161.902344 212.433594 161.820312 212.558594 161.710938 212.664062 C 161.601562 212.773438 161.476562 212.859375 161.335938 212.917969 C 161.195312 212.976562 161.046875 213.003906 160.894531 213.003906 C 160.742188 213.003906 160.59375 212.976562 160.453125 212.917969 C 160.3125 212.859375 160.1875 212.773438 160.078125 212.664062 C 159.96875 212.558594 159.886719 212.433594 159.828125 212.289062 C 159.769531 212.148438 159.738281 212 159.738281 211.847656 C 159.738281 211.695312 159.769531 211.546875 159.828125 211.40625 C 159.886719 211.265625 159.96875 211.140625 160.078125 211.03125 C 160.1875 210.921875 160.3125 210.839844 160.453125 210.78125 C 160.59375 210.722656 160.742188 210.695312 160.894531 210.695312 C 161.046875 210.695312 161.195312 210.722656 161.335938 210.78125 C 161.476562 210.839844 161.601562 210.921875 161.710938 211.03125 C 161.820312 211.140625 161.902344 211.265625 161.960938 211.40625 C 162.019531 211.546875 162.050781 211.695312 162.050781 211.847656 Z M 162.050781 211.847656 " fill-opacity="1" fill-rule="nonzero"/><g clip-path="url(#aef2dc3b1b)"><path fill="white" d="M 170.328125 201.164062 L 161.28125 205.589844 L 158.777344 207.902344 C 157.910156 210.40625 157.332031 212.90625 159.160156 214.253906 C 159.066406 214.351562 156.660156 217.722656 156.753906 217.433594 L 155.695312 217.914062 C 155.695312 217.914062 148.957031 235.339844 139.8125 239.191406 C 139.8125 239.191406 135.574219 240.921875 135.574219 243.714844 C 135.574219 246.507812 136.34375 247.664062 137.308594 247.375 C 138.269531 247.085938 141.0625 244.871094 142.601562 244.101562 C 144.046875 243.332031 153 236.300781 157.523438 225.039062 C 157.523438 225.039062 158.96875 221.285156 161.859375 222.726562 C 161.859375 222.726562 163.589844 223.980469 163.976562 222.34375 C 163.976562 222.34375 164.265625 221.378906 162.339844 220.320312 C 162.339844 220.320312 161.28125 219.648438 161.761719 218.972656 L 161.375 217.722656 L 163.398438 215.316406 L 163.109375 213.964844 C 164.265625 212.8125 164.167969 211.078125 163.300781 210.019531 C 162.433594 207.902344 163.398438 207.324219 163.398438 207.226562 C 164.746094 205.6875 166.09375 206.746094 166.09375 206.746094 C 165.707031 205.878906 166.191406 205.878906 166.191406 205.878906 C 165.996094 205.207031 166.671875 205.300781 166.671875 205.300781 C 166.671875 204.628906 167.34375 204.820312 167.34375 204.820312 C 167.34375 203.953125 168.019531 204.339844 168.019531 204.339844 C 168.113281 203.859375 168.691406 204.050781 168.691406 204.050781 L 170.8125 201.835938 C 170.8125 201.835938 170.8125 201.835938 170.8125 201.738281 Z M 162.53125 212.617188 C 162.050781 213.484375 160.992188 213.871094 160.125 213.390625 C 159.257812 212.90625 158.871094 211.847656 159.355469 210.980469 C 159.835938 210.117188 160.894531 209.730469 161.761719 210.210938 C 162.628906 210.695312 163.011719 211.753906 162.53125 212.617188 Z M 162.53125 212.617188 " fill-opacity="1" fill-rule="nonzero"/></g><path fill="white" d="M 242.355469 224.210938 C 242.21875 224.210938 242.082031 224.15625 241.972656 224.046875 L 237.117188 219.230469 C 236.953125 219.066406 236.925781 218.824219 237.007812 218.632812 L 238.1875 215.832031 C 238.460938 215.175781 239.476562 215.613281 239.203125 216.265625 L 238.160156 218.714844 L 242.492188 223.011719 L 244.960938 221.980469 C 245.617188 221.707031 246.058594 222.714844 245.371094 222.984375 Z M 242.355469 224.210938 " fill-opacity="1" fill-rule="evenodd"/><path fill="white" d="M 245.917969 223.613281 C 245.671875 223.613281 245.425781 223.503906 245.261719 223.339844 L 237.832031 215.964844 C 237.449219 215.613281 237.449219 215.015625 237.832031 214.660156 L 239.613281 212.890625 C 239.96875 212.539062 240.574219 212.539062 240.929688 212.890625 L 248.359375 220.265625 C 248.714844 220.617188 248.714844 221.21875 248.359375 221.570312 L 246.578125 223.339844 C 246.386719 223.503906 246.167969 223.613281 245.917969 223.613281 Z M 238.707031 215.3125 L 245.917969 222.441406 L 247.457031 220.917969 L 240.273438 213.761719 Z M 238.707031 215.3125 " fill-opacity="1" fill-rule="evenodd"/><path fill="white" d="M 247.484375 220.726562 C 247.097656 220.726562 246.824219 220.320312 246.988281 219.964844 L 248.03125 217.515625 L 243.699219 213.21875 L 241.230469 214.253906 C 240.574219 214.523438 240.132812 213.519531 240.792969 213.246094 L 243.617188 212.074219 C 243.808594 211.996094 244.054688 212.023438 244.191406 212.183594 L 249.074219 217 C 249.210938 217.164062 249.265625 217.410156 249.183594 217.597656 L 248.003906 220.375 C 247.921875 220.589844 247.703125 220.726562 247.484375 220.726562 Z M 247.484375 220.726562 " fill-opacity="1" fill-rule="evenodd"/><path fill="white" d="M 247.539062 216.808594 C 247.042969 216.808594 246.796875 216.210938 247.152344 215.886719 C 248.25 214.769531 248.523438 214.578125 247.371094 213.4375 C 246.578125 212.648438 245.78125 213.652344 245.34375 214.089844 C 244.851562 214.605469 244.054688 213.816406 244.578125 213.328125 C 245.207031 212.675781 245.671875 212.074219 246.6875 212.074219 C 248.222656 212.074219 250.195312 214.390625 248.578125 215.992188 C 248.222656 216.347656 247.894531 216.808594 247.539062 216.808594 Z M 247.539062 216.808594 " fill-opacity="1" fill-rule="evenodd"/><path fill="white" d="M 224.726562 243.308594 C 224.367188 243.308594 224.09375 242.902344 224.230469 242.546875 L 225.273438 240.097656 L 220.941406 235.800781 L 218.472656 236.832031 C 217.816406 237.105469 217.378906 236.097656 218.035156 235.828125 L 220.859375 234.65625 C 221.050781 234.546875 221.296875 234.601562 221.460938 234.765625 L 226.316406 239.582031 C 226.480469 239.746094 226.507812 239.988281 226.425781 240.179688 L 225.246094 242.957031 C 225.164062 243.171875 224.945312 243.308594 224.726562 243.308594 Z M 224.726562 243.308594 " fill-opacity="1" fill-rule="evenodd"/><g clip-path="url(#dfb8d7fa5a)"><path fill="white" d="M 223.164062 246.191406 C 222.914062 246.191406 222.667969 246.082031 222.503906 245.921875 L 215.074219 238.546875 C 214.71875 238.195312 214.71875 237.59375 215.074219 237.242188 L 216.855469 235.472656 C 217.210938 235.121094 217.816406 235.121094 218.171875 235.472656 L 225.601562 242.847656 C 225.960938 243.199219 225.960938 243.796875 225.601562 244.152344 L 223.820312 245.921875 C 223.628906 246.082031 223.410156 246.191406 223.164062 246.191406 Z M 215.953125 237.894531 L 223.164062 245.023438 L 224.699219 243.5 L 217.515625 236.34375 Z M 215.953125 237.894531 " fill-opacity="1" fill-rule="evenodd"/></g><g clip-path="url(#0f723a5aab)"><path fill="white" d="M 219.597656 246.792969 C 219.460938 246.792969 219.324219 246.738281 219.214844 246.628906 L 214.359375 241.785156 C 214.195312 241.648438 214.167969 241.40625 214.25 241.214844 L 215.429688 238.410156 C 215.703125 237.757812 216.71875 238.195312 216.445312 238.847656 L 215.402344 241.296875 L 219.734375 245.59375 L 222.203125 244.558594 C 222.859375 244.289062 223.300781 245.292969 222.613281 245.566406 Z M 219.597656 246.792969 " fill-opacity="1" fill-rule="evenodd"/></g><path fill="white" d="M 224.78125 239.390625 C 224.285156 239.390625 224.039062 238.792969 224.394531 238.464844 L 229.90625 232.96875 C 230.070312 232.835938 230.292969 232.78125 230.484375 232.835938 C 233.390625 233.867188 236.214844 231.066406 235.171875 228.183594 C 235.117188 227.992188 235.171875 227.773438 235.308594 227.609375 L 240.847656 222.140625 C 241.339844 221.625 242.109375 222.414062 241.613281 222.902344 L 236.324219 228.15625 C 237.28125 231.664062 233.992188 234.929688 230.457031 233.976562 L 225.164062 239.226562 C 225.054688 239.335938 224.917969 239.390625 224.78125 239.390625 Z M 222.203125 236.832031 C 221.710938 236.832031 221.460938 236.234375 221.820312 235.910156 L 227.109375 230.65625 C 226.152344 227.121094 229.441406 223.882812 232.976562 224.835938 L 238.269531 219.585938 C 238.761719 219.066406 239.558594 219.855469 239.039062 220.347656 L 233.527344 225.84375 C 233.363281 225.980469 233.144531 226.03125 232.949219 225.953125 C 230.042969 224.945312 227.21875 227.746094 228.234375 230.628906 C 228.316406 230.820312 228.261719 231.039062 228.125 231.175781 L 222.585938 236.671875 C 222.476562 236.78125 222.339844 236.832031 222.203125 236.832031 Z M 222.203125 236.832031 " fill-opacity="1" fill-rule="evenodd"/><g clip-path="url(#69ae9b368b)"><path fill="white" d="M 216.746094 246.738281 C 215.210938 246.738281 213.210938 244.425781 214.855469 242.820312 C 215.292969 242.382812 215.785156 241.675781 216.28125 242.167969 C 216.773438 242.65625 216.0625 243.144531 215.621094 243.582031 C 214.691406 244.53125 216.5 246.273438 217.40625 245.375 C 217.871094 244.941406 218.363281 244.234375 218.859375 244.722656 C 219.351562 245.214844 218.636719 245.703125 218.199219 246.136719 C 217.816406 246.519531 217.296875 246.738281 216.746094 246.738281 Z M 216.746094 246.738281 " fill-opacity="1" fill-rule="evenodd"/></g><path fill="white" d="M 231.71875 231.910156 C 229.46875 231.910156 228.34375 229.214844 229.933594 227.636719 C 230.921875 226.660156 232.511719 226.660156 233.5 227.636719 C 235.089844 229.214844 233.9375 231.910156 231.71875 231.910156 Z M 231.71875 227.992188 C 230.457031 227.992188 229.796875 229.515625 230.703125 230.414062 C 232.019531 231.691406 234.074219 229.734375 232.730469 228.398438 C 232.457031 228.128906 232.101562 227.992188 231.71875 227.992188 Z M 231.71875 227.992188 " fill-opacity="1" fill-rule="evenodd"/><path fill="white" d="M 228.671875 235.5 C 228.535156 235.5 228.398438 235.445312 228.289062 235.335938 L 225.710938 232.808594 C 225.21875 232.289062 225.988281 231.527344 226.507812 232.019531 L 229.058594 234.574219 C 229.414062 234.929688 229.167969 235.5 228.671875 235.5 Z M 228.671875 235.5 " fill-opacity="1" fill-rule="evenodd"/><path fill="white" d="M 237.308594 226.929688 C 237.171875 226.929688 237.035156 226.875 236.925781 226.765625 L 234.347656 224.238281 C 233.855469 223.71875 234.625 222.957031 235.144531 223.449219 L 237.695312 226.003906 C 238.050781 226.359375 237.804688 226.929688 237.308594 226.929688 Z M 237.308594 226.929688 " fill-opacity="1" fill-rule="evenodd"/><path fill="white" d="M 230.59375 212.539062 C 230.457031 212.539062 230.320312 212.484375 230.210938 212.375 L 225.355469 207.53125 C 225.191406 207.398438 225.136719 207.152344 225.246094 206.960938 L 226.425781 204.160156 C 226.699219 203.507812 227.714844 203.941406 227.441406 204.59375 L 226.398438 207.042969 L 230.730469 211.339844 L 233.199219 210.308594 C 233.855469 210.035156 234.265625 211.042969 233.609375 211.3125 Z M 230.59375 212.539062 " fill-opacity="1" fill-rule="evenodd"/><g clip-path="url(#a0127fa5ab)"><path fill="white" d="M 234.15625 211.941406 C 233.910156 211.941406 233.664062 211.832031 233.5 211.667969 L 226.070312 204.296875 C 225.683594 203.941406 225.683594 203.34375 226.070312 202.988281 L 227.851562 201.222656 C 228.207031 200.867188 228.8125 200.867188 229.167969 201.222656 L 236.597656 208.59375 C 236.953125 208.949219 236.953125 209.546875 236.597656 209.898438 L 234.816406 211.667969 C 234.625 211.832031 234.402344 211.941406 234.15625 211.941406 Z M 226.945312 203.640625 L 234.15625 210.769531 L 235.691406 209.246094 L 228.507812 202.089844 Z M 226.945312 203.640625 " fill-opacity="1" fill-rule="evenodd"/></g><g clip-path="url(#8809b037fd)"><path fill="white" d="M 235.71875 209.054688 C 235.335938 209.054688 235.0625 208.648438 235.226562 208.292969 L 236.269531 205.847656 L 231.9375 201.546875 L 229.46875 202.582031 C 228.8125 202.851562 228.371094 201.847656 229.03125 201.574219 L 231.828125 200.40625 C 232.046875 200.324219 232.292969 200.351562 232.429688 200.511719 L 237.308594 205.328125 C 237.449219 205.492188 237.503906 205.738281 237.421875 205.925781 L 236.242188 208.703125 C 236.160156 208.921875 235.941406 209.054688 235.71875 209.054688 Z M 235.71875 209.054688 " fill-opacity="1" fill-rule="evenodd"/></g><g clip-path="url(#6a622f0b4e)"><path fill="white" d="M 235.773438 205.136719 C 235.28125 205.136719 235.035156 204.539062 235.390625 204.214844 C 235.800781 203.777344 236.84375 202.988281 236.050781 202.199219 C 234.871094 201.058594 234.652344 201.355469 233.582031 202.417969 C 233.0625 202.933594 232.292969 202.144531 232.8125 201.65625 C 233.472656 201.003906 233.910156 200.40625 234.925781 200.40625 C 236.460938 200.40625 238.460938 202.691406 236.816406 204.324219 C 236.460938 204.675781 236.132812 205.136719 235.773438 205.136719 Z M 235.773438 205.136719 " fill-opacity="1" fill-rule="evenodd"/></g><path fill="white" d="M 212.960938 231.636719 C 212.578125 231.636719 212.304688 231.230469 212.46875 230.875 L 213.511719 228.425781 L 209.179688 224.128906 L 206.710938 225.164062 C 206.054688 225.433594 205.613281 224.429688 206.273438 224.15625 L 209.097656 222.984375 C 209.289062 222.878906 209.535156 222.929688 209.699219 223.09375 L 214.554688 227.910156 C 214.71875 228.074219 214.746094 228.316406 214.664062 228.507812 L 213.484375 231.285156 C 213.402344 231.5 213.183594 231.636719 212.960938 231.636719 Z M 212.960938 231.636719 " fill-opacity="1" fill-rule="evenodd"/><path fill="white" d="M 211.398438 234.519531 C 211.152344 234.519531 210.90625 234.414062 210.742188 234.25 L 203.3125 226.875 C 202.925781 226.523438 202.925781 225.925781 203.3125 225.570312 L 205.09375 223.800781 C 205.449219 223.449219 206.054688 223.449219 206.410156 223.800781 L 213.839844 231.175781 C 214.195312 231.527344 214.195312 232.101562 213.839844 232.480469 L 212.058594 234.25 C 211.867188 234.414062 211.648438 234.519531 211.398438 234.519531 Z M 204.1875 226.222656 L 211.398438 233.351562 L 212.933594 231.828125 L 205.75 224.671875 Z M 204.1875 226.222656 " fill-opacity="1" fill-rule="evenodd"/><path fill="white" d="M 207.835938 235.09375 C 207.699219 235.09375 207.5625 235.039062 207.453125 234.957031 L 202.597656 230.113281 C 202.433594 229.976562 202.40625 229.734375 202.488281 229.515625 L 203.667969 226.742188 C 203.941406 226.085938 204.957031 226.523438 204.683594 227.175781 L 203.640625 229.625 L 207.972656 233.921875 L 210.441406 232.890625 C 211.097656 232.617188 211.535156 233.625 210.851562 233.894531 Z M 207.835938 235.09375 " fill-opacity="1" fill-rule="evenodd"/><path fill="white" d="M 213.019531 227.71875 C 212.523438 227.71875 212.277344 227.121094 212.632812 226.765625 L 218.144531 221.300781 C 218.308594 221.164062 218.527344 221.109375 218.722656 221.164062 C 221.628906 222.195312 224.453125 219.394531 223.410156 216.511719 C 223.355469 216.320312 223.410156 216.101562 223.546875 215.9375 L 229.058594 210.472656 C 229.578125 209.953125 230.347656 210.714844 229.851562 211.234375 L 224.5625 216.484375 C 225.519531 219.992188 222.230469 223.257812 218.691406 222.304688 L 213.402344 227.554688 C 213.292969 227.664062 213.15625 227.71875 213.019531 227.71875 Z M 210.441406 225.164062 C 209.945312 225.164062 209.699219 224.5625 210.054688 224.238281 L 215.347656 218.988281 C 214.386719 215.449219 217.679688 212.210938 221.214844 213.164062 L 226.507812 207.914062 C 227 207.398438 227.769531 208.1875 227.273438 208.675781 L 221.738281 214.171875 C 221.601562 214.308594 221.378906 214.363281 221.1875 214.28125 C 218.28125 213.273438 215.457031 216.074219 216.472656 218.960938 C 216.554688 219.148438 216.5 219.367188 216.363281 219.503906 L 210.824219 225 C 210.714844 225.109375 210.578125 225.164062 210.441406 225.164062 Z M 210.441406 225.164062 " fill-opacity="1" fill-rule="evenodd"/><path fill="white" d="M 204.984375 235.066406 C 203.449219 235.066406 201.445312 232.753906 203.066406 231.148438 C 203.53125 230.710938 204.023438 230.003906 204.519531 230.496094 C 205.011719 230.984375 204.296875 231.472656 203.859375 231.910156 C 202.925781 232.835938 204.738281 234.601562 205.640625 233.703125 C 206.082031 233.269531 206.601562 232.5625 207.09375 233.050781 C 207.589844 233.542969 206.875 234.03125 206.4375 234.46875 C 206.054688 234.847656 205.53125 235.066406 204.984375 235.066406 Z M 204.984375 235.066406 " fill-opacity="1" fill-rule="evenodd"/><path fill="white" d="M 219.953125 220.238281 C 217.707031 220.238281 216.582031 217.542969 218.171875 215.964844 C 219.160156 214.988281 220.75 214.988281 221.738281 215.964844 C 223.328125 217.542969 222.175781 220.238281 219.953125 220.238281 Z M 219.953125 216.320312 C 218.691406 216.320312 218.035156 217.84375 218.941406 218.742188 C 220.257812 220.019531 222.3125 218.0625 220.96875 216.726562 C 220.695312 216.457031 220.339844 216.320312 219.953125 216.320312 Z M 219.953125 216.320312 " fill-opacity="1" fill-rule="evenodd"/><path fill="white" d="M 216.910156 223.828125 C 216.773438 223.828125 216.636719 223.773438 216.527344 223.664062 L 213.949219 221.109375 C 213.457031 220.617188 214.222656 219.855469 214.71875 220.347656 L 217.296875 222.902344 C 217.652344 223.257812 217.40625 223.828125 216.910156 223.828125 Z M 216.910156 223.828125 " fill-opacity="1" fill-rule="evenodd"/><path fill="white" d="M 225.546875 215.257812 C 225.410156 215.257812 225.273438 215.203125 225.164062 215.097656 L 222.585938 212.539062 C 222.09375 212.050781 222.859375 211.289062 223.382812 211.777344 L 225.933594 214.335938 C 226.289062 214.6875 226.042969 215.257812 225.546875 215.257812 Z M 225.546875 215.257812 " fill-opacity="1" fill-rule="evenodd"/><g clip-path="url(#1d7b76f439)"><path fill="white" d="M 320.730469 209.539062 Z M 299.890625 223.066406 L 301.785156 224.960938 L 316.75 210 C 316.832031 209.914062 316.9375 209.855469 317.050781 209.824219 L 320.28125 208.957031 L 323.5 203.328125 L 321.523438 201.351562 L 315.890625 204.570312 L 315.027344 207.796875 C 314.996094 207.914062 314.9375 208.019531 314.851562 208.101562 Z M 301.785156 226.597656 C 301.605469 226.597656 301.433594 226.527344 301.308594 226.398438 L 298.453125 223.542969 C 298.1875 223.28125 298.1875 222.851562 298.453125 222.585938 L 313.765625 207.273438 L 314.65625 203.945312 C 314.703125 203.773438 314.816406 203.625 314.976562 203.535156 L 321.300781 199.917969 C 321.566406 199.765625 321.898438 199.808594 322.117188 200.027344 L 324.824219 202.734375 C 325.042969 202.949219 325.085938 203.285156 324.933594 203.550781 L 321.316406 209.875 C 321.226562 210.03125 321.078125 210.148438 320.90625 210.195312 L 317.578125 211.085938 L 302.265625 226.398438 C 302.136719 226.527344 301.964844 226.597656 301.785156 226.597656 " fill-opacity="1" fill-rule="nonzero"/></g><g clip-path="url(#132ecc7dba)"><path fill="white" d="M 281.351562 246.980469 C 282.589844 248.21875 284.609375 248.21875 285.847656 246.980469 L 303.863281 228.964844 L 295.886719 220.988281 L 277.871094 239.003906 C 277.269531 239.605469 276.941406 240.402344 276.941406 241.25 C 276.941406 242.101562 277.269531 242.898438 277.871094 243.5 Z M 283.597656 249.261719 C 282.4375 249.261719 281.277344 248.820312 280.394531 247.9375 L 276.914062 244.457031 C 276.058594 243.601562 275.585938 242.464844 275.585938 241.25 C 275.585938 240.039062 276.058594 238.902344 276.914062 238.042969 L 295.410156 219.550781 C 295.671875 219.285156 296.101562 219.285156 296.367188 219.550781 L 305.300781 228.484375 C 305.566406 228.75 305.566406 229.179688 305.300781 229.441406 L 286.804688 247.9375 C 285.921875 248.820312 284.761719 249.261719 283.597656 249.261719 " fill-opacity="1" fill-rule="nonzero"/></g><path fill="white" d="M 294.242188 222.632812 L 302.21875 230.609375 L 303.863281 228.964844 L 295.886719 220.988281 Z M 302.21875 232.246094 C 302.039062 232.246094 301.867188 232.175781 301.738281 232.046875 L 292.804688 223.113281 C 292.675781 222.984375 292.605469 222.8125 292.605469 222.632812 C 292.605469 222.453125 292.675781 222.28125 292.804688 222.15625 L 295.410156 219.550781 C 295.671875 219.285156 296.101562 219.285156 296.367188 219.550781 L 305.300781 228.484375 C 305.425781 228.613281 305.5 228.785156 305.5 228.964844 C 305.5 229.144531 305.425781 229.316406 305.300781 229.441406 L 302.695312 232.046875 C 302.570312 232.175781 302.398438 232.246094 302.21875 232.246094 " fill-opacity="1" fill-rule="nonzero"/><path fill="white" d="M 281.355469 241.070312 C 281.183594 241.070312 281.007812 241.003906 280.875 240.875 C 280.613281 240.609375 280.613281 240.179688 280.875 239.914062 L 292.957031 227.835938 C 293.222656 227.570312 293.648438 227.570312 293.914062 227.835938 C 294.179688 228.097656 294.179688 228.527344 293.914062 228.792969 L 281.835938 240.875 C 281.703125 241.003906 281.527344 241.070312 281.355469 241.070312 " fill-opacity="1" fill-rule="nonzero"/><path fill="white" d="M 284.457031 244.171875 C 284.285156 244.171875 284.109375 244.105469 283.976562 243.972656 C 283.714844 243.710938 283.714844 243.28125 283.976562 243.015625 L 296.058594 230.9375 C 296.324219 230.671875 296.75 230.671875 297.015625 230.9375 C 297.28125 231.199219 297.28125 231.628906 297.015625 231.894531 L 284.933594 243.972656 C 284.804688 244.105469 284.628906 244.171875 284.457031 244.171875 " fill-opacity="1" fill-rule="nonzero"/></svg>